<svg xmlns="http://www.w3.org/2000/svg" xmlns:xlink="http://www.w3.org/1999/xlink" viewBox="0 0 1571.64 1094.14"><defs><style>.cls-1{isolation:isolate;}.cls-2{fill:#caafd4;opacity:0.75;}.cls-14,.cls-2{fill-rule:evenodd;}.cls-13,.cls-3,.cls-4{fill:#2a2b7d;}.cls-11,.cls-13,.cls-28,.cls-4,.cls-8{opacity:0.25;}.cls-11,.cls-28,.cls-4,.cls-8{mix-blend-mode:multiply;}.cls-5{fill:#ffc0c0;}.cls-6{fill:#fa9999;}.cls-28,.cls-7{fill:#f86666;}.cls-16,.cls-8{fill:#ffdf66;}.cls-9{fill:#8193e9;}.cls-10{fill:#fff;}.cls-12{fill:#d6f0fd;}.cls-13{mix-blend-mode:screen;}.cls-14,.cls-15{fill:#7ab6f5;}.cls-17{fill:#cc4949;}.cls-18{fill:#32357c;}.cls-19{fill:url(#linear-gradient);}.cls-20{fill:url(#linear-gradient-2);}.cls-21{fill:#20246b;}.cls-22{fill:#0686cc;}.cls-23{fill:url(#linear-gradient-3);}.cls-24{fill:#bd8b84;}.cls-25{fill:#6f86dd;}.cls-26{fill:#65a9e5;}.cls-27{fill:#bad1d8;}</style><linearGradient id="linear-gradient" x1="609.68" y1="775.39" x2="794.68" y2="775.39" gradientTransform="translate(1120.89 -183.24) rotate(65.76)" gradientUnits="userSpaceOnUse"><stop offset="0" stop-color="#0b003f"/><stop offset="1" stop-color="#4425b1"/></linearGradient><linearGradient id="linear-gradient-2" x1="904.55" y1="994.08" x2="996.97" y2="994.08" gradientTransform="matrix(1, 0, 0, 1, 0, 0)" xlink:href="#linear-gradient"/><linearGradient id="linear-gradient-3" x1="810.56" y1="1021.5" x2="911.96" y2="1021.5" gradientTransform="matrix(1, 0, 0, 1, 0, 0)" xlink:href="#linear-gradient"/></defs><title>Asset 5</title><g class="cls-1"><g id="Layer_2" data-name="Layer 2"><g id="LANDING_PAGE" data-name="LANDING PAGE"><g id="_4" data-name="4"><path class="cls-2" d="M386.71,989.91C-357.38,668.43,278.56-456.76,859.41,204.75,1003.62,369,1223.94,361,1332.1,341c551.13-102.06,116.2,1107.6-945.39,649Z"/><path class="cls-3" d="M1258.22,931.05s-9.36,14.1-6.13,38.93c0,0,65.26,33.88,66.33,10.29.07-1.45,4.81-9.95-38.93-38.08l-.79-14.56Z"/><polygon class="cls-4" points="1309.65 964.03 1288.53 972.55 1261.79 953.91 1280.71 942.26 1309.65 964.03"/><path class="cls-3" d="M1177.36,932.9s8,14.89,2.56,39.33c0,0-68.06,27.8-67,4.21.07-1.45-3.89-10.35,42.23-34.38l2.11-14.43Z"/><polygon class="cls-4" points="1123.37 961.62 1143.63 972.03 1171.95 955.89 1154.17 942.57 1123.37 961.62"/><polygon class="cls-3" points="1228.21 656.34 1181.82 941.63 1152.83 940.32 1170.61 550.01 1261.61 592.67 1228.21 656.34"/><polygon class="cls-3" points="1277.68 566.49 1281.2 935.51 1256.44 937.29 1214.31 554.89 1277.68 566.49"/><polygon class="cls-4" points="1269.04 565.25 1276.68 566.62 1280.27 935.64 1271.68 936.25 1269.04 565.25"/><polygon class="cls-5" points="1122.41 491.66 1175.64 534.74 1177.15 501.41 1149.84 495.23 1122.41 491.66"/><polygon class="cls-6" points="1206.32 341.78 1209.92 357.32 1236.89 364.47 1251.01 341.83 1238.02 298.68 1206.32 341.78"/><path class="cls-7" d="M1250.39,338.69,1300,368.58a41.55,41.55,0,0,1,20,32.14l4.81,57.54L1287,459.44l-3-29.18-5,142.09-110.28-2.12L1170.8,428l-19.69-14,6.82-18.39a51,51,0,0,1,22.44-26.49l29.19-16.73S1233,369.85,1250.39,338.69Z"/><polygon class="cls-8" points="1277.88 426.86 1281.06 457.54 1282.01 457.51 1277.97 571.81 1272.76 571.71 1277.88 426.86"/><path class="cls-5" d="M1164.75,270.33s16.72,72.08,38.9,71.4,41.7-51.37,45.92-71.71C1249.57,270,1199.51,234,1164.75,270.33Z"/><path class="cls-5" d="M1323,453.78l-.42,1.58-2.89,10.69a22.51,22.51,0,0,1-17.46,16.21l-102,19.66L1201,486l86.89-26.54,6.13-7Z"/><rect class="cls-9" x="1073.45" y="405.13" width="143.62" height="95.75" rx="7.57" transform="translate(2268.72 957.65) rotate(-177.39)"/><path class="cls-10" d="M1207.61,505.25a8.75,8.75,0,0,0,8.72-8.34l3.66-80.32a9,9,0,0,0-1.06-4.83,8.73,8.73,0,0,0-7.26-4.5l-128.35-5.85a8.73,8.73,0,0,0-9.13,8.33l-3.66,80.32a8.9,8.9,0,0,0,1.06,4.83,8.73,8.73,0,0,0,7.26,4.5h0l128.35,5.85Zm-124.7-101.83h.3l128.35,5.85a6.39,6.39,0,0,1,6.1,6.69L1214,496.49a6.46,6.46,0,0,1-6.68,6.1L1079,496.74a6.39,6.39,0,0,1-6.1-6.69l3.66-80.52a6.4,6.4,0,0,1,6.39-6.11Z"/><path class="cls-5" d="M1139.13,506.11l7.41.34a13,13,0,0,0,13.55-12.38h0a13,13,0,0,0-12.37-13.55l-7.41-.34a13,13,0,0,0-13.55,12.38h0a13,13,0,0,0,12.37,13.55Z"/><path class="cls-7" d="M1249.94,339.08,1299.58,369a41.55,41.55,0,0,1,20,32.14l4.81,57.54-37.81,1.19-3-29.19-.7,19.76-73.72-97.59-32,34.58h-12.4l-7.26,8.65a51,51,0,0,1,22.44-26.5l29.18-16.73S1232.55,370.23,1249.94,339.08Z"/><path class="cls-8" d="M1309.46,404.47a41.55,41.55,0,0,0-20-32.14l-44.16-26.59a54.19,54.19,0,0,0,4.52-6.87l49.65,29.89a41.55,41.55,0,0,1,20,32.13l4.81,57.55-10.28.32Z"/><g class="cls-11"><path class="cls-3" d="M1223.23,650.27c.37-5.17.68-10.44,2.5-15.29s5.46-9.32,10.44-10.75c-3.87,9.82-5.87,20.25-7.85,30.62q-3.09,16.21-6.19,32.43c-.75,3.93-1.5,7.86-2,11.83a98.24,98.24,0,0,0-.8,13.17c0-2.21-1.22-4.74-1.43-7a54.34,54.34,0,0,1,.17-7.66c.23-4.7.8-9.17,1.49-13.87Q1222,667.08,1223.23,650.27Z"/></g><circle class="cls-12" cx="1144.18" cy="451.89" r="14.5"/><path class="cls-6" d="M1223.66,255.2s-4.56,22.78-56.29,24.93l-3.62-13.63,27.38-15.05,28.42-5Z"/><path class="cls-3" d="M1235.72,236s-13.23-34.79-48.93-12.95c0,0-32.81,18.29-48,6.36,0,0-10.06,21.81,13.85,20.88,0,0-6.73,3.8-16.74-4.81,0,0,17.48,52.81,83.55,16.64l7,23.69,6.29-17.84s21.75,3.89,6.13,32.84l5.67,18C1242.44,320.17,1286.16,228.77,1235.72,236Z"/><path class="cls-13" d="M1233.84,240.83s-13.22-34.79-48.92-13c0,0-32.1,17.87-47.51,6.71a26.84,26.84,0,0,1,1.63-5.18c15.21,11.93,48-6.36,48-6.36C1222.76,201.21,1236,236,1236,236c48.76-7,9.54,78.17,8.73,82.67l-.18-.58C1252.05,298.53,1276.3,234.74,1233.84,240.83Z"/><path class="cls-14" d="M1380.85,434.39h15.66a1.18,1.18,0,0,1,1.17,1.18v4.64a1.18,1.18,0,0,1-1.17,1.18h-15.65a1.18,1.18,0,0,1-1.18-1.17V435.6a1.2,1.2,0,0,1,1.17-1.21Z"/><path class="cls-14" d="M1392.85,445.39h15.66a1.18,1.18,0,0,1,1.17,1.18v4.65a1.18,1.18,0,0,1-1.17,1.17h-15.65a1.18,1.18,0,0,1-1.18-1.18V446.6a1.2,1.2,0,0,1,1.17-1.21Z"/><path class="cls-14" d="M1369.85,445.39h15.66a1.18,1.18,0,0,1,1.17,1.18v4.65a1.18,1.18,0,0,1-1.17,1.17h-15.65a1.18,1.18,0,0,1-1.18-1.18V446.6a1.2,1.2,0,0,1,1.17-1.21Z"/><path class="cls-14" d="M1380.85,457.39h15.66a1.18,1.18,0,0,1,1.17,1.18v4.64a1.18,1.18,0,0,1-1.17,1.18h-15.65a1.18,1.18,0,0,1-1.18-1.17V458.6a1.2,1.2,0,0,1,1.17-1.21Z"/><path class="cls-14" d="M1351.85,708.39h15.66a1.18,1.18,0,0,1,1.17,1.18v4.64a1.18,1.18,0,0,1-1.17,1.18h-15.65a1.18,1.18,0,0,1-1.18-1.17V709.6a1.2,1.2,0,0,1,1.17-1.21Z"/><path class="cls-14" d="M1362.85,719.39h15.66a1.18,1.18,0,0,1,1.17,1.18v4.65a1.18,1.18,0,0,1-1.17,1.17h-15.65a1.18,1.18,0,0,1-1.18-1.18V720.6a1.2,1.2,0,0,1,1.17-1.21Z"/><path class="cls-14" d="M1339.85,719.39h15.66a1.18,1.18,0,0,1,1.17,1.18v4.65a1.18,1.18,0,0,1-1.17,1.17h-15.65a1.18,1.18,0,0,1-1.18-1.18V720.6a1.2,1.2,0,0,1,1.17-1.21Z"/><path class="cls-14" d="M1351.85,730.39h15.66a1.18,1.18,0,0,1,1.17,1.18v4.64a1.18,1.18,0,0,1-1.17,1.18h-15.65a1.18,1.18,0,0,1-1.18-1.17V731.6a1.2,1.2,0,0,1,1.17-1.21Z"/><path class="cls-14" d="M280.85,448.39h15.66a1.18,1.18,0,0,1,1.17,1.18v4.65a1.18,1.18,0,0,1-1.17,1.17H280.86a1.18,1.18,0,0,1-1.18-1.17V449.6a1.2,1.2,0,0,1,1.17-1.21Z"/><path class="cls-14" d="M292.85,459.39h15.66a1.18,1.18,0,0,1,1.17,1.18v4.65a1.18,1.18,0,0,1-1.17,1.17H292.86a1.18,1.18,0,0,1-1.18-1.18V460.6a1.2,1.2,0,0,1,1.17-1.21Z"/><path class="cls-14" d="M268.85,459.39h15.66a1.18,1.18,0,0,1,1.17,1.18v4.65a1.18,1.18,0,0,1-1.17,1.17H268.86a1.18,1.18,0,0,1-1.18-1.18V460.6a1.2,1.2,0,0,1,1.17-1.21Z"/><path class="cls-14" d="M280.85,470.39h15.66a1.18,1.18,0,0,1,1.17,1.18v4.64a1.18,1.18,0,0,1-1.17,1.18H280.86a1.18,1.18,0,0,1-1.18-1.17V471.6a1.2,1.2,0,0,1,1.17-1.21Z"/><path class="cls-10" d="M665.42,402.73A4.24,4.24,0,0,1,663,402l-13.53-9.57H609.55a15.87,15.87,0,0,1-15.58-13H584.2a15.52,15.52,0,0,1-15.52-15.52v-17a15.52,15.52,0,0,1,15.52-15.52h54c7.61,0,14,5.19,15.27,12h9.64a15.52,15.52,0,0,1,15.52,15.52v17.83a15.68,15.68,0,0,1-9,14.25v7.32a4.39,4.39,0,0,1-.72,2.52A4.29,4.29,0,0,1,665.42,402.73Z"/><rect class="cls-9" x="573.68" y="336.39" width="76" height="40" rx="11.17"/><rect class="cls-15" x="598.68" y="349.39" width="76" height="40" rx="11.17"/><polygon class="cls-15" points="642.58 383.18 665.68 399.15 665.68 380.62 642.58 383.18"/><path class="cls-16" d="M627.15,367.21a4.83,4.83,0,1,1-4.83-4.83A4.83,4.83,0,0,1,627.15,367.21Z"/><path class="cls-16" d="M643.41,367.21a4.83,4.83,0,1,1-4.83-4.83A4.83,4.83,0,0,1,643.41,367.21Z"/><path class="cls-16" d="M659.79,367.21a4.83,4.83,0,1,1-4.83-4.83A4.83,4.83,0,0,1,659.79,367.21Z"/><path class="cls-10" d="M1130.42,360.73A4.24,4.24,0,0,1,1128,360l-13.53-9.57h-39.91a15.87,15.87,0,0,1-15.58-13h-9.77a15.52,15.52,0,0,1-15.52-15.52v-18a15.52,15.52,0,0,1,15.52-15.52h55.47a15.87,15.87,0,0,1,15.59,13h7.9a15.52,15.52,0,0,1,15.52,15.52v17.83a15.68,15.68,0,0,1-9,14.25v7.33a4.29,4.29,0,0,1-4.26,4.41Z"/><rect class="cls-9" x="1038.68" y="293.39" width="76" height="40" rx="11.17"/><rect class="cls-15" x="1063.68" y="306.39" width="76" height="40" rx="11.17"/><polygon class="cls-15" points="1107.58 340.37 1130.68 356.34 1130.68 337.8 1107.58 340.37"/><path class="cls-16" d="M1092.24,324.4a4.83,4.83,0,1,1-4.83-4.83A4.83,4.83,0,0,1,1092.24,324.4Z"/><path class="cls-16" d="M1108.5,324.4a4.83,4.83,0,1,1-4.83-4.83A4.83,4.83,0,0,1,1108.5,324.4Z"/><path class="cls-16" d="M1124.88,324.4a4.83,4.83,0,1,1-4.83-4.83A4.83,4.83,0,0,1,1124.88,324.4Z"/><path class="cls-3" d="M951.76,254s47.18-18,41.78,53.51c-5.58,73.88-28.81,96.61-56.44,87.59C875.13,374.83,923.91,261.65,951.76,254Z"/><polygon class="cls-6" points="958.68 353.76 958.68 397.38 945.77 406.17 922.56 391.91 925.24 336.49 958.68 353.76"/><path class="cls-5" d="M947.79,268.52s34.46.79,27.76,35.71-16.81,56.26-28.45,60.4c-4.85,1.73-49.62-35.43-48.52-53.61S926.56,260.27,947.79,268.52Z"/><path class="cls-17" d="M952.52,938.34l3.42,30h2.69l5.13-12s19.21,17.68,51.45,13a2.5,2.5,0,0,0,1.15-4.49c-9.89-7.29-33.74-23.82-50.4-26.85Z"/><path class="cls-17" d="M918,935.34l-3.42,30h-2.69l-5.13-12s-19,17.45-50.8,13.11a2.77,2.77,0,0,1-1.27-5c10.19-7.47,33.5-23.48,49.87-26.46Z"/><path class="cls-5" d="M934.09,814.25,918,935.44s-19.3,24.19-40.56,16.61c0,0-2.69-7.57,27.12-16.86L902.08,818.4Z"/><path class="cls-5" d="M936.4,816.81,952.52,938s19.31,24.19,40.56,16.61c0,0,2.69-7.57-27.12-16.86L968.4,821Z"/><path class="cls-18" d="M871.76,587.81s0,63.34,24,237.79l79.79,2.45s34.64-228.73,34.15-238-43.49-49.84-43.49-49.84l-52.78,2.93Z"/><path class="cls-16" d="M910.52,377.9s33,39.27,48.36,4h0L982,419.09,946.05,475.9l-50.29-43.62L898,383Z"/><path class="cls-9" d="M957.14,549.8l-5.63,13.92-16.85,41.67H867.47l24.18-92.72c-36.14-47-38.55-77.84-30.21-97.6l.48-1.1a53.13,53.13,0,0,1,16.58-20.33,65.62,65.62,0,0,1,19.75-10.36c3.39,1.27,6.86,4.88,10.36,10.26,4.38,6.77,8.79,16.29,13.06,27.34.81,2.11,1.63,4.26,2.43,6.47,2.46,6.76,4.87,14,7.19,21.37,2,6.43,4,13,5.82,19.53.8,2.77,1.57,5.55,2.32,8.3.09.3.17.6.25.91v0a.18.18,0,0,1,0,.1c.41,1.48.81,3,1.21,4.44.46,1.71.91,3.42,1.36,5.11q1.28,4.88,2.49,9.58c.23.89.45,1.77.67,2.65.43,1.73.87,3.44,1.28,5.12C953.11,530.24,957.14,549.8,957.14,549.8Z"/><path class="cls-9" d="M1016.63,601.43l-44.71,5.5-20.41-43.51-2-4.14-13-51.85-1.7-6.79,3.74-18.38,1-5.07v0l1.22-5.93,1.66-8.2.4-1.93,15.76-77.4.37-1.8s12.14.83,24.9,11.12c11.19,9,22.86,25.37,27.14,54.84.72,4.94,1.17,9.48,1.36,13.67a84.68,84.68,0,0,1-1.42,22.15c-2.64,12.4-8.22,19.23-13.53,23a24.12,24.12,0,0,1-12.43,4.61Z"/><path class="cls-18" d="M1022.81,482.31c-2.92,1.85-7.7,1.83-11.74,1.37-2.64,12.4-8.22,19.23-13.53,23-13.15,0-28.16-3.22-39.84-6.39-5.09-1.37-9.53-2.75-12.92-3.85-4.35-1.41-6.95-2.38-6.95-2.38l1.31-11.89.54-5v0l18.14.64,28,1,4.86.18,5.56.19a52.8,52.8,0,0,1-4-10c-8.28-27-8.22-74.93-8.22-76.13,11.19,9,22.86,25.37,27.14,54.84.72,4.94,1.17,9.48,1.36,13.67,1.92-.42,3.4-.47,4.14,0C1020.42,464,1028.63,478.65,1022.81,482.31Z"/><path class="cls-18" d="M910.52,377.9c-8.18,3.19-17.06,6.61-20.26,8.16,0,0,21.47,12.6,11.55,34,7-1.45,13.57.08,17.59,5.79,0,0,.12,10.42-12.21,14.18,0,0,24.81,24.36,30.54,36.09C944.18,489.27,941.42,410.82,910.52,377.9Z"/><path class="cls-18" d="M958.86,381.9l-18.18,89.33s20.39-30.7,28-30.94c0,0-17.1-6.85-12.36-16.14,4.05-7.91,22.36-5.24,22.36-5.24S962.09,395.54,958.86,381.9Z"/><path class="cls-5" d="M943.13,477.29s-22.86-6.22-26.52-6-13.19,16.86-9.53,18.81,17.61-1.71,17.61-1.71,3.69-2.24,12.59-.51S943.13,477.29,943.13,477.29Z"/><path class="cls-5" d="M1022.6,482.31c-2.93,1.85-7.71,1.83-11.75,1.37a52.44,52.44,0,0,1-7.26-1.37l-11,2.67-5.14,1.24-1.91-7.45-1.82-7.08.24-.05,3.5-.75,1.42-.3s1.19-.58,3.06-1.44c4.89-2.24,14.53-6.47,20.28-7.62,1.92-.42,3.41-.47,4.14,0C1020.2,464,1028.41,478.65,1022.6,482.31Z"/><path class="cls-18" d="M990.76,487.8,949.57,498l-4.33,1.08-10.31,2.54-43.5,10.76c-36.13-47-38.55-77.84-30.2-97.59,0,0,35,19.78,48.84,63.59.27.87.55,1.75.8,2.64l28.58-3.71h0l.8-.1L942,477l43.62-5.66,2.36,7.54Z"/><path class="cls-3" d="M892.58,316c-30.88-68.41,71.7-103.43,75.77-42.58,1.58,23.58-46,22.94-34.1,49.52a3.83,3.83,0,0,1-1.58,4.9c-3.85,2.16-8.78,6.94-1.73,15.69,35.34,43.86-15.57,91.33-53.17,106.9,0,0,12.15-44.62,0-76.71,0,0-5.7-18.59,11.39-26.38C889.16,347.36,903.7,340.65,892.58,316Z"/><path class="cls-3" d="M740,934.7l22.18,109.69h8.56l-38-226.51-15.78,2.46L728,875.29,681.63,899l-51.52-26.38L641.74,815,626,812.57l-38,226.82h8.56L616.93,938l64.7-33.13Zm-10.93-54.17,9.63,47.72-51.41-26.32Zm-110.83,51,10.82-53.59,46.93,24Z"/><path class="cls-17" d="M673.35,551.36S557,562.83,579.74,725.77,785.39,839.05,785.39,839.05,731.18,594.78,673.35,551.36Z"/><ellipse class="cls-19" cx="702.18" cy="775.39" rx="57.34" ry="98.08" transform="translate(-293.15 1097.28) rotate(-65.76)"/><path class="cls-5" d="M877.57,956.44c-.06.71,16.2,26.13,16.71,25.84s30.85-7.79,30.85-7.79l-20-33.25Z"/><path class="cls-17" d="M996.85,970.24c3,6-48,30.74-73.27,42.53-8.23,3.85-13.72,6.32-13.72,6.32a62.17,62.17,0,0,1-5.31-6.25,88.69,88.69,0,0,1-12.41-22.37,76,76,0,0,1-4.35-17.53l30.33-10.09h0s28.25-.21,51,1.48c12.31.91,23,2.38,26.61,4.75A3.14,3.14,0,0,1,996.85,970.24Z"/><path class="cls-3" d="M921.68,1004.08h0a30.74,30.74,0,0,1,1.91,8.69c-8.23,3.85-13.72,6.32-13.72,6.32a62.17,62.17,0,0,1-5.31-6.25,88.69,88.69,0,0,1-12.41-22.37S914.67,986.24,921.68,1004.08Z"/><path class="cls-20" d="M996.85,970.24c3,6-48,30.74-73.27,42.53-8.23,3.85-13.72,6.32-13.72,6.32a62.17,62.17,0,0,1-5.31-6.25c4-2,10-5.11,17.12-8.76h0c23.11-11.83,58.1-29.5,74-35A3.14,3.14,0,0,1,996.85,970.24Z"/><path class="cls-3" d="M969.08,964.32c-3.89,1.63-8.86,3.68-15.2,6.23-24.27,9.79-35.75-7.71-35.75-7.71S946.38,962.63,969.08,964.32Z"/><path class="cls-21" d="M744.27,736c1.65-1.26,93.12,55.59,104.83,79.69,15.22,31.32,59.51,133.1,59.51,133.1L879.29,964.3,814,844.4,705.4,768.06Z"/><path class="cls-5" d="M814.16,953.39c-.4.59,1.57,30.7,2.16,30.7s30.77,8.07,30.77,8.07l-1.45-38.77Z"/><path class="cls-17" d="M912,1022.87c-.3,6.68-56.91,3.73-84.71,1.88-9.06-.61-15.06-1.1-15.06-1.1a62.11,62.11,0,0,1-1.63-8,88.83,88.83,0,0,1-.07-25.58,76,76,0,0,1,4.65-17.45l31.43,5.8h0s24.84,13.45,43.91,25.89c10.33,6.74,19,13.18,21,17A3.25,3.25,0,0,1,912,1022.87Z"/><path class="cls-3" d="M829.79,1016.39h0a30.66,30.66,0,0,1-2.53,8.54c-9.06-.61-15.06-1.1-15.06-1.1a62.11,62.11,0,0,1-1.63-8,88.83,88.83,0,0,1-.07-25.58S832.26,997.39,829.79,1016.39Z"/><path class="cls-3" d="M890.5,1004.72c-4.2-.45-9.54-1.06-16.33-1.88-26-3.14-27.58-24-27.58-24S871.43,992.28,890.5,1004.72Z"/><path class="cls-18" d="M655.8,739.45s-38.83,82.94,114,95c0,0,25.24,6,27.06,25.23,2.33,24.7,14.26,103.66,14.26,103.66h37.5s-.42-72.11-.36-130.84c0-9.59-15.92-25.07-23.68-30.68-26-18.8-67-52.84-92.38-60.76Z"/><polygon class="cls-5" points="770.63 632.61 797.72 698.76 824.77 694.52 805.66 621.4 770.63 632.61"/><path class="cls-5" d="M815.28,680.09c0-.79,3.37-9.84,5.33-9.84s20.85.19,24.78,2.55-.59,16.53-3.93,16.73-24.6-2.29-26.18-3.11S815.28,680.09,815.28,680.09Z"/><path class="cls-5" d="M807.92,680.17c1.52-.47,13.58-1.11,13.19,5.16s-14.17,3.11-14.17,3.11S802.22,682,807.92,680.17Z"/><path class="cls-6" d="M692.68,492.91v54.82s38,31,40.14,18.42c.2-1.18,0-54.31,0-54.31Z"/><path class="cls-5" d="M767.83,461.16s-14.11,72.13-33.5,74.56c-13.2,1.65-30.29-17.33-39.85-29.62-4.48-5.76-7.31-10.05-7.31-10.05s1.11-68,28.81-65.7S767.83,461.16,767.83,461.16Z"/><path class="cls-3" d="M799,438.79s-13.6,17.65-31.85,25.73c-12.45,5.52-27.09,6.54-41-5.6a62.59,62.59,0,0,1-9.61-10.8l-6.64,35.78-12,10.06L694,497.2l.46,8.9-1.32,7.45s-70.48-83.41-.34-95c0,0,24-46.52,62.4-6.09q2.64,2.75,5.35,6.08,4.21,5.15,8.61,11.73S776.11,442.37,799,438.79Z"/><circle class="cls-10" cx="701.68" cy="468.39" r="26" transform="translate(-134.99 576.66) rotate(-41.1)"/><circle class="cls-9" cx="699.68" cy="469.39" r="8" transform="matrix(0.13, -0.99, 0.99, 0.13, 146.15, 1104.6)"/><path class="cls-10" d="M755.22,412.49c-21.35-1.91-35,7.12-43.66,18.12a65.07,65.07,0,0,0-7.26,11.64,82.26,82.26,0,0,0-6.63,19.64c0,.11,0,.21,0,.3-1.11,5.84-1.54,9.45,1.8,10.24a3.54,3.54,0,0,0,.63.09,3.21,3.21,0,0,0,3.25-2.47,3,3,0,0,0,0-1.6,39.61,39.61,0,0,1,.85-5.92,74.08,74.08,0,0,1,6.6-18.82,54.26,54.26,0,0,1,9.19-12.86c.48-.48,1-1,1.47-1.42,9.52-8.85,21.86-12.26,36.67-10.15a3.19,3.19,0,0,0,2.52-.71Q757.86,415.24,755.22,412.49Z"/><path class="cls-9" d="M810.1,627.22l-40.36,9.84L765,623.22l-4.81,42.57-2.46,21.8v55.8h-105l1-59.76-1-22.79,1-33.39.12-8.1-4.93,16h-.75c-.75,0-2,0-3.64,0-8.48-.2-26.94-.84-34.89-3l-1.17-.35a6.31,6.31,0,0,1-2.06-1,1.27,1.27,0,0,1-.31-.3c-3.25-4.43,15.07-62.3,25.69-73.52a38.74,38.74,0,0,1,4.22-3.66c17.88-13.84,57.47-23.75,57.47-23.75,38.49,43.15,40.42,8.33,40.42,8.33l24.55,3.57a40.53,40.53,0,0,1,27.2,16.47C807.34,588.66,810.1,627.22,810.1,627.22Z"/><path class="cls-5" d="M645.54,629.29s-.23,22.63-4.36,29.72l97.21,12.39S766.53,659,782.27,670s11,19.28,11,19.28-6.69,1-12.2-7.48-18.69-1.57-18.69-1.57,16.33,2.75,9.44,6.3S738,684.39,738,684.39L616.78,683s-13-35.42-6.3-56.08Z"/><path class="cls-9" d="M663.63,594.7l-2.36,20-7.59,12.64.12-8-4.93,16h-.75s-1.36.14-3.65.27c-7.24.41-23.63.8-34.86-3.28l-1.16-.45c-.72-.3-1.42-.61-2.07-.94a1.14,1.14,0,0,1-.31-.31c-3.25-4.43,15.06-62.28,25.68-73.51a38.82,38.82,0,0,1,4.22-3.65Z"/><rect class="cls-10" x="562.68" y="151.39" width="50" height="134" rx="22.52"/><path class="cls-14" d="M816.85,296.39h15.66a1.18,1.18,0,0,1,1.17,1.18v4.65a1.18,1.18,0,0,1-1.17,1.17H816.86a1.18,1.18,0,0,1-1.18-1.17V297.6a1.2,1.2,0,0,1,1.17-1.21Z"/><path class="cls-14" d="M828.85,307.39h15.66a1.18,1.18,0,0,1,1.17,1.18v4.65a1.18,1.18,0,0,1-1.17,1.17H828.86a1.18,1.18,0,0,1-1.18-1.18V308.6a1.2,1.2,0,0,1,1.17-1.21Z"/><path class="cls-14" d="M805.85,307.39h15.66a1.18,1.18,0,0,1,1.17,1.18v4.65a1.18,1.18,0,0,1-1.17,1.17H805.86a1.18,1.18,0,0,1-1.18-1.18V308.6a1.2,1.2,0,0,1,1.17-1.21Z"/><path class="cls-14" d="M816.85,319.39h15.66a1.18,1.18,0,0,1,1.17,1.18v4.64a1.18,1.18,0,0,1-1.17,1.18H816.86a1.18,1.18,0,0,1-1.18-1.17V320.6a1.2,1.2,0,0,1,1.17-1.21Z"/><path class="cls-15" d="M1394.63,544.39h-64.57a4,4,0,0,1-4-4h0a4,4,0,0,1,4-4h64.57a4,4,0,0,1,4,4h0A4,4,0,0,1,1394.63,544.39Z"/><path class="cls-15" d="M1421.89,561.39H1330.2a4,4,0,0,1-4-4h0a4,4,0,0,1,4-4h91.69a4,4,0,0,1,4,4h0A4,4,0,0,1,1421.89,561.39Z"/><path class="cls-15" d="M1428.72,579.39h-98.29a4,4,0,0,1-4-4h0a4,4,0,0,1,4-4h98.29a4,4,0,0,1,4,4h0A4,4,0,0,1,1428.72,579.39Z"/><polygon class="cls-22" points="439.2 971.57 434.19 970.34 436.7 962.09 440.86 964.64 439.2 971.57"/><path class="cls-5" d="M608.28,512s28.06-1.05,26.93,3.72a6.54,6.54,0,0,1-5.06,5.3s17.8,5.14,17.23,12.11-12.8,13.17-27,8.3-20.27-14.87-20.27-14.87Z"/><path class="cls-9" d="M482.7,935.78s44.57,13.21,50.39,25.89c5.39,11.76-48.64-8.23-49.36-1.46l-2.67,3.46-6-.47s-11.64-12-6-20.9C474.83,933.15,482.7,935.78,482.7,935.78Z"/><path class="cls-9" d="M426.31,940.3c-.06-.07-22.62,39.58-18.06,52.93a4.32,4.32,0,0,0,6.23,2.36c4.92-2.81,15-10.58,22.5-29.45l2.15,5.47s4.67-4,4.18-8.1S447.89,937.88,426.31,940.3Z"/><path class="cls-5" d="M487.54,820.2,482.1,936.42s42.59,11.22,33.83,17.49c-5.6,4-46.46-12.89-46.45-10.7L456.14,817.08Z"/><path class="cls-5" d="M452.23,817.08,437.46,947.82s-10.91,34.93-21.1,35.29,9.83-42.2,9.83-42.2l-8-125.53Z"/><path class="cls-3" d="M495.92,285.33S490.2,383.17,515,394.43s-43.82,28.34-43.82,28.34S329.24,276.79,495.92,285.33Z"/><path class="cls-18" d="M511.2,397.69s25.7,66.55,28.14,77.55c2.2,10,68.89,33.55,68.89,33.55L598.51,532,528.18,505.9A44.2,44.2,0,0,1,502,479.46l-15.12-42S488.4,397.69,511.2,397.69Z"/><path class="cls-21" d="M494.44,557.39s34.9,104.69-7.58,265H416s-35.86-205.74-10.29-265Z"/><path class="cls-6" d="M467.68,357.53v35.33L456,407.61s-10.88-22.9-23.3-25l9.71-9.9-1.56-29.51Z"/><path class="cls-5" d="M484.26,306.32s2.29,43.85-25.39,59.5a8.6,8.6,0,0,1-8.18.21c-7-3.6-20.7-14.23-26.42-43.64-7.86-40.35,21.87-47.85,21.87-47.85S488.52,275.25,484.26,306.32Z"/><path class="cls-16" d="M432.15,374.23,391.92,389s26.29,99,12.6,172.22c0,0,42.11,31.53,96.85,3.4,0,0-11.94-150.24,9.81-165.81a1.29,1.29,0,0,0-.28-2.2l-43.22-19.49S458.47,402.91,432.15,374.23Z"/><polygon class="cls-7" points="551.71 551.24 481.85 515.22 420 617.82 486.89 653.11 551.71 551.24"/><path class="cls-5" d="M444.92,550.51s14.38-3.64,17.53-2.91-2.91,8.73-2.91,8.73,16.89,12.41,16,14.55-17.9,13.9-25.47,9.34-16.25-18.8-16.25-18.8Z"/><path class="cls-23" d="M912,1023.05c-.3,6.68-56.91,3.73-84.71,1.88-9.06-.61-15.06-1.1-15.06-1.1a62.11,62.11,0,0,1-1.63-8c4.44.15,11.2.33,19.22.59h0c26,.8,65.12,2.22,81.72,5.07A3.25,3.25,0,0,1,912,1023.05Z"/><rect class="cls-10" x="890.68" y="53.39" width="248" height="161" rx="22.52"/><rect class="cls-10" x="684.68" y="138.39" width="132" height="84" rx="22.52"/><rect class="cls-10" x="224.68" y="248.39" width="127" height="148" rx="22.52"/><path class="cls-15" d="M1092.06,652.67a16.74,16.74,0,0,1-15.89,10.72L921,661a16.81,16.81,0,0,1-15.77-21.87l30.65-97a16.75,16.75,0,0,1,16-11.71l162.78.48a16.82,16.82,0,0,1,15.63,22.87Z"/><path class="cls-9" d="M1036.92,601.39c-1.5-1.12-5.91-3.7-15.07-3.81-11.73-.15-16,4.33-16,4.33l-2.24,7.91h.05l-20.87,73.57H1014l22.28-77h-.07l1.09-3.77A1.14,1.14,0,0,0,1036.92,601.39Z"/><rect class="cls-24" x="422.68" y="683.39" width="738" height="18" rx="8.95"/><polygon class="cls-3" points="1059.87 699.39 994.19 1036.39 1001.65 1036.39 1074.87 699.39 1059.87 699.39"/><polygon class="cls-3" points="1092.14 699.39 1158.4 1039.39 1150.87 1039.39 1077.01 699.39 1092.14 699.39"/><path class="cls-3" d="M1138.28,939l-7.4-28.64a1.93,1.93,0,0,0-2.35-1.39l-52,13.38-52-13.38a1.92,1.92,0,0,0-2.35,1.39L1014.67,939a1.94,1.94,0,0,0,1.87,2.41h119.87a1.93,1.93,0,0,0,1.87-2.41Zm-10.66-25.78,6.18,23.9-49.57-12.75Zm-102.29,0,43.39,11.15-49.57,12.75Zm7.56,24.19,43.59-11.21,43.58,11.21Z"/><polygon class="cls-3" points="488.69 699.39 423 1036.39 430.47 1036.39 503.68 699.39 488.69 699.39"/><polygon class="cls-3" points="520.95 698.39 587.22 1038.39 579.69 1038.39 505.82 698.39 520.95 698.39"/><path class="cls-3" d="M567.19,941.46l-.3-.07-5.83-28.21a1.92,1.92,0,0,0-.86-1.25,2,2,0,0,0-1.51-.23l-54.06,13.8L451.54,912a1.88,1.88,0,0,0-1.5.23,1.9,1.9,0,0,0-.87,1.25l-5.72,27.68-.41.11a1.93,1.93,0,0,0-1.44,2.11c.13,1,.95,1.69,1.92,1.06H444c.28.78.6.88.93,1H566.71a2.16,2.16,0,0,0,1.92-1.81A1.94,1.94,0,0,0,567.19,941.46Zm-108.3-.07,45.74-11.67,45.74,11.67Zm98.8-25.45,5,24.39-50.29-12.84Zm-105.15.25,44.28,11.3-49.21,12.56Z"/><rect class="cls-15" x="231.68" y="255.39" width="113" height="134" rx="15.46"/><circle class="cls-12" cx="265.68" cy="289.39" r="9"/><circle class="cls-12" cx="266.68" cy="325.39" r="9"/><circle class="cls-12" cx="266.68" cy="359.39" r="9" transform="translate(-176.02 293.84) rotate(-45)"/><path class="cls-12" d="M322.32,292.39H288.57a1.33,1.33,0,0,1-.71-1c0-.39.32-.71.71,0h33.75c.39-.69.71-.37.71,0A1.33,1.33,0,0,1,322.32,292.39Z"/><path class="cls-12" d="M322.91,326.39H289.16c-.39.19-.7-.12-.7-.51s.31-.71.7-.49h33.75c.39-.22.71.1.71.49S323.3,326.58,322.91,326.39Z"/><path class="cls-12" d="M322.32,361.39H288.57a.59.59,0,0,1-.71-.61c0-.39.32-.71.71-.39h33.75c.39-.32.71,0,.71.39A.59.59,0,0,1,322.32,361.39Z"/><rect class="cls-15" x="569.68" y="158.39" width="35" height="120" rx="15.45"/><path class="cls-17" d="M604.68,216.39v46.55a15.49,15.49,0,0,1-15.44,15.45h-4.11a15.49,15.49,0,0,1-15.45-15.45V216.39Z"/><rect class="cls-9" x="691.68" y="145.39" width="117" height="70" rx="15.47"/><polygon class="cls-12" points="759.59 180.7 723.68 159.97 723.68 201.44 759.59 180.7"/><path class="cls-17" d="M755.7,200a19.18,19.18,0,1,1,19.17-19.18A19.2,19.2,0,0,1,755.7,200Zm0-35.53A16.35,16.35,0,1,0,772,180.82,16.37,16.37,0,0,0,755.7,164.47Z"/><path class="cls-10" d="M737.37,290.75a23.82,23.82,0,1,1,16.35-41.1l3.45-2.8A7.78,7.78,0,1,1,767,258.92l-6,4.88a23.4,23.4,0,0,1,.21,3.13A23.85,23.85,0,0,1,737.37,290.75Z"/><circle class="cls-9" cx="737.68" cy="267.39" r="17"/><path class="cls-16" d="M736.91,274.22,729,265.55a.7.7,0,0,1,0-1,.72.72,0,0,1,1,0l7,7.69,24.57-19.94a.7.7,0,1,1,.89,1.09Z"/><path class="cls-10" d="M738.57,349.62a23.83,23.83,0,1,1,23.82-23.82A23.85,23.85,0,0,1,738.57,349.62Z"/><circle class="cls-9" cx="738.68" cy="325.39" r="17" transform="translate(252.28 969.55) rotate(-76.72)"/><path class="cls-16" d="M739.41,325.8l6.73-7.95a.64.64,0,1,0-1-.83l-6.59,7.78L732,317a.65.65,0,0,0-1,.83l6.74,7.95L731,333.74a.65.65,0,0,0,1,.84l6.59-7.79,6.59,7.79a.64.64,0,0,0,.49.22.66.66,0,0,0,.42-.15.65.65,0,0,0,.07-.91Z"/><rect class="cls-15" x="897.68" y="60.39" width="234" height="147" rx="15.46"/><circle class="cls-16" cx="922.68" cy="76.39" r="5"/><circle class="cls-16" cx="941.68" cy="76.39" r="5"/><circle class="cls-16" cx="959.68" cy="76.39" r="5"/><rect class="cls-12" x="925.68" y="96.39" width="103" height="52" rx="15.41"/><path class="cls-9" d="M1085.93,124.39h-20.16a13.54,13.54,0,0,1-13.5-13.5h0a13.55,13.55,0,0,1,13.5-13.5h20.16a13.55,13.55,0,0,1,13.5,13.5h0A13.54,13.54,0,0,1,1085.93,124.39Z"/><path class="cls-9" d="M1084.69,158.39h-20.16a13.54,13.54,0,0,1-13.5-13.5h0a13.55,13.55,0,0,1,13.5-13.5h20.16a13.54,13.54,0,0,1,13.5,13.5h0A13.53,13.53,0,0,1,1084.69,158.39Z"/><path class="cls-12" d="M1024.9,155.39h-93c-.39.54-.7.23-.7-.16a.94.94,0,0,1,.7-.84h93a1,1,0,0,1,.71.84C1025.61,155.62,1025.29,155.93,1024.9,155.39Z"/><path class="cls-12" d="M1024.9,166.39h-93a.93.93,0,0,1-.7-.83c0-.39.31-.71.7-.17h93c.39-.54.71-.22.71.17A.94.94,0,0,1,1024.9,166.39Z"/><path class="cls-12" d="M975.31,176.39H931.92c-.39.5-.7.19-.7-.21a.85.85,0,0,1,.7-.79h43.39a.85.85,0,0,1,.71.79C976,176.58,975.71,176.89,975.31,176.39Z"/><path class="cls-12" d="M993.62,188.39h-61.7a1.35,1.35,0,0,1-.7-1c0-.39.31-.71.7,0h61.7c.39-.7.7-.38.7,0A1.35,1.35,0,0,1,993.62,188.39Z"/><path class="cls-12" d="M1037.3,191.65a.6.6,0,0,1-.62-.71V89.7a.6.6,0,0,1,.62-.71c.39,0,.71.32.38.71V190.94C1038,191.33,1037.69,191.65,1037.3,191.65Z"/><path class="cls-12" d="M1097.81,176.39H1055.9c-.39.5-.71.19-.71-.21a.86.86,0,0,1,.71-.79h41.91a.86.86,0,0,1,.71.79C1098.52,176.58,1098.2,176.89,1097.81,176.39Z"/><path class="cls-12" d="M1097.81,184.39H1055.9c-.39.53-.71.21-.71-.18a.91.91,0,0,1,.71-.82h41.91a.91.91,0,0,1,.71.82C1098.52,184.6,1098.2,184.92,1097.81,184.39Z"/><rect class="cls-10" x="341.68" y="47.39" width="138" height="165" rx="23.51"/><rect class="cls-15" x="349.68" y="53.39" width="125" height="152" rx="16.96"/><path class="cls-25" d="M440.37,161.75a22,22,0,0,1-6.19,15.31l-14.37-16.84L436,148.6A21.89,21.89,0,0,1,440.37,161.75Z"/><path class="cls-16" d="M434.18,177.06a22,22,0,1,1-28.46-33.37l14.09,16.53Z"/><path class="cls-7" d="M436,148.6l-16.19,11.62-14.09-16.53A22,22,0,0,1,436,148.6Z"/><rect class="cls-12" x="373.68" y="77.39" width="50" height="3" rx="0.97"/><rect class="cls-12" x="372.68" y="94.39" width="77" height="3" rx="1.2"/><rect class="cls-12" x="372.68" y="108.39" width="77" height="3" rx="1.2"/><rect class="cls-12" x="372.68" y="128.39" width="77" height="3" rx="1.2"/><path class="cls-26" d="M74.65,849.2c-32.22,0-56.33-20.52-71.65-61a2.31,2.31,0,0,1,2.15-3.13,2.35,2.35,0,0,1,1.27.38c.09.06,9.4,6.09,18.32,6.09,4.87,0,8.57-1.75,11.3-5.34a11,11,0,0,0-.66-9.75c-2.76-4.57-10.74-10.2-33.17-11.11A2.33,2.33,0,0,1,.2,764a2.28,2.28,0,0,1,.33-2.4c1.36-1.67,33.87-40.76,67.8-40.76,14.07,0,26.27,6.74,36.3,20,2.3-4.6,5.14-14.68-4.82-27a2.31,2.31,0,0,1,2.87-3.5c2.24,1.19,54.91,29.35,59.25,67.58,1.9,16.77-5.87,32.8-23.09,47.63C137.51,826.65,108.1,849.2,74.65,849.2Z"/><path class="cls-15" d="M137.33,823.87s-91.46,71-132.18-36.47c0,0,22.14,14.55,32.89,0,0,0,11.07-22.45-35.73-24.35,0,0,62.61-76.21,102.45-18,0,0,11.7-14.23-3.16-32.57C101.6,712.46,204.06,766.43,137.33,823.87Z"/><path class="cls-26" d="M220.71,824.25c-14.48,0-27.48-3-38.63-8.88-18.48-9.77-33.19-27.82-45-55.19a159.73,159.73,0,0,1-7.18-19.37c-5-17.71-3.25-30.61,5.43-39.45.79-.81,2.59-1.9,6.2-4,1.62-1,4-2.36,4.72-2.91a2.31,2.31,0,0,1,1.87-1,2.69,2.69,0,0,1,.4,0,2.31,2.31,0,0,1,1.88,2.67c0,.11-1.82,10.79,3.12,16.65,2.19,2.61,5.37,3.88,9.72,3.88a31.4,31.4,0,0,0,7.41-1c1.45-1,8.16-6.18,8.11-13.86-.05-8-7.38-16.67-21.18-25.2a2.31,2.31,0,0,1-.71-3.24c1.09-1.64,27.15-40,72.7-40,20.69,0,42.1,8.09,63.65,24a2.3,2.3,0,0,1,.84,2.51,2.34,2.34,0,0,1-2.09,1.65c-.15,0-15.64,1-21.1,10-2.82,4.66-2.52,10.88.9,18.49,1,1.2,6.88,7.74,14.4,7.74,6.38,0,12.5-4.67,18.18-13.89a2.31,2.31,0,0,1,2-1.09,2.28,2.28,0,0,1,1.2.34,2.31,2.31,0,0,1,1.09,2.22,59.59,59.59,0,0,0,2.64,6.1c.48,1,.84,1.8.94,2.08a156.16,156.16,0,0,1,6.63,24.2c7,37-3.15,67.35-28.48,85.34-9.92,7-21.76,12.4-36.2,16.38A126.62,126.62,0,0,1,220.71,824.25Z"/><path class="cls-15" d="M132.16,740.18C128.4,727,127.46,712.71,137,703c1.39-1.42,11-6.42,11.14-7.21,0,0-5.21,29.41,23.48,22.06,0,0,28.23-17.79-12.8-43.16,0,0,50.75-76.37,133-15.42,0,0-35.82,1.9-22.06,32,0,0,18.26,23.48,36.52-6.17-.48.79,3.37,8.26,3.71,9.22a153.73,153.73,0,0,1,6.53,23.84c5.93,31.55-.18,63.61-27.55,83-10.63,7.55-22.9,12.57-35.48,16-23.21,6.4-49.11,7.35-70.4-3.9-20.93-11.06-34.57-32.31-43.92-54.06A157.83,157.83,0,0,1,132.16,740.18Z"/><path class="cls-26" d="M261.68,869.35c-6.18,0-13.13-2.05-20.11-5.92a50.73,50.73,0,0,1-15-12.41c-6.45-8-10.34-18.14-11.57-30.2a56.3,56.3,0,0,1,8.43-36.4c8.11-12.7,21.21-23,40-31.38a2.31,2.31,0,0,1,2.31.25,2.32,2.32,0,0,1,.93,2.13c0,.16-1.78,15.75,6.23,24.77,3.76,4.24,9.2,6.42,16.15,6.48,1.33-.39,8-2.66,10.73-9.19,2.79-6.71.75-15.85-6.07-27.15a2.3,2.3,0,0,1,2-3.5,2.4,2.4,0,0,1,.46,0c1.55-.06,7.37-.86,10.89-1.35s4.7-.64,5.17-.66c1.35,0,2.71-.08,4.07-.08,11.6,0,21.69,2,30,5.94,12.77,6.06,21.53,18,24,32.67,2.62,15.37-2.14,30.82-12.74,41.33-8.74,8.66-20,13.06-33.49,13.06-9.33,0-19.7-2.1-30.88-6.26-.5,4.13-2.38,9.86-4.3,14.92-4.26,11.23-10.47,18.42-18.46,21.37A25.45,25.45,0,0,1,261.68,869.35Z"/><path class="cls-15" d="M228.4,849.57c-6.45-8-9.94-17.82-11.08-29a54.39,54.39,0,0,1,8.08-34.92c9.08-14.21,23.94-23.76,39-30.52,0,0-4.11,33.84,25,33.84,0,0,26.56-6.32,6.32-39.84.25.41,15.42-1.92,16.61-2,11.15-.42,22.8.8,33,5.63,26.47,12.56,31.18,49.94,10.67,70.28-17.9,17.74-43.76,13.6-65,5.1,1.37.55-3.77,16.28-4.21,17.44-3.17,8.37-8.29,16.78-17.1,20s-18.79.32-27-4.25A48.19,48.19,0,0,1,228.4,849.57Z"/><path class="cls-27" d="M343.86,784.47c-66.86-.63-104.45,35.4-124.29,65.76a200.07,200.07,0,0,0-25.2,57.47c.27-48,3.3-213,32-248.67a1,1,0,1,0-1.61-1.3c-31.19,38.7-32.56,220.27-32.51,256.95C153.7,809.32,40,755.38,38.82,754.84a1,1,0,1,0-.87,1.87c1.17.55,118.28,56.12,154.4,164.46a1,1,0,0,0,1,.71l.17,0a1,1,0,0,0,.86-1c0-.16,0-1.47,0-3.72.33-1.86,6.25-34.06,27-65.75,19.38-29.67,56-64.84,120.77-64.84h1.77a1,1,0,0,0,1-1A1,1,0,0,0,343.86,784.47Z"/><ellipse class="cls-10" cx="77.18" cy="810.39" rx="15.5" ry="8"/><path class="cls-10" d="M121.35,785.91c-4.35.53-8.69-5.84-9.7-14.23s1.68-15.6,6-16.13,8.69,5.85,9.7,14.23S125.69,785.39,121.35,785.91Z"/><ellipse class="cls-10" cx="177.18" cy="757.39" rx="15.52" ry="8.08" transform="translate(-565.73 526.92) rotate(-59.6)"/><ellipse class="cls-10" cx="245.68" cy="718.89" rx="10.48" ry="5.41" transform="translate(-500.64 576.9) rotate(-60.36)"/><ellipse class="cls-10" cx="263.18" cy="842.89" rx="10.77" ry="5.52" transform="translate(-419.54 282.87) rotate(-33.3)"/><ellipse class="cls-10" cx="329.18" cy="802.89" rx="10.77" ry="5.52" transform="translate(-386.74 312.54) rotate(-33.3)"/><path class="cls-7" d="M233.82,1028.39l-77,.1a2.91,2.91,0,0,1-2.85-2.24L128.18,919a2.89,2.89,0,0,1,2.83-3.56l127.8-.17a2.9,2.9,0,0,1,2.84,3.54l-25,107.39A2.89,2.89,0,0,1,233.82,1028.39Z"/><path class="cls-28" d="M166.62,1024.49a2.92,2.92,0,0,1-2.84-2.24L138.11,915.39h-7.32A2.89,2.89,0,0,0,128,919l25.75,107.21a2.89,2.89,0,0,0,2.83,2.22h77.27s2.53-.53,2.84-1.84l.58-2.16Z"/><path class="cls-18" d="M397.24,387.61s-39.82,27.31-30.36,104.44c0,0,5.34,42.93,68.64,74.71l11.89-18-51.18-50.7s9.94-66,7.52-75.92S397.24,387.61,397.24,387.61Z"/><path class="cls-3" d="M438.64,298.17a12.2,12.2,0,0,1,19.21-7.9c22.17,16.19,59,39.14,52.62,7.54-9.06-44.73-39.07-63.41-72.47-43.6,0,0-31.05-5.89-51.81,83.66C368.64,413.59,397,426.05,397,426.05s41.05-2,53.48-24.07c10.2-18.1-10-28.67-13.59-74.91A103.81,103.81,0,0,1,438,302Z"/></g></g></g></g></svg>