<svg xmlns="http://www.w3.org/2000/svg" xmlns:xlink="http://www.w3.org/1999/xlink" viewBox="0 0 1734.61 952.85"><defs><style>.cls-1{isolation:isolate;}.cls-2,.cls-30{fill:#d6f0fd;}.cls-2,.cls-29{fill-rule:evenodd;}.cls-3{fill:#2a2b7d;}.cls-4{fill:#cc4949;}.cls-5{fill:#20246b;}.cls-6{fill:#ffc0c0;}.cls-7{fill:#8193e9;}.cls-8{fill:#fa9999;}.cls-29,.cls-9{fill:#7ab6f5;}.cls-10{fill:#64b0f4;}.cls-11{fill:#6480e2;}.cls-12{fill:#f75e5e;}.cls-13{fill:#31368c;}.cls-14{fill:#bd8b84;}.cls-15{fill:#6a85e5;}.cls-16{fill:#1b1464;}.cls-17{fill:#42210b;}.cls-18{fill:#936e4c;}.cls-19{fill:#a67c52;}.cls-20{fill:#333;}.cls-21,.cls-28{fill:#f86666;}.cls-22{fill:#ffdf66;}.cls-23{fill:#666;}.cls-24{fill:url(#linear-gradient);}.cls-25{fill:#65a9e5;}.cls-26{fill:#bad1d8;}.cls-27{fill:#fff;}.cls-28{opacity:0.25;mix-blend-mode:multiply;}.cls-31{fill:#6f86dd;}.cls-32{fill:#79aaec;}</style><linearGradient id="linear-gradient" x1="432.19" y1="332.47" x2="352.8" y2="542.61" gradientTransform="translate(-112.65 143.33) rotate(-17.99)" gradientUnits="userSpaceOnUse"><stop offset="0" stop-color="#0b003f"/><stop offset="1" stop-color="#4425b1"/></linearGradient></defs><title>Asset 2</title><g class="cls-1"><g id="Layer_2" data-name="Layer 2"><g id="LANDING_PAGE" data-name="LANDING PAGE"><g id="_3" data-name="3"><path class="cls-2" d="M724.09,11.32C-4.24,32.38,93.29,1239.87,815.78,864c179.38-93.31,356.34-9.21,437.18,46.16,411.9,282.19,510.24-928.92-528.87-898.86Z"/><path class="cls-3" d="M1001.32,296.13s7.55,42.85-13.94,54.29C958.69,365.68,975,378.7,975,378.7s97.42,9.81,121.12,4.71a36.36,36.36,0,0,0,9.21-3.15,11.44,11.44,0,0,0,.67-19.84c-11.75-7.34-37.54-27.75-37.78-65.49C1067.9,246,1001.32,296.13,1001.32,296.13Z"/><path class="cls-3" d="M1045.12,794.65h0a7.52,7.52,0,0,1-7.49-7.5V590.84a7.51,7.51,0,0,1,7.49-7.49h0a7.51,7.51,0,0,1,7.5,7.49V787.15A7.52,7.52,0,0,1,1045.12,794.65Z"/><path class="cls-3" d="M1066.47,798.09h-42.69a7.07,7.07,0,0,1-7-7.05h0a7.07,7.07,0,0,1,7-7h42.69a7.07,7.07,0,0,1,7,7h0A7.07,7.07,0,0,1,1066.47,798.09Z"/><ellipse class="cls-4" cx="1045.12" cy="567.47" rx="62.53" ry="27.89"/><path class="cls-4" d="M1036.46,750.65s-17.4,15-6.8,27.19c0,0,4.2,2.6,6.8.8,0,0,6.8,25.82,25,33.46a3.73,3.73,0,0,0,5.12-3c.93-6.94.13-22.62-15.9-49.48Z"/><path class="cls-4" d="M1129.55,723.71s-8.54,25.19,9.29,26.19c0,0,13.27,20,31.47,21.84s-21.52-50.06-25.72-50.06S1129.55,723.71,1129.55,723.71Z"/><path class="cls-5" d="M1069.48,582.9c-1.18.45,30,39.18-16.79,130l18.39,12,58.39-90.78S1157.06,549.3,1069.48,582.9Z"/><path class="cls-6" d="M1123.21,676.49l6.25,48.74a11.35,11.35,0,0,0,2.23,5.45c6,7.89,35.94,33.4,33.77,23.69-3.56-15.85-19.83-31.86-19.83-31.86l3.22-48.47Z"/><path class="cls-6" d="M1053.67,710.07l-17.21,40.58s-.37,32.63,21.2,43.08a1.72,1.72,0,0,0,2.47-1.67c-.42-5-2.17-16.33-9.48-32.41l21.2-36.66Z"/><path class="cls-3" d="M995.87,526.91s-1.36,78.08,118.77,67.18l8.57,85.49,25.36-.31s15.25-99.17-6.74-122-72.38-49.18-72.38-49.18l-49.19-7.2Z"/><path class="cls-7" d="M983.87,456.53s-1.2,77.58,12.4,76.38c7.14-.63,13.57-4.31,19.21-8.52,2.11-1.57,4.11-3.23,6.07-5a24.88,24.88,0,0,1,6.35-4.42,23.14,23.14,0,0,1,11.29-1.46,43.77,43.77,0,0,1,14.18,3.65,58.82,58.82,0,0,1,6.65,3.43c2.37,1.44,4.66,2.94,7.41,3.52a23.38,23.38,0,0,0,8.09,0,20.23,20.23,0,0,0,9.35-3.4c4.12-3.09,6.1-8.32,6.46-13.31a39,39,0,0,0-.29-7.72c-4-31.19-11.59-43.19-11.59-43.19Z"/><path class="cls-8" d="M1022.26,309.53l2,35.75s5.76,10.51,14.88,10.51,18.31-16.29,18.31-16.29V304.8Z"/><path class="cls-7" d="M1023.91,338.18s-43.41,15.53-52.61,31.13-39.72,83.52-33.71,90.48c12.13,14,54.1,13.4,54.1,13.4s130,12.44,142.19-12.78c5.19-10.79-28.64-92-35-96.7-5.69-4.22-41.18-26-41.18-26S1040.31,351.78,1023.91,338.18Z"/><rect class="cls-9" x="970.37" y="381.45" width="134.06" height="92.98" rx="15.7"/><circle class="cls-7" cx="1037.41" cy="427.94" r="13.93" transform="translate(382.57 1339.27) rotate(-76.72)"/><rect class="cls-3" x="1370.38" y="578.17" width="15" height="211.3" rx="7.5"/><path class="cls-3" d="M1399.22,792.92h-42.68a7.07,7.07,0,0,1-7-7h0a7.07,7.07,0,0,1,7-7h42.68a7.07,7.07,0,0,1,7,7h0A7.07,7.07,0,0,1,1399.22,792.92Z"/><ellipse class="cls-4" cx="1367.45" cy="564.07" rx="62.53" ry="21.06"/><polygon class="cls-6" points="1308.54 722.15 1323.93 758.74 1340.73 751.75 1328.33 710.36 1308.54 722.15"/><path class="cls-9" d="M1330.43,503.21s-79.84,67.69-72.64,86.88S1308,725.55,1308,725.55l27.19-12L1304,589.19l83.17-88.78Z"/><path class="cls-6" d="M1334.13,718.55c.4.8,10.8,32.2,10.8,32.2l20-6.6-7-35.59Z"/><path class="cls-7" d="M1338.58,744.57c1.23-.45,14.54,12.51,8.39,31.4l-53.54,31.49s-10.25-6.4-1.45-17.79,28.59-38.92,28.59-38.92Z"/><path class="cls-10" d="M1412.51,519s8.19,63.78-71.38,69.78l21.59,126.76s-34.79,10.4-34.39,8.4-53.8-123.36-40.14-144.15,79.73-71,79.73-71Z"/><path class="cls-11" d="M1363.59,738.1c.09.48,16.08,13,9.93,31.94L1320,801.53s-10.25-6.4-1.45-17.79S1343,744.93,1343,744.93Z"/><path class="cls-8" d="M1359.32,309.66c0,.8-1,27,0,27.6s11.16,9.19,22.58,5a81.33,81.33,0,0,0,20.2-11.19l1-44-23.59,2.2Z"/><path class="cls-12" d="M1402.1,331.06c1.26-.81,47.9,22.39,52.1,34.39,3.93,11.25,11.73,52.3,12.68,57.35a.6.6,0,0,1-.4.69L1435.89,434a2.26,2.26,0,0,1-2.41-.6l-5.87-6.31a.58.58,0,0,0-1,.24c-2,7.26-13.85,52.88-14.12,91.68,0,0-16.4,10-40-.3,0,0-38.74,4.65-50.54-12l5.1-112.47-43.49-1.8s25.79-43.19,42.59-47.69,32.75-9.29,32.75-9.29S1376.09,347.65,1402.1,331.06Z"/><path class="cls-6" d="M1463.89,416.83s9.2,39,3.6,51.49-101.77,3.7-101.77,3.7l1.8-8.81L1439.9,448l-6.4-22Z"/><path class="cls-13" d="M1418.83,249.4c.9.75,12.89,32.24-12.3,55.78l-3.9,2.83-26.39-70.61Z"/><path class="cls-3" d="M1349.15,233.05s-16.1,18.6-2.9,34.49,25.64-35.39,25.64-35.39Z"/><path class="cls-6" d="M1350.08,235.39s-12.53,68.44,15.36,82.54c0,0,18.6,1.8,33.14-19.34l.75-12s10.65.3,8.7-18.9c0,0-4.8-2.7-7.65.6s-23.77-12.89-34-22C1356.34,237.34,1350.08,235.39,1350.08,235.39Z"/><path class="cls-3" d="M1349.19,228.69c-3.4,5-.3,38.69,58.79,35.09l-4.5-3s10.34,3.94,15.14,3.25l-1.95-4.6s9.51-2.09,12.51-8.09-3.27-13.44-6.72-13.44,6.61-3.28,9.57-1.35C1435.41,238.76,1386.05,174.25,1349.19,228.69Z"/><rect class="cls-14" x="420.87" y="473.7" width="1057.17" height="20.05" rx="7.41"/><path class="cls-3" d="M637,792h0a7.53,7.53,0,0,1-7.5-7.5V588.17a7.53,7.53,0,0,1,7.5-7.5h0a7.52,7.52,0,0,1,7.5,7.5V784.48A7.52,7.52,0,0,1,637,792Z"/><path class="cls-3" d="M658.39,795.42H615.7a7.07,7.07,0,0,1-7.05-7h0a7.07,7.07,0,0,1,7.05-7h42.69a7.07,7.07,0,0,1,7,7h0A7.07,7.07,0,0,1,658.39,795.42Z"/><ellipse class="cls-4" cx="641.53" cy="566.1" rx="62.53" ry="21.35"/><path class="cls-3" d="M831.22,479.6h0a1.34,1.34,0,0,1-1.69-.84l-15.89-46.64a1.35,1.35,0,0,1,.83-1.69h0a1.34,1.34,0,0,1,1.69.83l15.89,46.65A1.33,1.33,0,0,1,831.22,479.6Z"/><path class="cls-6" d="M680.1,267.79s4.8,17.84,1.5,20.24,5.7,18.6,5.7,18.6l-7.2,5.85s.75,14.24-6.9,15.89-65.83-33.29-52-51S680.1,267.79,680.1,267.79Z"/><path class="cls-8" d="M632.48,326.26s-3.62,27.55-10.31,30.49c0,0,8,11.45,18.65,11.81s19.29-6.49,19.29-6.49L662,329.34S646.14,316.93,632.48,326.26Z"/><path class="cls-3" d="M629.53,331.21s-35.72-47.42-9.82-69.36c0,0-7-35.55,61.21-24.71,0,0,17,1.58,23.77-5.84,0,0-1.9,8.7-7.25,11.2,0,0,6.67-1.12,8.55-4.22s5.33,44.37-48.66,36l-.58,19.7-4.32-.35s4.85-28.56-13.45-20.41c0,0-9.51,12.17,9.29,26.48,0,0,12.65,23.81,24.16,22.22s12.29,26.54,4.11,30.28c0,0-19.47-21.86-31.82-26.47,0,0-5.73-2.29-8.75,3.25l-5.85,2.36Z"/><path class="cls-7" d="M749.06,481.06H659.85c-8.62,0-15.67-6.09-15.67-13.54V407.24c0-7.44,7.05-13.53,15.67-13.53h121a5.06,5.06,0,0,1,4.84,6.57l-20.93,67.24C764.72,475,757.68,481.06,749.06,481.06Z"/><path class="cls-9" d="M659.85,476.55c-6.05,0-11.16-4.13-11.16-9V407.24c0-4.89,5.11-9,11.16-9h121a.53.53,0,0,1,.45.22.53.53,0,0,1,.09.5l-21.14,67.9v.68c0,4.9-5.1,9-11.15,9Z"/><path class="cls-6" d="M756.31,733.18l7.1,23.74s18.65-4.31,19.22-5.13-3.18-25.89-3.18-25.89Z"/><path class="cls-4" d="M841.73,783.18l-72.9,3.55a13.89,13.89,0,0,1-3.55-5.47c-3.89-10-2.78-26.49-2.58-26.7,2-1.93,8-8.77,19.36-4.15a3.22,3.22,0,0,1,.62.42,38.2,38.2,0,0,0,6.58,3.5c.42.18.84.34,1.25.5a48.44,48.44,0,0,0,7.77,2.2l1.51.26h0c1.83.29,3,.35,3,.35q3,.23,5.72.56l1.07.14c26.09,3.45,31.55,13.84,32.4,20A12.63,12.63,0,0,1,841.73,783.18Z"/><path class="cls-3" d="M841.73,783.18l-72.9,3.55a13.89,13.89,0,0,1-3.55-5.47l76.65-2.89A12.63,12.63,0,0,1,841.73,783.18Z"/><path class="cls-3" d="M790.38,755c-.06.06-5.16,5.37-4.74,9.2a.65.65,0,0,1-.58.72h0a.66.66,0,0,1-.68-.58c-.44-4,3.94-9,4.92-10,.42.18.84.34,1.25.5A.46.46,0,0,1,790.38,755Z"/><path class="cls-3" d="M799.7,757.41c-.05.06-5.16,5.37-4.74,9.2a.65.65,0,0,1-.58.72h0a.66.66,0,0,1-.68-.58c-.4-3.71,3.27-8.21,4.62-9.72l1.51.26A.94.94,0,0,1,799.7,757.41Z"/><path class="cls-3" d="M809.42,759.09c0,.06-5.15,5.36-4.74,9.19a.65.65,0,0,1-.57.72h-.05a.65.65,0,0,1-.67-.59c-.49-4.35,4.68-9.8,5.07-10.22l1.07.14A.64.64,0,0,1,809.42,759.09Z"/><path class="cls-6" d="M680.49,708.93l-12.83,21.2s15.71,10.93,16.7,10.8,17.06-19.74,17.06-19.74Z"/><path class="cls-4" d="M700.78,805.81,649.2,754.16a13.87,13.87,0,0,1,1.68-6.3c4.8-9.6,17.76-19.85,18-19.84,2.75.16,11.86,0,16.08,11.56a3.76,3.76,0,0,1,.1.74,38.61,38.61,0,0,0,1.82,7.23c.15.43.32.85.48,1.27a47.2,47.2,0,0,0,3.58,7.23c.3.47.56.9.82,1.29h0c1,1.54,1.72,2.41,1.72,2.41q1.86,2.38,3.43,4.62l.61.88c15,21.66,10.92,32.68,6.91,37.47A12.76,12.76,0,0,1,700.78,805.81Z"/><path class="cls-3" d="M700.78,805.81,649.2,754.16a14,14,0,0,1,1.68-6.3l53.6,54.87A12.76,12.76,0,0,1,700.78,805.81Z"/><path class="cls-3" d="M687.16,748.86c-.08,0-7.44-.22-10,2.66a.65.65,0,0,1-.92.05l0,0a.65.65,0,0,1,0-.89c2.69-3,9.31-3.12,10.74-3.1.15.43.32.85.48,1.27A.69.69,0,0,1,687.16,748.86Z"/><path class="cls-3" d="M691.66,757.36c-.07,0-7.44-.22-10,2.66a.64.64,0,0,1-.92.05l0,0a.65.65,0,0,1,0-.89c2.47-2.79,8.27-3.09,10.3-3.1.3.47.56.9.82,1.29Z"/><path class="cls-3" d="M696.94,765.69c-.07,0-7.43-.22-10,2.66a.64.64,0,0,1-.92,0s0,0,0,0a.65.65,0,0,1,0-.89c2.91-3.28,10.42-3.11,11-3.1l.61.88A.63.63,0,0,1,696.94,765.69Z"/><path class="cls-7" d="M634.25,560.91c6,4,69.18,93.18,67.18,103.57s-29.76,58.35-29.76,58.35L691,734.07l58-65.19s-28-94.77-51.19-100S634.25,560.91,634.25,560.91Z"/><path class="cls-15" d="M601.52,521.32s2,60.39,64.38,64c0,0,29.59,3.19,41.39,27.19s49.18,124.76,49.18,124.76l25-3.79s-14-109.78-42.39-143.77-73.58-74-73.58-74Z"/><path class="cls-6" d="M703.16,421.2c2.1-.38,21,30.29,21,30.29L797,470.08s18.3-3.3,20.1-3.6,20.09,7.2,20.09,9-9.89,8.4-18.59,8.7-11.32-4.35-11.32-4.35-95.75-.15-100.95-6.55S678,429.89,678,429.89Z"/><path class="cls-7" d="M566.53,401.74l-48.49,71a2.2,2.2,0,0,1-3.06.57h0a2.19,2.19,0,0,1-.57-3.05l48.49-71a2.2,2.2,0,0,1,3.06-.57h0A2.19,2.19,0,0,1,566.53,401.74Z"/><path class="cls-7" d="M515.92,473.7h-86a2.21,2.21,0,0,1-2.2-2.2h0a2.21,2.21,0,0,1,2.2-2.2h86a2.21,2.21,0,0,1,2.2,2.2h0A2.21,2.21,0,0,1,515.92,473.7Z"/><rect class="cls-3" x="361.07" y="585.33" width="15" height="211.3" rx="7.5"/><path class="cls-3" d="M389.92,800.07H347.23a7.07,7.07,0,0,1-7.05-7.05h0a7.07,7.07,0,0,1,7.05-7h42.69a7.07,7.07,0,0,1,7,7h0A7.07,7.07,0,0,1,389.92,800.07Z"/><ellipse class="cls-4" cx="368.57" cy="569.45" rx="62.53" ry="27.89"/><path class="cls-16" d="M544,782.27c-3.65,7-43.5,7.12-52.26,10.76s-23.41,4-23.41,4a18.92,18.92,0,0,1-2.21-4.64c-3.86-11.15-3.9-31.14-3.9-31.14l20.19-6.48,8.51,10.59c7.47-2.7,44.81,6.78,52.05,13.92C544,780.34,544.46,781.36,544,782.27Z"/><path class="cls-17" d="M544,782.27c-3.65,7-43.5,7.12-52.26,10.76s-23.41,4-23.41,4a18.92,18.92,0,0,1-2.21-4.64l76.85-13.11C544,780.34,544.46,781.36,544,782.27Z"/><path class="cls-16" d="M418.2,777.39c-7.9-.44-24.45-36.68-31.37-43.16s-13.31-19.68-13.31-19.68a19.57,19.57,0,0,1,3.31-3.93c8.57-8.11,26.75-16.4,26.75-16.4l14.25,15.71-6.14,12.12c5.55,5.69,12.34,43.61,8.83,53.16C420,776.65,419.24,777.45,418.2,777.39Z"/><path class="cls-17" d="M418.2,777.39c-7.9-.44-24.45-36.68-31.37-43.16s-13.31-19.68-13.31-19.68a19.57,19.57,0,0,1,3.31-3.93l43.69,64.59C420,776.65,419.24,777.45,418.2,777.39Z"/><path class="cls-18" d="M331.79,308.31s-12,37.6-19.5,40.6c0,0,4.43,17.15,14.86,19.38s18.23-6,18.23-6l14.72-44.91S348.15,297.58,331.79,308.31Z"/><path class="cls-19" d="M387.18,277s-.15,18.48-4,19.91S381,318.23,381,318.23L375.24,320s-6.85,20.34-14.66,19.88-50.16-29.61-32.76-69.44C336.8,249.89,387.18,277,387.18,277Z"/><path class="cls-20" d="M324.21,329.09s-4.3-16.35-7.73-35c-14.64-79.5,61-64.54,79-41.51,10.28,13.16,16,40.78-35,21.25L343.13,318l-2.1-4.3s8-16.39-.77-20a7.93,7.93,0,0,0-6.94.55c-3.59,2.11-8.08,7.68-1.38,21.89Z"/><path class="cls-21" d="M373.52,578.61c5.6,7.59,88,185.06,88,185.06l27.19-4-75.28-193.9Z"/><path class="cls-12" d="M300.79,508.62c-1.7,14.54-1.79,81.11,138.11,87.78L391.52,698.61l28,12.36s71.72-110.31,66.2-123.57c-8.88-21.31-115.77-70.48-115.77-70.48S340,503.8,304,505.65A3.39,3.39,0,0,0,300.79,508.62Z"/><path class="cls-22" d="M316.31,346.88S277,360.94,267.24,377s-17.38,79.47-17.38,79.47l36,1.57,7-24.85,6.3,98s41.31-14.77,84.1-8l10.33-114.71,6.85-17.27S382,365.34,349.11,352.32C349.11,352.32,347.1,365.07,316.31,346.88Z"/><path class="cls-19" d="M254.55,443.64s-7.6,57,23.3,47.44S372,448.5,372,448.5l4.5-23.4L285,463l.75-17.4Z"/><polygon class="cls-22" points="255.5 419 249.86 456.01 285.82 458.63 292.84 432.74 255.5 419"/><path class="cls-23" d="M370.94,433.33h0a1.21,1.21,0,0,1-1.7-.1l-29.56-33.51a1.2,1.2,0,0,1,.11-1.7h0a1.2,1.2,0,0,1,1.69.11L371,431.64A1.2,1.2,0,0,1,370.94,433.33Z"/><path class="cls-12" d="M1426.9,426.33l7.31,7.86a.63.63,0,0,0,.66.16l31.61-10.86a.6.6,0,0,0,.4-.69l-2.74-14.15Z"/><rect class="cls-7" x="1239.42" y="382.19" width="136.82" height="91.51" rx="8.85"/><path class="cls-6" d="M1008.14,288.51s6.59,35.79,33.58,42.84c0,0,13.19-.9,28.34-36.74,0,0,0-56.54-29.69-49S1008.14,288.51,1008.14,288.51Z"/><path class="cls-3" d="M1006,303.71s-48-56.82.71-69.9C1006.71,233.81,1055.18,266.92,1006,303.71Z"/><path class="cls-13" d="M1004.91,234.82s25.59-42.88,70.51-5.22c29.16,24.45,6.67,53.73-2.93,63.76-2,2.09-5.37,9.25-5.85,6.4C1061.89,271.51,1001.52,259.47,1004.91,234.82Z"/><path class="cls-3" d="M619.17,350.88c1.77-.69,37.68-11.71,60.48,15.88s29,60.19,29,60.19l-22.33,16.28-13.86-11.48s-25.39,33.59,7.2,97.37c0,0-42.69,2.7-55-6.5a14.86,14.86,0,0,0-15.29,1.6c-7.5,5.7-15.1,9.3-17.6,7.2C591.77,531.42,555.77,375.54,619.17,350.88Z"/><circle class="cls-9" cx="1308.53" cy="427.94" r="13.93"/><rect class="cls-24" x="359.54" y="374.94" width="73.56" height="104.97" rx="15.7" transform="translate(151.42 -101.52) rotate(17.99)"/><path class="cls-19" d="M441.42,415.28s-10.6-9.4-19-5.2-11.39,17-7,20,12.27,11.57,22.39,8.2C439,437.87,448.68,419.87,441.42,415.28Z"/><path class="cls-25" d="M61.55,645.05c-26.56,0-46.44-16.92-59.08-50.28a1.92,1.92,0,0,1,.59-2.16,1.9,1.9,0,0,1,2.23-.11c.08,0,7.75,5,15.11,5a11,11,0,0,0,9.32-4.4,9.09,9.09,0,0,0-.55-8c-2.27-3.77-8.86-8.42-27.34-9.17a1.9,1.9,0,0,1-1.4-3.1c1.13-1.38,27.94-33.61,55.91-33.61,11.6,0,21.66,5.56,29.93,16.54,1.9-3.8,4.24-12.11-4-22.25a1.91,1.91,0,0,1,1.48-3.1,1.85,1.85,0,0,1,.88.22c1.85,1,45.29,24.2,48.86,55.72,1.57,13.83-4.83,27-19,39.28C113.39,626.46,89.13,645.05,61.55,645.05Z"/><path class="cls-9" d="M113.24,624.17s-75.42,58.57-109-30.08c0,0,18.25,12,27.12,0,0,0,9.12-18.51-29.47-20.08,0,0,51.63-62.84,84.48-14.86,0,0,9.65-11.73-2.6-26.86C83.78,532.29,168.26,576.8,113.24,624.17Z"/><path class="cls-25" d="M182,624.48c-11.94,0-22.66-2.47-31.85-7.33-15.24-8-27.37-22.94-37.08-45.5a133.34,133.34,0,0,1-5.92-16c-4.14-14.59-2.68-25.23,4.48-32.52a31.06,31.06,0,0,1,5.12-3.32c1.33-.79,3.31-2,3.88-2.4a1.91,1.91,0,0,1,1.55-.79l.33,0a1.9,1.9,0,0,1,1.54,2.2c0,.09-1.49,8.89,2.58,13.73,1.81,2.15,4.43,3.2,8,3.2a25.47,25.47,0,0,0,6.1-.84c1.2-.84,6.74-5.09,6.69-11.43,0-6.55-6.08-13.74-17.46-20.78a1.89,1.89,0,0,1-.58-2.67c.89-1.35,22.38-33,59.94-33,17.06,0,34.71,6.68,52.48,19.83a1.9,1.9,0,0,1-1,3.43c-.13,0-12.9.8-17.4,8.25-2.32,3.84-2.07,9,.74,15.24.84,1,5.68,6.39,11.88,6.39,5.26,0,10.31-3.86,15-11.46A1.9,1.9,0,0,1,254.5,510a51.58,51.58,0,0,0,2.18,5c.4.83.7,1.48.78,1.7a129.18,129.18,0,0,1,5.46,20c5.74,30.55-2.6,55.54-23.48,70.37-8.18,5.81-17.95,10.22-29.85,13.51A104.49,104.49,0,0,1,182,624.48Z"/><path class="cls-9" d="M109,555.16c-3.09-10.91-3.87-22.66,4-30.68,1.15-1.17,9.08-5.29,9.19-5.94,0,0-4.3,24.25,19.36,18.19,0,0,23.27-14.67-10.56-35.59,0,0,41.85-63,109.71-12.72,0,0-29.53,1.57-18.19,26.4,0,0,15.06,19.36,30.12-5.08-.4.65,2.77,6.81,3.06,7.6A128.47,128.47,0,0,1,261.05,537c4.89,26-.15,52.45-22.71,68.47-8.77,6.22-18.89,10.36-29.26,13.22-19.14,5.27-40.5,6.06-58.05-3.22-17.26-9.12-28.51-26.64-36.22-44.57A131,131,0,0,1,109,555.16Z"/><path class="cls-25" d="M215.77,661.66c-5.09,0-10.82-1.69-16.58-4.88a41.81,41.81,0,0,1-12.34-10.23c-5.32-6.58-8.53-15-9.54-24.9a46.46,46.46,0,0,1,6.94-30c6.69-10.47,17.5-18.93,33-25.87a1.88,1.88,0,0,1,.77-.17,1.9,1.9,0,0,1,1.89,2.13c0,.13-1.46,13,5.14,20.43,3.1,3.49,7.58,5.29,13.32,5.34,1.09-.32,6.62-2.2,8.85-7.58s.61-13.07-5-22.39a1.9,1.9,0,0,1,.64-2.61,2,2,0,0,1,1-.27,1.58,1.58,0,0,1,.38,0c1.28,0,6.08-.71,9-1.11s3.87-.53,4.27-.55c1.11,0,2.23-.06,3.35-.06,9.57,0,17.89,1.65,24.73,4.89,10.53,5,17.75,14.82,19.82,26.94a38.7,38.7,0,0,1-10.5,34.08c-7.21,7.15-16.5,10.77-27.62,10.77-7.69,0-16.24-1.73-25.46-5.16a59.31,59.31,0,0,1-3.55,12.3c-3.51,9.26-8.63,15.19-15.21,17.62A20.92,20.92,0,0,1,215.77,661.66Z"/><path class="cls-9" d="M188.33,645.35c-5.31-6.56-8.19-14.69-9.13-23.9a44.81,44.81,0,0,1,6.66-28.79c7.48-11.72,19.74-19.6,32.2-25.17,0,0-3.39,27.9,20.6,27.9,0,0,21.9-5.21,5.21-32.85.21.34,12.72-1.58,13.7-1.62,9.19-.34,18.8.67,27.19,4.65,21.83,10.36,25.72,41.18,8.8,57.95-14.76,14.63-36.08,11.21-53.6,4.21,1.14.45-3.1,13.42-3.46,14.38-2.62,6.9-6.85,13.83-14.1,16.51s-15.5.26-22.28-3.5A39.78,39.78,0,0,1,188.33,645.35Z"/><path class="cls-26" d="M283.54,591.67c-55.13-.51-86.13,29.19-102.49,54.23a165.14,165.14,0,0,0-20.78,47.39c.22-39.6,2.72-175.67,26.4-205a.85.85,0,0,0-.13-1.2.86.86,0,0,0-1.2.13C159.63,519.08,158.5,668.8,158.54,699,126.74,612.17,33,567.69,32,567.24a.85.85,0,0,0-.72,1.55c1,.45,97.53,46.27,127.31,135.6a.86.86,0,0,0,.81.59h.14a.86.86,0,0,0,.72-.85c0-.13,0-1.21,0-3.07a160.41,160.41,0,0,1,22.23-54.21c16-24.46,46.19-53.47,99.58-53.47h1.46c.45.08.85-.38.86-.85A.85.85,0,0,0,283.54,591.67Z"/><ellipse class="cls-27" cx="63.79" cy="613.06" rx="12.61" ry="6.53"/><path class="cls-27" d="M100.06,592.87c-3.58.43-7.17-4.82-8-11.74s1.39-12.87,5-13.3,7.17,4.82,8,11.74S103.64,592.43,100.06,592.87Z"/><ellipse class="cls-27" cx="146.01" cy="569.1" rx="12.61" ry="6.53" transform="translate(-419.85 411) rotate(-60)"/><path class="cls-27" d="M198.15,545.43c-2.19-1.26-2-5.7.45-9.92s6.19-6.62,8.37-5.35,2,5.7-.45,9.92S200.34,546.7,198.15,545.43Z"/><path class="cls-27" d="M209.39,644.72c-1.43-2.08.66-6,4.67-8.78s8.42-3.32,9.85-1.25-.65,6-4.66,8.78S210.83,646.79,209.39,644.72Z"/><path class="cls-27" d="M264.4,612.16c-1.43-2.08.66-6,4.66-8.78s8.43-3.32,9.86-1.25-.65,6-4.66,8.78S265.84,614.23,264.4,612.16Z"/><path class="cls-21" d="M192.88,793.15l-63.67.08a2.41,2.41,0,0,1-2.35-1.83l-21.3-88.71a2.39,2.39,0,0,1,2.34-2.94l105.63-.14a2.38,2.38,0,0,1,2.35,2.92L195.22,791.3A2.4,2.4,0,0,1,192.88,793.15Z"/><path class="cls-28" d="M137.35,789.27a2.39,2.39,0,0,1-2.35-1.83l-21.06-87.71h-6.13a2.39,2.39,0,0,0-2.33,2.94l21.3,88.71a2.41,2.41,0,0,0,2.35,1.83l63.67-.08a2.4,2.4,0,0,0,2.34-1.85l.48-2.09Z"/><path class="cls-25" d="M1490.18,657.93c-26.57,0-46.45-16.92-59.09-50.28a1.91,1.91,0,0,1,1.78-2.58,1.86,1.86,0,0,1,1,.31c.08,0,7.76,5,15.11,5a11,11,0,0,0,9.32-4.4,9.09,9.09,0,0,0-.55-8c-2.27-3.77-8.85-8.42-27.34-9.17a1.9,1.9,0,0,1-1.4-3.1c1.13-1.38,27.94-33.61,55.91-33.61,11.6,0,21.66,5.56,29.93,16.54,1.9-3.8,4.24-12.11-4-22.25a1.91,1.91,0,0,1,1.48-3.1,1.85,1.85,0,0,1,.88.22c1.85,1,45.29,24.2,48.86,55.72,1.57,13.83-4.83,27-19,39.28C1542,639.34,1517.76,657.93,1490.18,657.93Z"/><path class="cls-9" d="M1541.86,637s-75.42,58.58-109-30.07c0,0,18.25,12,27.12,0,0,0,9.12-18.51-29.47-20.08,0,0,51.63-62.84,84.48-14.86,0,0,9.65-11.73-2.6-26.86C1512.4,545.17,1596.88,589.68,1541.86,637Z"/><path class="cls-25" d="M1610.61,637.36c-11.94,0-22.65-2.47-31.85-7.33-15.24-8-27.37-22.94-37.08-45.5a133.34,133.34,0,0,1-5.92-16c-4.14-14.6-2.67-25.24,4.48-32.52a31.06,31.06,0,0,1,5.12-3.32c1.33-.79,3.31-2,3.88-2.4a1.92,1.92,0,0,1,1.55-.79l.33,0a1.9,1.9,0,0,1,1.55,2.2c0,.09-1.5,8.89,2.57,13.73,1.81,2.15,4.43,3.2,8,3.2a25.47,25.47,0,0,0,6.1-.84c1.2-.84,6.74-5.1,6.69-11.43,0-6.55-6.08-13.74-17.46-20.78A1.89,1.89,0,0,1,1558,513c.89-1.35,22.38-33,59.94-33,17.06,0,34.71,6.67,52.48,19.83a1.9,1.9,0,0,1-1,3.43c-.12,0-12.89.79-17.4,8.25-2.32,3.84-2.07,9,.74,15.24.84,1,5.68,6.39,11.88,6.39,5.26,0,10.31-3.86,15-11.46a1.9,1.9,0,0,1,3.51,1.21,50.44,50.44,0,0,0,2.18,5c.4.84.7,1.49.78,1.71a129.18,129.18,0,0,1,5.46,20c5.74,30.55-2.6,55.54-23.48,70.37-8.18,5.81-18,10.22-29.85,13.5A104.11,104.11,0,0,1,1610.61,637.36Z"/><path class="cls-9" d="M1537.6,568c-3.1-10.91-3.88-22.65,4-30.67,1.15-1.17,9.08-5.29,9.19-5.94,0,0-4.3,24.25,19.36,18.19,0,0,23.27-14.67-10.56-35.6,0,0,41.85-63,109.71-12.71,0,0-29.53,1.57-18.19,26.4,0,0,15.06,19.36,30.12-5.08-.4.65,2.78,6.81,3.06,7.6a128.47,128.47,0,0,1,5.38,19.66c4.89,26-.15,52.45-22.71,68.47-8.77,6.22-18.89,10.36-29.26,13.22-19.14,5.27-40.5,6.06-58-3.22-17.26-9.12-28.51-26.64-36.22-44.57A128.92,128.92,0,0,1,1537.6,568Z"/><path class="cls-25" d="M1644.39,674.54c-5.09,0-10.82-1.69-16.58-4.88a41.81,41.81,0,0,1-12.34-10.23c-5.32-6.58-8.53-15-9.54-24.9a46.41,46.41,0,0,1,7-30c6.68-10.47,17.49-18.93,33-25.87a1.88,1.88,0,0,1,.77-.17,1.9,1.9,0,0,1,1.89,2.13c0,.13-1.46,13,5.14,20.43,3.11,3.49,7.58,5.29,13.32,5.34,1.09-.32,6.62-2.2,8.85-7.58,2.3-5.54.61-13.07-5-22.39a1.89,1.89,0,0,1,.64-2.61,2,2,0,0,1,1-.27,1.58,1.58,0,0,1,.38,0c1.28,0,6.08-.71,9-1.11s3.88-.53,4.27-.55c1.11,0,2.23-.06,3.35-.06,9.57,0,17.89,1.64,24.73,4.89,10.53,5,17.75,14.82,19.82,26.94a38.7,38.7,0,0,1-10.5,34.08c-7.21,7.15-16.5,10.77-27.62,10.77-7.69,0-16.24-1.73-25.46-5.16a59.86,59.86,0,0,1-3.54,12.3c-3.52,9.26-8.64,15.19-15.22,17.62A20.92,20.92,0,0,1,1644.39,674.54Z"/><path class="cls-9" d="M1617,658.23c-5.31-6.57-8.19-14.69-9.13-23.9a44.79,44.79,0,0,1,6.66-28.79c7.48-11.72,19.74-19.6,32.2-25.17,0,0-3.39,27.9,20.6,27.9,0,0,21.9-5.21,5.22-32.85.2.34,12.71-1.58,13.69-1.62,9.19-.34,18.8.67,27.19,4.65,21.83,10.36,25.72,41.18,8.8,57.95-14.75,14.63-36.08,11.21-53.6,4.21,1.14.45-3.1,13.42-3.46,14.38-2.62,6.89-6.84,13.83-14.1,16.51s-15.5.26-22.28-3.5A39.78,39.78,0,0,1,1617,658.23Z"/><path class="cls-26" d="M1712.16,604.55C1657,604,1626,633.74,1609.67,658.78a165.14,165.14,0,0,0-20.78,47.39c.22-39.6,2.72-175.67,26.4-205a.85.85,0,1,0-1.32-1.07c-25.72,31.91-26.85,181.63-26.81,211.87-31.8-86.87-125.57-131.35-126.53-131.8a.85.85,0,0,0-.72,1.55c1,.45,97.54,46.27,127.32,135.6a.83.83,0,0,0,.8.59h.14a.86.86,0,0,0,.72-.85c0-.13,0-1.21,0-3.07a160.12,160.12,0,0,1,22.22-54.22c16-24.46,46.19-53.46,99.58-53.46h1.46a.82.82,0,0,0,.86-.85A.85.85,0,0,0,1712.16,604.55Z"/><path class="cls-27" d="M1505,625.94c0,3.6-5.64,6.53-12.61,6.53s-12.61-2.93-12.61-6.53,5.65-6.54,12.61-6.54S1505,622.33,1505,625.94Z"/><path class="cls-27" d="M1528.68,605.75c-3.58.43-7.17-4.83-8-11.74s1.39-12.87,5-13.3,7.16,4.82,8,11.73S1532.26,605.31,1528.68,605.75Z"/><path class="cls-27" d="M1568.33,592.9c-3.13-1.8-2.84-8.16.64-14.19s8.84-9.45,12-7.65,2.83,8.16-.65,14.19S1571.45,594.7,1568.33,592.9Z"/><path class="cls-27" d="M1626.77,558.31c-2.19-1.26-2-5.7.45-9.92s6.19-6.62,8.37-5.36,2,5.71-.45,9.93S1629,559.58,1626.77,558.31Z"/><path class="cls-27" d="M1638,657.6c-1.44-2.08.65-6,4.66-8.78s8.42-3.33,9.85-1.25-.65,6-4.66,8.78S1639.45,659.67,1638,657.6Z"/><path class="cls-27" d="M1693,625c-1.43-2.07.66-6,4.67-8.77s8.42-3.33,9.85-1.25-.65,6-4.66,8.78S1694.46,627.11,1693,625Z"/><path class="cls-21" d="M1621.5,806l-63.67.08a2.39,2.39,0,0,1-2.34-1.83l-21.31-88.71a2.39,2.39,0,0,1,2.34-2.94l105.63-.14a2.38,2.38,0,0,1,2.35,2.92l-20.66,88.77A2.41,2.41,0,0,1,1621.5,806Z"/><path class="cls-28" d="M1566,802.15a2.37,2.37,0,0,1-2.34-1.83l-21.07-87.71h-6.12a2.39,2.39,0,0,0-2.34,2.94l21.3,88.71a2.41,2.41,0,0,0,2.35,1.83l63.67-.08a2.41,2.41,0,0,0,2.34-1.86l.48-2.08Z"/><path class="cls-29" d="M873.08,193.94h17a1.25,1.25,0,0,1,1.25,1.26V200a1.26,1.26,0,0,1-1.25,1.26h-17a1.26,1.26,0,0,1-1.26-1.26V195.2a1.25,1.25,0,0,1,1.26-1.26Z"/><path class="cls-29" d="M885.67,206h17a1.26,1.26,0,0,1,1.26,1.26v4.76a1.27,1.27,0,0,1-1.26,1.26h-17a1.26,1.26,0,0,1-1.26-1.26V207.3a1.25,1.25,0,0,1,1.26-1.26Z"/><path class="cls-29" d="M860.48,206h17a1.25,1.25,0,0,1,1.26,1.26v4.76a1.26,1.26,0,0,1-1.26,1.26h-17a1.26,1.26,0,0,1-1.25-1.26V207.3a1.25,1.25,0,0,1,1.25-1.26Z"/><path class="cls-29" d="M873.08,218h17a1.25,1.25,0,0,1,1.25,1.26v4.76a1.26,1.26,0,0,1-1.25,1.26h-17a1.26,1.26,0,0,1-1.26-1.26V219.3a1.25,1.25,0,0,1,1.26-1.26Z"/><path class="cls-29" d="M1178.59,205.67h17a1.27,1.27,0,0,1,1.26,1.26v4.76a1.26,1.26,0,0,1-1.26,1.26h-17a1.26,1.26,0,0,1-1.26-1.26v-4.76a1.27,1.27,0,0,1,1.26-1.26Z"/><path class="cls-29" d="M1191.18,217.77h17a1.27,1.27,0,0,1,1.26,1.26v4.76a1.26,1.26,0,0,1-1.26,1.26h-17a1.26,1.26,0,0,1-1.26-1.26V219a1.27,1.27,0,0,1,1.26-1.26Z"/><path class="cls-29" d="M1166,217.77h17a1.27,1.27,0,0,1,1.26,1.26v4.76a1.26,1.26,0,0,1-1.26,1.26h-17a1.26,1.26,0,0,1-1.26-1.26V219a1.27,1.27,0,0,1,1.26-1.26Z"/><path class="cls-29" d="M1178.59,229.77h17a1.27,1.27,0,0,1,1.26,1.26v4.76a1.26,1.26,0,0,1-1.26,1.26h-17a1.26,1.26,0,0,1-1.26-1.26V231a1.27,1.27,0,0,1,1.26-1.26Z"/><path class="cls-29" d="M515.92,220.87h17a1.27,1.27,0,0,1,1.26,1.26v4.77a1.26,1.26,0,0,1-1.26,1.25h-17a1.26,1.26,0,0,1-1.26-1.25v-4.77a1.27,1.27,0,0,1,1.26-1.26Z"/><path class="cls-29" d="M528.51,233h17a1.27,1.27,0,0,1,1.26,1.26V239a1.26,1.26,0,0,1-1.26,1.26h-17a1.26,1.26,0,0,1-1.26-1.26v-4.76a1.27,1.27,0,0,1,1.26-1.26Z"/><path class="cls-29" d="M503.33,233h17a1.27,1.27,0,0,1,1.26,1.26V239a1.26,1.26,0,0,1-1.26,1.26h-17a1.26,1.26,0,0,1-1.26-1.26v-4.76a1.27,1.27,0,0,1,1.26-1.26Z"/><path class="cls-29" d="M515.92,245h17a1.27,1.27,0,0,1,1.26,1.26V251a1.26,1.26,0,0,1-1.26,1.25h-17a1.26,1.26,0,0,1-1.26-1.25v-4.77a1.27,1.27,0,0,1,1.26-1.26Z"/><path class="cls-27" d="M747.56,265.81a5.46,5.46,0,0,1-5.46-5.47V239A64.35,64.35,0,1,1,778.17,250c-2.11,0-4.27-.11-6.46-.33l-21,15.09A5.44,5.44,0,0,1,747.56,265.81Z"/><circle class="cls-9" cx="778.17" cy="186.19" r="58.87"/><polygon class="cls-9" points="747.56 233.45 747.56 260.85 775.11 241.01 747.56 233.45"/><path class="cls-30" d="M808.24,168.29H751.7a1.1,1.1,0,0,1,0-2.19h56.54a1.1,1.1,0,0,1,0,2.19Z"/><path class="cls-30" d="M808.24,179.45H751.7a1.1,1.1,0,0,1,0-2.19h56.54a1.1,1.1,0,0,1,0,2.19Z"/><path class="cls-30" d="M808.24,191.15H751.7a1.09,1.09,0,0,1,0-2.18h56.54a1.09,1.09,0,1,1,0,2.18Z"/><path class="cls-30" d="M808.24,201.41H751.7a1.09,1.09,0,0,1,0-2.18h56.54a1.09,1.09,0,1,1,0,2.18Z"/><circle class="cls-22" cx="762.69" cy="218.73" r="2.36"/><circle class="cls-22" cx="770.65" cy="218.73" r="2.36"/><circle class="cls-22" cx="778.66" cy="218.73" r="2.36"/><path class="cls-21" d="M793.75,209.72a3.87,3.87,0,0,1,1.2,3,3.79,3.79,0,0,1-1.29,3.13,5.53,5.53,0,0,1-3.51,1.09v2.21H788v-3.73h1a5.56,5.56,0,0,0,2.74-.57,2.21,2.21,0,0,0,1-2.11,2.06,2.06,0,0,0-2.22-2.22,2.41,2.41,0,0,0-1.74.62,2.11,2.11,0,0,0-.66,1.62h-2.19a4,4,0,0,1,.54-2.13,3.89,3.89,0,0,1,1.63-1.47,5.55,5.55,0,0,1,2.5-.53A4.61,4.61,0,0,1,793.75,209.72Zm-3.36,11.22v2.52h-2.6v-2.52Z"/><rect class="cls-27" x="876.52" y="245.66" width="88.53" height="119.22" rx="17.95"/><rect class="cls-9" x="881.52" y="250.43" width="78.52" height="109.21" rx="12.95"/><circle class="cls-30" cx="900.33" cy="278.47" r="5.44"/><path class="cls-30" d="M905.77,298.28a5.45,5.45,0,1,1-5.44-5.44A5.45,5.45,0,0,1,905.77,298.28Z"/><path class="cls-30" d="M905.77,318.1a5.45,5.45,0,1,1-5.44-5.45A5.45,5.45,0,0,1,905.77,318.1Z"/><circle class="cls-30" cx="900.33" cy="337.91" r="5.44"/><path class="cls-30" d="M928.52,276.14h0a1,1,0,0,1-.79-.41l-5.28-7.09a1,1,0,1,1,1.6-1.19l4.49,6,12.56-16.28a1,1,0,1,1,1.58,1.23l-13.36,17.32A1,1,0,0,1,928.52,276.14Z"/><path class="cls-30" d="M945.8,282.75H916.93a1,1,0,1,1,0-2H945.8a1,1,0,0,1,0,2Z"/><path class="cls-30" d="M944.7,302.08H915.83a1,1,0,0,1,0-2H944.7a1,1,0,0,1,0,2Z"/><path class="cls-30" d="M944.7,321.38H915.83a1,1,0,0,1,0-2H944.7a1,1,0,0,1,0,2Z"/><path class="cls-30" d="M944.7,342.66H915.83a1,1,0,0,1,0-2H944.7a1,1,0,0,1,0,2Z"/><path class="cls-27" d="M1051.07,180.72a5.44,5.44,0,0,1-5.44-5.35l-.73-44.43a5.45,5.45,0,0,1,5.35-5.53l19.59-.32a5.44,5.44,0,0,1,5.44,5.35l.73,44.43a5.45,5.45,0,0,1-5.35,5.53Z"/><rect class="cls-27" x="1050.7" y="130.69" width="19.51" height="44.44" transform="matrix(1, -0.02, 0.02, 1, -2.37, 17.46)"/><path class="cls-27" d="M1075.42,180.32A5.45,5.45,0,0,1,1070,175l-1-58.08a5.43,5.43,0,0,1,5.34-5.53L1094,111a5.44,5.44,0,0,1,5.44,5.35l.95,58.08A5.45,5.45,0,0,1,1095,180Z"/><rect class="cls-27" x="1074.94" y="116.63" width="19.51" height="58.09" transform="matrix(1, -0.02, 0.02, 1, -2.25, 17.86)"/><path class="cls-27" d="M1099.77,179.92a5.45,5.45,0,0,1-5.44-5.35l-1.27-77.35a5.44,5.44,0,0,1,5.35-5.53l19.59-.32a5.45,5.45,0,0,1,5.44,5.35l1.27,77.35a5.44,5.44,0,0,1-5.35,5.53Z"/><rect class="cls-27" x="1099.13" y="96.97" width="19.51" height="77.36" transform="translate(-2.08 18.25) rotate(-0.94)"/><path class="cls-27" d="M1124.12,179.52a5.45,5.45,0,0,1-5.44-5.35l-1.41-86a5.44,5.44,0,0,1,5.34-5.53l19.6-.32a5.45,5.45,0,0,1,5.44,5.35l1.41,86a5.44,5.44,0,0,1-5.35,5.53Z"/><rect class="cls-27" x="1123.41" y="87.88" width="19.51" height="86.04" transform="translate(-2 18.65) rotate(-0.94)"/><path class="cls-27" d="M1148.47,179.12a5.44,5.44,0,0,1-5.44-5.35l-1.41-86a5.43,5.43,0,0,1,5.34-5.53l19.6-.32a5.45,5.45,0,0,1,5.44,5.35l1.41,86a5.44,5.44,0,0,1-5.35,5.53Z"/><rect class="cls-27" x="1147.76" y="87.48" width="19.51" height="86.04" transform="translate(-1.99 19.05) rotate(-0.94)"/><path class="cls-27" d="M1172.82,178.72a5.44,5.44,0,0,1-5.44-5.35L1165.7,71.29a5.45,5.45,0,0,1,5.35-5.53l19.6-.32a5.43,5.43,0,0,1,5.43,5.35l1.68,102.08a5.45,5.45,0,0,1-5.35,5.53Z"/><rect class="cls-27" x="1171.98" y="71.03" width="19.51" height="102.09" transform="translate(-1.85 19.45) rotate(-0.94)"/><path class="cls-27" d="M1197.17,178.32a5.45,5.45,0,0,1-5.44-5.35L1189.82,56.8a5.45,5.45,0,0,1,5.35-5.53l19.59-.32a5.44,5.44,0,0,1,5.44,5.35l1.91,116.17a5.43,5.43,0,0,1-5.35,5.52Z"/><rect class="cls-27" x="1196.21" y="56.54" width="19.51" height="116.18" transform="translate(-1.72 19.85) rotate(-0.94)"/><path class="cls-27" d="M1221.52,177.92a5.45,5.45,0,0,1-5.44-5.35L1214,44.12a5.45,5.45,0,0,1,5.35-5.53l19.59-.32a5.45,5.45,0,0,1,5.44,5.35l2.11,128.45a5.43,5.43,0,0,1-5.35,5.52Z"/><rect class="cls-27" x="1220.46" y="43.86" width="19.51" height="128.47" transform="translate(-1.61 20.25) rotate(-0.94)"/><path class="cls-27" d="M1037.87,114.82a5.34,5.34,0,0,1-1.72-.28,5.43,5.43,0,0,1-3.15-2.72l-1.35-2.71a5.44,5.44,0,0,1,2.44-7.29l51.46-25.74a5.24,5.24,0,0,1,1.26-.44l68.16-15,54.91-38.25a5.45,5.45,0,0,1,2.22-7.4L1239,.64a5.44,5.44,0,0,1,6.64,8.4L1225.8,31.39a5.41,5.41,0,0,1-4.07,1.83h0a5.44,5.44,0,0,1-2.33-.52L1161.54,73a5.8,5.8,0,0,1-1.94.85L1090.83,89l-50.53,25.26A5.42,5.42,0,0,1,1037.87,114.82Z"/><polygon class="cls-27" points="1158.43 68.55 1219.9 25.72 1221.73 27.79 1241.51 5.44 1214.66 19.79 1217.89 23.44 1157.19 65.72 1087.98 80.95 1036.52 106.68 1037.87 109.38 1089 83.82 1158.43 68.55"/><path class="cls-27" d="M903.21,99.92c-28.44,0-51.58-22-51.58-49s23.14-49,51.58-49a52.46,52.46,0,0,1,40.5,18.66L960.65,7.61a11.23,11.23,0,0,1,13.63,17.85L953.75,41.14a46.39,46.39,0,0,1,1,9.77C954.79,77.93,931.65,99.92,903.21,99.92Z"/><ellipse class="cls-7" cx="903.34" cy="51.04" rx="43.56" ry="40.99"/><path class="cls-22" d="M902.36,69.72a3.19,3.19,0,0,1-2.31-1l-19.41-20a3.21,3.21,0,0,1,4.61-4.47l17.42,18,63-48.11a3.21,3.21,0,0,1,3.89,5.1L904.3,69.06A3.2,3.2,0,0,1,902.36,69.72Z"/><rect class="cls-27" x="526.71" y="5.78" width="171.64" height="137.26" rx="16.53"/><rect class="cls-9" x="532.98" y="11.53" width="160.15" height="125.77" rx="10.79"/><rect class="cls-22" x="557.38" y="23.58" width="65.13" height="45.17" rx="10.79"/><path class="cls-30" d="M610.87,94.06h-46a7.54,7.54,0,0,1-7.51-7.52h0A7.54,7.54,0,0,1,564.89,79h46a7.54,7.54,0,0,1,7.51,7.52h0A7.54,7.54,0,0,1,610.87,94.06Z"/><rect class="cls-30" x="556.48" y="104.22" width="105.94" height="21.02" rx="10.51"/><path class="cls-30" d="M669.64,32H637.48a1.15,1.15,0,1,1,0-2.3h32.16a1.15,1.15,0,0,1,0,2.3Z"/><path class="cls-30" d="M669.64,46.28H637.48a1.15,1.15,0,1,1,0-2.3h32.16a1.15,1.15,0,0,1,0,2.3Z"/><path class="cls-30" d="M669.64,60.57H637.48a1.15,1.15,0,1,1,0-2.3h32.16a1.15,1.15,0,0,1,0,2.3Z"/><path class="cls-30" d="M669.64,74.86H637.48a1.15,1.15,0,1,1,0-2.29h32.16a1.15,1.15,0,1,1,0,2.29Z"/><path class="cls-30" d="M669.64,89.15H637.48a1.15,1.15,0,1,1,0-2.29h32.16a1.15,1.15,0,1,1,0,2.29Z"/><rect class="cls-27" x="392.07" y="109.99" width="100.15" height="119.26" rx="17.02"/><rect class="cls-9" x="397.54" y="114.44" width="90.66" height="109.78" rx="12.28"/><path class="cls-31" d="M463.41,192.91A15.87,15.87,0,0,1,458.94,204L448.53,191.8l11.72-8.41A15.78,15.78,0,0,1,463.41,192.91Z"/><path class="cls-22" d="M458.94,204a15.95,15.95,0,1,1-20.61-24.15l10.2,12Z"/><path class="cls-21" d="M460.25,183.39l-11.72,8.41-10.2-12a15.93,15.93,0,0,1,21.92,3.55Z"/><rect class="cls-30" x="414.73" y="131.68" width="36.44" height="1.89" rx="0.66"/><rect class="cls-30" x="414.15" y="144.27" width="55.73" height="1.89" rx="0.81"/><rect class="cls-30" x="414.15" y="154.32" width="55.73" height="1.89" rx="0.81"/><rect class="cls-30" x="414.7" y="168.9" width="55.73" height="1.89" rx="0.81"/><path class="cls-27" d="M1257.6,333.31a4,4,0,0,1-2.29-.72l-12.78-8.84h-37.2a14.47,14.47,0,0,1-14.22-11.86h-8.62A14.47,14.47,0,0,1,1168,297.43V281.09a14.47,14.47,0,0,1,14.46-14.45h50.34a14.46,14.46,0,0,1,14.22,11.86h8.62A14.47,14.47,0,0,1,1270.13,293V309.3a14.47,14.47,0,0,1-8.5,13.16v6.82a4.06,4.06,0,0,1-4,4Z"/><rect class="cls-7" x="1172.61" y="271.22" width="71.2" height="37.19" rx="10.43"/><rect class="cls-9" x="1195.46" y="283.09" width="71.2" height="37.19" rx="10.43"/><polygon class="cls-9" points="1236.64 314.95 1258.15 329.83 1258.15 312.56 1236.64 314.95"/><path class="cls-22" d="M1222.45,300.08a4.5,4.5,0,1,1-4.5-4.5A4.5,4.5,0,0,1,1222.45,300.08Z"/><path class="cls-22" d="M1237.59,300.08a4.5,4.5,0,1,1-4.5-4.5A4.49,4.49,0,0,1,1237.59,300.08Z"/><path class="cls-22" d="M1252.85,300.08a4.5,4.5,0,1,1-4.5-4.5A4.49,4.49,0,0,1,1252.85,300.08Z"/><rect class="cls-32" x="1049.75" y="131.29" width="19.51" height="44.44" transform="translate(-2.38 17.45) rotate(-0.94)"/><rect class="cls-32" x="1073.99" y="117.24" width="19.51" height="58.09" transform="translate(-2.26 17.84) rotate(-0.94)"/><rect class="cls-32" x="1098.18" y="97.57" width="19.51" height="77.36" transform="translate(-2.09 18.23) rotate(-0.94)"/><rect class="cls-32" x="1122.46" y="88.49" width="19.51" height="86.04" transform="translate(-2.01 18.64) rotate(-0.94)"/><rect class="cls-32" x="1146.81" y="88.09" width="19.51" height="86.04" transform="translate(-2 19.04) rotate(-0.94)"/><rect class="cls-32" x="1171.03" y="71.64" width="19.51" height="102.09" transform="translate(-1.86 19.43) rotate(-0.94)"/><rect class="cls-32" x="1195.26" y="57.15" width="19.51" height="116.18" transform="matrix(1, -0.02, 0.02, 1, -1.73, 19.84)"/><rect class="cls-32" x="1219.51" y="44.46" width="19.51" height="128.47" transform="matrix(1, -0.02, 0.02, 1, -1.62, 20.24)"/><polygon class="cls-21" points="1240.57 6.04 1213.71 20.39 1216.94 24.05 1156.24 66.33 1087.03 81.55 1035.57 107.28 1036.92 109.99 1088.05 84.42 1157.48 69.15 1218.95 26.32 1220.78 28.39 1240.57 6.04"/></g></g></g></g></svg>