<svg xmlns="http://www.w3.org/2000/svg" viewBox="0 0 1472.42 1141.43"><defs><style>.cls-1{isolation:isolate;}.cls-2{fill:#caadd3;opacity:0.89;}.cls-14,.cls-2,.cls-26{fill-rule:evenodd;}.cls-3{fill:#6bb2f2;}.cls-14,.cls-4{fill:#7ab6f5;}.cls-5{fill:#fff;}.cls-6{fill:#d6f0fd;}.cls-15,.cls-16,.cls-17,.cls-18,.cls-19,.cls-20,.cls-21,.cls-22,.cls-23,.cls-7{fill:#f86666;}.cls-33,.cls-8{fill:#ffdf66;}.cls-9{fill:#ffc0c0;}.cls-10,.cls-26{fill:#fa9999;}.cls-11{fill:#f4f4f4;}.cls-12{fill:#bd8b84;}.cls-13{fill:#8193e9;}.cls-15{opacity:0.91;}.cls-16{opacity:0.82;}.cls-17{opacity:0.72;}.cls-18{opacity:0.63;}.cls-19{opacity:0.54;}.cls-20{opacity:0.45;}.cls-21{opacity:0.35;}.cls-22{opacity:0.26;}.cls-23{opacity:0.17;}.cls-24{fill:#65a9e5;}.cls-25{fill:#bad1d8;}.cls-27,.cls-30,.cls-32{fill:#2a2b7d;}.cls-28{opacity:0.01;}.cls-28,.cls-32,.cls-33,.cls-34{mix-blend-mode:multiply;}.cls-29{fill:#46a3e8;}.cls-30,.cls-31,.cls-32,.cls-33,.cls-34{opacity:0.25;}.cls-30,.cls-31{mix-blend-mode:screen;}.cls-35{fill:#64b5f2;}.cls-36{fill:#20246b;}.cls-37{fill:#6f86dd;}.cls-38{fill:#2e3387;}</style></defs><title>Asset 4</title><g class="cls-1"><g id="Layer_2" data-name="Layer 2"><g id="LANDING_PAGE" data-name="LANDING PAGE"><g id="_1" data-name="1"><path class="cls-2" d="M124.87,1134.28s-148-215.41-82.76-446.13S277.85,432.35,453.4,392.22c166.71-38.1,210.53-145.35,274.82-244.82,123.5-191.07,406.12-188.5,562.11-37.75,171.63,165.87,279.39,541.77,55.36,1024.63Z"/><polygon class="cls-3" points="930.8 1112.57 698.56 1112.57 721.78 1019.67 907.57 1019.67 930.8 1112.57"/><rect class="cls-4" x="372.75" y="494.18" width="883.86" height="552.41" rx="44.19"/><path class="cls-5" d="M1257.4,537.74v464a44.21,44.21,0,0,1-44.21,44.21H417.72a44.2,44.2,0,0,1-44.19-44.21v-464a44.16,44.16,0,0,1,44.19-44.19h795.47a44.19,44.19,0,0,1,44.21,44.19Z"/><path class="cls-4" d="M1251.7,516H379.22a44.18,44.18,0,0,1,38.5-22.48h795.47A44.18,44.18,0,0,1,1251.7,516Z"/><rect class="cls-6" x="430.94" y="587.46" width="612.11" height="343.44"/><rect class="cls-7" x="430.94" y="952.46" width="501.6" height="12.32" rx="6.16"/><path class="cls-8" d="M538.16,973.62H437.1a6.16,6.16,0,0,0-6.16,6.16h0a6.15,6.15,0,0,0,6.16,6.16H538.16a6.16,6.16,0,0,0,6.16-6.16h0A6.16,6.16,0,0,0,538.16,973.62Z"/><path class="cls-8" d="M982.4,973.62H908a6.16,6.16,0,0,0-6.16,6.16h0a6.16,6.16,0,0,0,6.16,6.16H982.4a6.16,6.16,0,0,0,6.16-6.16h0A6.16,6.16,0,0,0,982.4,973.62Z"/><rect class="cls-6" x="1078.52" y="587.46" width="118.02" height="66.22"/><rect class="cls-6" x="1081.34" y="860.82" width="118.02" height="66.22"/><path class="cls-7" d="M1147.88,888.05h-16.7a1.2,1.2,0,0,0-1.21,1.2v8.4a1.2,1.2,0,0,0,1.21,1.2h16.7a1.19,1.19,0,0,0,1.2-1.2v-8.4A1.19,1.19,0,0,0,1147.88,888.05Zm-10.34,8.43v-6.05l5.24,3Z"/><path class="cls-3" d="M538.16,553.57H437.1a6.16,6.16,0,0,0-6.16,6.16h0a6.16,6.16,0,0,0,6.16,6.16H538.16a6.16,6.16,0,0,0,6.16-6.16h0A6.16,6.16,0,0,0,538.16,553.57Z"/><path class="cls-8" d="M882.48,973.62H808.11a6.16,6.16,0,0,0-6.16,6.16h0a6.16,6.16,0,0,0,6.16,6.16h74.37a6.16,6.16,0,0,0,6.16-6.16h0A6.16,6.16,0,0,0,882.48,973.62Z"/><path class="cls-8" d="M779.71,973.62H743.15a6.16,6.16,0,0,0-6.16,6.16h0a6.16,6.16,0,0,0,6.16,6.16h36.56a6.16,6.16,0,0,0,6.17-6.16h0A6.16,6.16,0,0,0,779.71,973.62Z"/><path class="cls-9" d="M1063.34,688.59c-6.72,16.83-65.74,46.87-65.74,46.87l-21.72-43-.8-1.58-.54-1.06s66.36-72.52,85-82a11.11,11.11,0,0,1,2.24-.89h0a.49.49,0,0,0,.14,0c14.45-3.13-18.6,47.58-18.6,47.58S1070.06,671.77,1063.34,688.59Z"/><path class="cls-5" d="M975.56,690.75c10.9-11.82,68.12-73.37,87.18-84.27l-.41.07a.58.58,0,0,1-.14,0h0a10.67,10.67,0,0,0-2.24.89c-18.67,9.46-85,82-85,82l.55,1.06Z"/><path class="cls-9" d="M560.43,435.48h0a10,10,0,0,0-5,10.89c2.37,11.1,8.91,30.75,25.7,32.7,0,0,17.45,75,65.83,74.67,0,0,40.2,8.52,62.37-75.69,0,0,11.21.84,14.57-24.41a15.31,15.31,0,0,0-5.37-13.78h0l-17-93.08-107.39-3.07Z"/><path class="cls-10" d="M602.93,561.32h74.48s22.25,23.58-1.09,32.82-74.58,11-77.73-1.48S595.44,563.89,602.93,561.32Z"/><polygon class="cls-10" points="599.34 527.57 606.62 601.47 639.4 619.88 670.94 601.98 679.63 531.24 643.29 541.12 599.34 527.57"/><path class="cls-5" d="M974.7,689l-96,75.43L815,648.49a70.18,70.18,0,0,0-22.7-24.69,541.5,541.5,0,0,0-103.72-53.32s-43.72,81.86-96.91,0c0,0-122.23,47.87-144.22,74s-76.2,174.38-75.19,198.43c.37,8.41,0,19.54,7.66,29.59,12.05,15.84,43.92,29,129.61,24.53l3,34.52-26.24,22.84,252.12-3.07,14.08-225,96.9,146.27L1014.12,726ZM451.29,830.59c.83-5,11.55-25.52,22.33-45.23C484.9,764.73,496.2,745,496.2,745L502,811.38,505.15,847C477,841.75,450.48,835.44,451.29,830.59Z"/><path class="cls-11" d="M528.73,725.46H600.1a0,0,0,0,1,0,0v73.25a14.72,14.72,0,0,1-14.72,14.72H543.45a14.72,14.72,0,0,1-14.72-14.72V725.46A0,0,0,0,1,528.73,725.46Z"/><path class="cls-5" d="M532,728.54h71.37a0,0,0,0,1,0,0v73.25a14.72,14.72,0,0,1-14.72,14.72H546.68A14.72,14.72,0,0,1,532,801.79V728.54A0,0,0,0,1,532,728.54Z"/><path class="cls-11" d="M601,566.49s-9.21,21,24,35.54c0,0-33.24,11.93-37.1,27.36-3.55,14.24-5.65-30.94,0-49.6C587.94,579.79,591.81,567.72,601,566.49Z"/><path class="cls-11" d="M678.31,565.6s9.2,21-24,35.55c0,0,33.25,11.92,37.1,27.36,3.56,14.23,5.65-30.94,0-49.61C691.37,578.9,687.5,566.84,678.31,565.6Z"/><polygon class="cls-7" points="628.07 616.3 607.77 880.04 646.29 926.07 680.77 878 653.16 615.13 628.07 616.3"/><rect class="cls-12" x="372.88" y="881.33" width="884.23" height="77.25"/><polygon class="cls-13" points="685.67 939.05 637.7 891.09 813.31 891.09 685.67 939.05"/><path class="cls-5" d="M685.5,939.84,636.05,890.4h181Zm-46.15-48.07,46.49,46.48,123.71-46.48Z"/><path class="cls-4" d="M372.74,958.58v55c0,17.85,19.8,32.32,44.23,32.32h796.28c24.43,0,44.24-14.47,44.24-32.32v-55Z"/><rect class="cls-13" x="678.24" y="745.88" width="314.07" height="201.5" rx="26.76"/><path class="cls-5" d="M965.54,948.06H705a27.48,27.48,0,0,1-27.45-27.44v-148A27.48,27.48,0,0,1,705,745.2H965.54A27.48,27.48,0,0,1,993,772.64v148A27.48,27.48,0,0,1,965.54,948.06ZM705,746.56a26.11,26.11,0,0,0-26.08,26.08v148A26.11,26.11,0,0,0,705,946.7H965.54a26.11,26.11,0,0,0,26.08-26.08v-148a26.11,26.11,0,0,0-26.08-26.08Z"/><circle class="cls-6" cx="842.82" cy="844.55" r="30.76"/><path class="cls-5" d="M383.68,876.63S400.31,910.28,551.91,890l15.29-33S453,845.29,445.1,836.57C445.1,836.57,384,843.79,383.68,876.63Z"/><path class="cls-14" d="M113.82,749.37h36.9a2.74,2.74,0,0,1,2.74,2.74v10.36a2.74,2.74,0,0,1-2.74,2.74h-36.9a2.74,2.74,0,0,1-2.74-2.74V752.11a2.74,2.74,0,0,1,2.74-2.74Z"/><path class="cls-14" d="M141.21,775.7h36.9a2.74,2.74,0,0,1,2.74,2.74V788.8a2.75,2.75,0,0,1-2.74,2.74h-36.9a2.76,2.76,0,0,1-2.74-2.74V778.44a2.75,2.75,0,0,1,2.74-2.74Z"/><path class="cls-14" d="M86.42,775.7h36.9a2.74,2.74,0,0,1,2.74,2.74V788.8a2.75,2.75,0,0,1-2.74,2.74H86.42a2.75,2.75,0,0,1-2.74-2.74V778.44a2.74,2.74,0,0,1,2.74-2.74Z"/><path class="cls-14" d="M113.82,801.81h36.9a2.74,2.74,0,0,1,2.74,2.74v10.36a2.75,2.75,0,0,1-2.74,2.74h-36.9a2.75,2.75,0,0,1-2.74-2.74V804.55a2.74,2.74,0,0,1,2.74-2.74Z"/><circle class="cls-7" cx="860.65" cy="700.39" r="6.8"/><circle class="cls-15" cx="841.33" cy="692.07" r="6.8"/><path class="cls-16" d="M827.16,696.62a6.8,6.8,0,1,1-6.8-6.8A6.81,6.81,0,0,1,827.16,696.62Z"/><circle class="cls-17" cx="806.34" cy="711.91" r="6.8"/><path class="cls-18" d="M810.41,733.12a6.8,6.8,0,1,1-6.8-6.8A6.81,6.81,0,0,1,810.41,733.12Z"/><path class="cls-19" d="M820.37,751.73a6.8,6.8,0,1,1-6.8-6.8A6.79,6.79,0,0,1,820.37,751.73Z"/><path class="cls-20" d="M838.93,761.14a6.8,6.8,0,1,1-6.8-6.8A6.8,6.8,0,0,1,838.93,761.14Z"/><circle class="cls-21" cx="853.51" cy="757.91" r="6.8"/><path class="cls-22" d="M875.25,743.48a6.8,6.8,0,1,1-6.8-6.8A6.8,6.8,0,0,1,875.25,743.48Z"/><path class="cls-23" d="M879.27,722.61a6.8,6.8,0,1,1-6.8-6.8A6.79,6.79,0,0,1,879.27,722.61Z"/><path class="cls-14" d="M1392.57,784.07h28.73a2.14,2.14,0,0,1,2.14,2.13v8.07a2.14,2.14,0,0,1-2.14,2.14h-28.73a2.14,2.14,0,0,1-2.14-2.14V786.2a2.14,2.14,0,0,1,2.14-2.13Z"/><path class="cls-14" d="M1413.9,804.57h28.74a2.14,2.14,0,0,1,2.13,2.14v8.06a2.14,2.14,0,0,1-2.13,2.14H1413.9a2.14,2.14,0,0,1-2.13-2.14v-8.06a2.14,2.14,0,0,1,2.13-2.14Z"/><path class="cls-14" d="M1371.23,804.57H1400a2.14,2.14,0,0,1,2.13,2.14v8.06a2.14,2.14,0,0,1-2.13,2.14h-28.74a2.14,2.14,0,0,1-2.13-2.14v-8.06a2.14,2.14,0,0,1,2.13-2.14Z"/><path class="cls-14" d="M1392.57,824.91h28.73a2.14,2.14,0,0,1,2.14,2.13v8.07a2.14,2.14,0,0,1-2.14,2.13h-28.73a2.14,2.14,0,0,1-2.14-2.13V827a2.14,2.14,0,0,1,2.14-2.13Z"/><path class="cls-14" d="M1332.54,335.49h36.9a2.74,2.74,0,0,1,2.74,2.74v10.36a2.74,2.74,0,0,1-2.74,2.74h-36.9a2.74,2.74,0,0,1-2.73-2.74V338.23a2.74,2.74,0,0,1,2.73-2.74Z"/><path class="cls-14" d="M1359.94,361.82h36.9a2.74,2.74,0,0,1,2.74,2.73v10.37a2.74,2.74,0,0,1-2.74,2.73h-36.9a2.74,2.74,0,0,1-2.74-2.73V364.55a2.74,2.74,0,0,1,2.74-2.73Z"/><path class="cls-14" d="M1305.15,361.82h36.9a2.74,2.74,0,0,1,2.74,2.73v10.37a2.74,2.74,0,0,1-2.74,2.73h-36.9a2.74,2.74,0,0,1-2.74-2.73V364.55a2.74,2.74,0,0,1,2.74-2.73Z"/><path class="cls-14" d="M1332.54,387.93h36.9a2.74,2.74,0,0,1,2.74,2.74V401a2.75,2.75,0,0,1-2.74,2.74h-36.9a2.75,2.75,0,0,1-2.73-2.74V390.67a2.74,2.74,0,0,1,2.73-2.74Z"/><path class="cls-8" d="M1334.63,786q-4.65-4.08-13.07-4.07t-13.18,4.3q-4.83,4.29-4.9,11.89H1315a7.15,7.15,0,0,1,1.85-5,6.32,6.32,0,0,1,4.71-1.82q6.2,0,6.2,6.73a8.22,8.22,0,0,1-1.19,4.24,25.24,25.24,0,0,1-4.79,5.22,18.09,18.09,0,0,0-4.94,6.5,23.93,23.93,0,0,0-1.35,8.87h10.17l.16-2.43a10.88,10.88,0,0,1,3.46-6.8l3.21-3.06a26.39,26.39,0,0,0,5.29-6.67,14,14,0,0,0,1.51-6.38Q1339.29,790,1334.63,786Z"/><path class="cls-8" d="M1320.78,827.23a5.36,5.36,0,1,0,5.36,5.36A5.35,5.35,0,0,0,1320.78,827.23Z"/><path class="cls-9" d="M671.19,906.28s0,0-.07,0c-2,1.68-14.93-1.32-25.75-24.35l-13.18,5.71a51.47,51.47,0,0,1-36.68,2.75l-43.6-.39,12.74-31.72.52-1.31s84.29-.85,90.94,5.54S673,904.49,671.19,906.28Z"/><path class="cls-5" d="M186.2,1005.11c-1-1.49.47-4.31,3.35-6.29s6-2.39,7.07-.9-.47,4.31-3.35,6.3S187.23,1006.6,186.2,1005.11Z"/><path class="cls-24" d="M44.18,1027.9c-19.07,0-33.34-12.15-42.41-36.1A1.37,1.37,0,0,1,3.05,990a1.36,1.36,0,0,1,.75.22c.05,0,5.56,3.6,10.84,3.6a7.86,7.86,0,0,0,6.69-3.16,6.51,6.51,0,0,0-.39-5.77c-1.63-2.7-6.36-6-19.63-6.58a1.36,1.36,0,0,1-1.19-.8A1.37,1.37,0,0,1,.31,976c.81-1,20.05-24.12,40.13-24.12,8.33,0,15.55,4,21.49,11.87,1.36-2.73,3-8.69-2.86-16a1.37,1.37,0,0,1,0-1.72,1.35,1.35,0,0,1,1.05-.5,1.32,1.32,0,0,1,.64.16c1.33.69,32.5,17.36,35.07,40,1.13,9.93-3.47,19.41-13.67,28.19C81.39,1014.55,64,1027.9,44.18,1027.9Z"/><path class="cls-4" d="M81.28,1012.91s-54.13,42-78.23-21.59c0,0,13.1,8.61,19.46,0,0,0,6.56-13.29-21.14-14.41,0,0,37.05-45.11,60.64-10.67,0,0,6.92-8.42-1.88-19.28C60.13,947,120.77,978.91,81.28,1012.91Z"/><path class="cls-24" d="M130.63,1013.13a48.39,48.39,0,0,1-22.86-5.26c-10.94-5.78-19.65-16.46-26.62-32.66a95.59,95.59,0,0,1-4.24-11.46c-3-10.48-1.93-18.12,3.21-23.35A22.44,22.44,0,0,1,83.79,938c1-.56,2.38-1.39,2.79-1.72a1.38,1.38,0,0,1,1.11-.57l.24,0A1.36,1.36,0,0,1,89,937.33c0,.06-1.07,6.38,1.84,9.85a7,7,0,0,0,5.76,2.3,18.39,18.39,0,0,0,4.38-.6c.86-.61,4.84-3.66,4.81-8.21s-4.37-9.86-12.54-14.91a1.38,1.38,0,0,1-.42-1.92c.65-1,16.07-23.7,43-23.7,12.24,0,24.92,4.79,37.67,14.24a1.37,1.37,0,0,1,.5,1.48,1.38,1.38,0,0,1-1.24,1c-.09,0-9.26.56-12.49,5.91-1.67,2.76-1.49,6.44.53,11,.6.71,4.08,4.58,8.53,4.58,3.78,0,7.4-2.77,10.76-8.22a1.37,1.37,0,0,1,1.88-.45,1.39,1.39,0,0,1,.64,1.31,35.61,35.61,0,0,0,1.56,3.62c.29.6.5,1.06.56,1.23a92.83,92.83,0,0,1,3.92,14.32c4.12,21.93-1.86,39.86-16.85,50.51a67.07,67.07,0,0,1-21.43,9.69A74.62,74.62,0,0,1,130.63,1013.13Z"/><path class="cls-4" d="M78.22,963.37c-2.22-7.83-2.78-16.26,2.88-22,.82-.83,6.51-3.8,6.59-4.26,0,0-3.08,17.41,13.9,13,0,0,16.7-10.52-7.58-25.54,0,0,30-45.2,78.75-9.13,0,0-21.2,1.13-13.06,18.95,0,0,10.81,13.9,21.62-3.65-.29.47,2,4.89,2.2,5.46a91.73,91.73,0,0,1,3.86,14.11c3.51,18.67-.11,37.65-16.3,49.15a66.68,66.68,0,0,1-21,9.49c-13.74,3.78-29.07,4.35-41.67-2.31-12.39-6.55-20.46-19.12-26-32A92.71,92.71,0,0,1,78.22,963.37Z"/><path class="cls-24" d="M154.88,1039.82a25.13,25.13,0,0,1-11.9-3.5,29.94,29.94,0,0,1-8.86-7.34c-3.82-4.73-6.12-10.74-6.85-17.88a33.3,33.3,0,0,1,5-21.55C137.06,982,144.81,976,156,971a1.3,1.3,0,0,1,.55-.12,1.38,1.38,0,0,1,1.36,1.53c0,.1-1,9.32,3.69,14.67,2.23,2.5,5.44,3.79,9.56,3.83a10.21,10.21,0,0,0,6.35-5.44c1.65-4,.44-9.38-3.6-16.07a1.36,1.36,0,0,1,.46-1.87,1.32,1.32,0,0,1,.71-.2l.27,0c.92,0,4.36-.51,6.45-.8s2.78-.38,3.06-.39c.8,0,1.6,0,2.41,0A41.12,41.12,0,0,1,205,969.62,25.73,25.73,0,0,1,219.22,989a27.8,27.8,0,0,1-7.54,24.46c-5.18,5.13-11.85,7.73-19.83,7.73a53.08,53.08,0,0,1-18.28-3.7,42.29,42.29,0,0,1-2.54,8.83c-2.52,6.65-6.2,10.9-10.92,12.65A15,15,0,0,1,154.88,1039.82Z"/><path class="cls-4" d="M135.18,1028.12c-3.81-4.72-5.88-10.55-6.55-17.16a32.12,32.12,0,0,1,4.78-20.67c5.37-8.41,14.17-14.06,23.11-18.06,0,0-2.43,20,14.79,20,0,0,15.72-3.75,3.74-23.59.15.25,9.13-1.13,9.83-1.16,6.6-.24,13.49.48,19.52,3.34,15.67,7.43,18.46,29.55,6.32,41.59-10.6,10.5-25.9,8-38.48,3,.82.33-2.22,9.64-2.49,10.32-1.87,5-4.91,9.94-10.12,11.86s-11.12.19-16-2.52A28.5,28.5,0,0,1,135.18,1028.12Z"/><path class="cls-25" d="M203.52,989.58c-39.57-.37-61.82,21-73.56,38.93a118.47,118.47,0,0,0-14.92,34c.16-28.42,1.95-126.09,19-147.18a.61.61,0,0,0-1-.77c-18.46,22.91-19.27,130.37-19.24,152.08C91,1004.3,23.66,972.37,23,972.05a.6.6,0,0,0-.81.3.61.61,0,0,0,.3.81c.7.32,70,33.21,91.38,97.34a.62.62,0,0,0,.58.41h.11a.62.62,0,0,0,.51-.61c0-.1,0-.87,0-2.2A114.88,114.88,0,0,1,131,1029.18c11.47-17.56,33.15-38.38,71.48-38.38h1c.32.06.61-.27.62-.61A.62.62,0,0,0,203.52,989.58Z"/><path class="cls-5" d="M54.84,1004.93c0,2.59-4.05,4.69-9.05,4.69s-9-2.1-9-4.69,4-4.69,9-4.69S54.84,1002.34,54.84,1004.93Z"/><path class="cls-5" d="M71.82,990.44c-2.57.31-5.14-3.46-5.74-8.42s1-9.24,3.57-9.55,5.14,3.46,5.74,8.42S74.39,990.13,71.82,990.44Z"/><path class="cls-5" d="M100.28,981.22c-2.24-1.29-2-5.85.46-10.18s6.35-6.79,8.59-5.5,2,5.86-.46,10.19S102.52,982.52,100.28,981.22Z"/><path class="cls-5" d="M142.23,956.39c-1.57-.9-1.42-4.09.33-7.12s4.43-4.75,6-3.84,1.43,4.09-.32,7.12S143.8,957.3,142.23,956.39Z"/><path class="cls-5" d="M150.3,1027.66c-1-1.49.47-4.31,3.35-6.3s6-2.39,7.07-.9-.47,4.31-3.34,6.3S151.33,1029.15,150.3,1027.66Z"/><path class="cls-7" d="M138.45,1134.2l-45.71.06a1.72,1.72,0,0,1-1.68-1.32l-15.29-63.67a1.72,1.72,0,0,1,1.68-2.11l75.82-.1a1.72,1.72,0,0,1,1.69,2.1l-14.83,63.71A1.72,1.72,0,0,1,138.45,1134.2Z"/><rect class="cls-5" x="267.8" y="250.63" width="203.98" height="163.12" rx="19.65"/><rect class="cls-4" x="275.25" y="257.46" width="190.32" height="149.47" rx="12.82"/><rect class="cls-8" x="304.24" y="271.78" width="77.4" height="53.68" rx="12.82"/><path class="cls-6" d="M367.81,355.54H313.17a9,9,0,0,1-8.93-8.94h0a9,9,0,0,1,8.93-8.93h54.64a9,9,0,0,1,8.93,8.93h0A9,9,0,0,1,367.81,355.54Z"/><path class="cls-6" d="M416.58,392.6H315.66a12.53,12.53,0,0,1-12.49-12.49h0a12.53,12.53,0,0,1,12.49-12.5H416.58a12.53,12.53,0,0,1,12.49,12.5h0A12.53,12.53,0,0,1,416.58,392.6Z"/><path class="cls-6" d="M437.65,281.78H399.44a1.37,1.37,0,0,1,0-2.73h38.21a1.37,1.37,0,1,1,0,2.73Z"/><path class="cls-6" d="M437.65,298.76H399.44a1.37,1.37,0,0,1,0-2.73h38.21a1.37,1.37,0,1,1,0,2.73Z"/><path class="cls-6" d="M437.65,315.74H399.44a1.37,1.37,0,0,1,0-2.73h38.21a1.37,1.37,0,1,1,0,2.73Z"/><path class="cls-6" d="M437.65,332.73H399.44a1.37,1.37,0,0,1,0-2.73h38.21a1.37,1.37,0,1,1,0,2.73Z"/><path class="cls-6" d="M437.65,349.71H399.44a1.37,1.37,0,0,1,0-2.73h38.21a1.37,1.37,0,1,1,0,2.73Z"/><rect class="cls-5" x="799.88" y="249.14" width="259.19" height="351.22" rx="29.37"/><rect class="cls-4" x="805.45" y="255.97" width="245.54" height="337.57" rx="22.54"/><path class="cls-6" d="M1019.28,313.45H905a1,1,0,0,1,0-1.9h114.27a1,1,0,0,1,0,1.9Z"/><path class="cls-6" d="M972.71,328.69H904.64c-.31,0-.55-.43-.55-.95s.24-1,.55-1h68.07c.31,0,.55.43.55,1S973,328.69,972.71,328.69Z"/><path class="cls-6" d="M1019.28,384.82H905a1,1,0,0,1,0-1.91h114.27a1,1,0,0,1,0,1.91Z"/><path class="cls-6" d="M972.71,400.06H904.64c-.31,0-.55-.43-.55-1s.24-1,.55-1h68.07c.31,0,.55.43.55,1S973,400.06,972.71,400.06Z"/><path class="cls-6" d="M1019.28,456.19H905a1,1,0,0,1,0-1.91h114.27a1,1,0,0,1,0,1.91Z"/><path class="cls-6" d="M972.71,471.42H904.64c-.31,0-.55-.42-.55-.95s.24-1,.55-1h68.07c.31,0,.55.42.55,1S973,471.42,972.71,471.42Z"/><path class="cls-6" d="M1019.28,527.55H905a1,1,0,0,1,0-1.9h114.27a1,1,0,0,1,0,1.9Z"/><path class="cls-6" d="M972.71,542.79H904.64c-.31,0-.55-.43-.55-.95s.24-1,.55-1h68.07c.31,0,.55.43.55,1S973,542.79,972.71,542.79Z"/><ellipse class="cls-13" cx="854.21" cy="317.49" rx="17.78" ry="16.73"/><path class="cls-8" d="M853.81,325.12a1.34,1.34,0,0,1-.94-.4L845,316.55a1.31,1.31,0,1,1,1.88-1.83l7.11,7.34,25.71-19.64a1.31,1.31,0,0,1,1.59,2.08l-26.63,20.35A1.33,1.33,0,0,1,853.81,325.12Z"/><ellipse class="cls-13" cx="854.63" cy="387.94" rx="17.78" ry="16.73"/><path class="cls-8" d="M854.23,395.56a1.28,1.28,0,0,1-.94-.4L845.37,387a1.31,1.31,0,1,1,1.88-1.82l7.11,7.34,25.71-19.64a1.31,1.31,0,0,1,1.59,2.08L855,395.29A1.28,1.28,0,0,1,854.23,395.56Z"/><ellipse class="cls-13" cx="854.1" cy="460.7" rx="17.78" ry="16.73"/><path class="cls-8" d="M853.7,468.32a1.26,1.26,0,0,1-.94-.4l-7.93-8.17a1.32,1.32,0,0,1,1.89-1.83l7.11,7.34,25.71-19.64a1.31,1.31,0,0,1,1.58,2.08l-26.63,20.35A1.28,1.28,0,0,1,853.7,468.32Z"/><ellipse class="cls-13" cx="855.31" cy="535.28" rx="17.78" ry="16.73"/><path class="cls-8" d="M854.91,542.9a1.26,1.26,0,0,1-.94-.4L846,534.33a1.31,1.31,0,0,1,1.89-1.82l7.11,7.34,25.71-19.64a1.31,1.31,0,1,1,1.58,2.08L855.7,542.63A1.28,1.28,0,0,1,854.91,542.9Z"/><rect class="cls-5" x="1276.16" y="467.44" width="173.49" height="255.58" rx="23.49"/><rect class="cls-4" x="1282.99" y="474.26" width="159.83" height="241.93" rx="16.66"/><circle class="cls-8" cx="1362.9" cy="639.35" r="26.72"/><path class="cls-6" d="M1341.89,689.9a8,8,0,1,1-11.2-1.83A8,8,0,0,1,1341.89,689.9Z"/><path class="cls-6" d="M1369.42,689.9a8,8,0,1,1-11.2-1.83A8,8,0,0,1,1369.42,689.9Z"/><path class="cls-6" d="M1396.94,689.9a8,8,0,1,1-11.19-1.83A8,8,0,0,1,1396.94,689.9Z"/><path class="cls-6" d="M1393.41,497.25h-61a.7.7,0,0,1-.7-.7.69.69,0,0,1,.7-.69h61a.69.69,0,0,1,.7.69A.7.7,0,0,1,1393.41,497.25Z"/><path class="cls-6" d="M1413,514H1312.81a.7.7,0,0,1-.69-.7.69.69,0,0,1,.69-.69H1413a.69.69,0,0,1,.69.69A.7.7,0,0,1,1413,514Z"/><path class="cls-6" d="M1413,528.24H1312.81a.7.7,0,0,1,0-1.39H1413a.7.7,0,0,1,0,1.39Z"/><path class="cls-6" d="M1413,542.47H1312.81a.7.7,0,0,1,0-1.39H1413a.7.7,0,0,1,0,1.39Z"/><path class="cls-6" d="M1413,556.7H1312.81a.7.7,0,0,1,0-1.39H1413a.7.7,0,0,1,0,1.39Z"/><path class="cls-6" d="M1413,570.93H1312.81a.7.7,0,0,1,0-1.39H1413a.7.7,0,0,1,0,1.39Z"/><path class="cls-6" d="M1413,585.16H1312.81a.7.7,0,0,1,0-1.39H1413a.7.7,0,0,1,0,1.39Z"/><path class="cls-6" d="M1413,599.4H1312.81a.7.7,0,0,1-.69-.7.69.69,0,0,1,.69-.69H1413a.69.69,0,0,1,.69.69A.7.7,0,0,1,1413,599.4Z"/><path class="cls-5" d="M1167.14,247.13c-24.21,0-43.91-18.72-43.91-41.73s19.7-41.73,43.91-41.73a44.66,44.66,0,0,1,34.49,15.89l14.41-11a9.56,9.56,0,0,1,11.61,15.19l-17.48,13.36a39.29,39.29,0,0,1,.88,8.31C1211.05,228.41,1191.36,247.13,1167.14,247.13Z"/><ellipse class="cls-13" cx="1167.26" cy="205.51" rx="37.08" ry="34.9"/><path class="cls-8" d="M1166.42,221.42a2.75,2.75,0,0,1-2-.83l-16.52-17.05a2.73,2.73,0,0,1,3.92-3.8l14.84,15.3,53.61-41a2.73,2.73,0,1,1,3.32,4.34l-55.55,42.44A2.74,2.74,0,0,1,1166.42,221.42Z"/><path class="cls-26" d="M599.86,352s17.32,40.71,95.6,40.71c.21,0-3.34-28.81-3.34-28.81Z"/><path class="cls-27" d="M692.59,381.14s13.86,40.11,5.17,75.4l20.7-16.7L722,357.5Z"/><path class="cls-5" d="M677.37,561.32s9.2,21-24,35.55c0,0,33.25,11.92,37.1,27.36,3.56,14.23,5.65-30.94,0-49.61C690.43,574.62,686.56,562.56,677.37,561.32Z"/><path class="cls-28" d="M396.83,876.22c-7.63-10.05-7.29-21.18-7.66-29.6-1-24,53.19-172.34,75.19-198.43C482.14,627.1,565.45,591.77,596.69,579c-2-2.63-4-5.45-6-8.53,0,0-122.23,47.87-144.22,74s-76.2,174.38-75.19,198.43c.37,8.41,0,19.54,7.66,29.59,7.17,9.42,21.34,17.88,49.67,22.26C411.85,890,402.3,883.4,396.83,876.22Z"/><path class="cls-5" d="M602.89,561.32s-9.21,21,24,35.55c0,0-33.24,11.92-37.1,27.36-3.55,14.23-5.65-30.94,0-49.61C589.82,574.62,593.69,562.56,602.89,561.32Z"/><rect class="cls-7" x="617.47" y="593.2" width="46.26" height="32.23" rx="13.36"/><path class="cls-29" d="M969.5,1118.63A15.49,15.49,0,0,1,954,1134.12H675.33a15.49,15.49,0,0,1-15.48-15.49h0a15.48,15.48,0,0,1,15.48-15.48H954a15.48,15.48,0,0,1,15.48,15.48Z"/><path class="cls-5" d="M671.19,906.28s0,0-.07,0c-3.26-9.09-13.89-38.15-17.93-43-4.42-5.28-77.05-5.08-88.54-5l.52-1.31s84.29-.85,90.94,5.54S673,904.49,671.19,906.28Z"/><path class="cls-5" d="M974.77,693.62l.42,1-.63-.83Z"/><path class="cls-27" d="M180.74,732.86s0,0,0-.1Z"/><path class="cls-26" d="M572.79,449.9c-3.79-3.38-7.82.18-7.44,4.33a6.44,6.44,0,0,1,2.57-1.65c-.72,1.29-.68,3.5-.24,5.48.85,3.8,2.68,6.41,6.61,6.64.36,2.49.58,4.33.87,4.18l1-1.11C575.64,461.16,574.71,455,572.79,449.9Z"/><path class="cls-26" d="M709.55,450.32c3.78-3.39,7.81.18,7.43,4.33a6.42,6.42,0,0,0-2.56-1.65c.71,1.29.68,3.5.24,5.48-.85,3.8-2.69,6.41-6.61,6.64-.37,2.49-.58,4.32-.87,4.18l-1-1.11C706.69,461.58,707.63,455.39,709.55,450.32Z"/><path class="cls-30" d="M1148.14,313a81.39,81.39,0,0,1,13.28-9.83,47.4,47.4,0,0,1,6.31-3.1c20-8,28.38,6.84,28.38,6.84,16.58-2.82,18.94,6.61,16.7,17.55,3.41-12.29,2.43-24.11-15.87-21,0,0-8.36-14.88-28.38-6.85a47.45,47.45,0,0,0-6.3,3.11,81.85,81.85,0,0,0-13.29,9.83s-11.4,7.84-17.65-2.68a38.43,38.43,0,0,0,4,8.06C1141.3,317.72,1148.14,313,1148.14,313Z"/><path class="cls-26" d="M579.4,384.88s-25.47,125.67,62.21,182.45c0,0-87.89-128-50.94-219.61Z"/><path class="cls-27" d="M592.35,329.39S664,268,724.64,326l-5.88,1.37s34.52,17.13,33.75,32.73l-5.11-2.56s-76.72,57.79-139.37,0c0,0-31.7,21.31-26.25,71.43l2.63,28.53L559.56,436S502.26,318.65,592.35,329.39Z"/><path class="cls-30" d="M595.27,336.91s65.46-56.09,124.25-10.35l4.28-1c-60.69-58-132.28,3.41-132.28,3.41-90.1-10.74-32.79,106.6-32.79,106.6l.35.31C548.2,410,519.22,327.84,595.27,336.91Z"/><path class="cls-27" d="M641.3,468.64s-49.78.33-58.65,32.72c0,0-5.45,22.5,12.29,36.82l1-3.74s10.24,25.73,28.64,33.41,21.52,18.33,21.52,18.33S677.26,568,689,538.61c0,0,3-1,2.77,1.8S738.82,465.74,641.3,468.64Zm19.25,60.69c-12.6,5.95-14.45-18.07-14.45-18.07.36,7.83-6.85,20.1-11.29,19.76s-27.43-10.72-29-33.07,35.58-22.33,36.6-22.33C712.14,476.13,673.18,523.35,660.55,529.33Z"/><g class="cls-31"><path class="cls-27" d="M633,567.22c-18.4-7.67-28.64-33.41-28.64-33.41l-1,3.75c-17.73-14.32-12.29-36.83-12.29-36.83C598,475.4,630,469.68,643.61,468.39l-2.41,0s-49.78.34-58.66,32.72c0,0-5.44,22.51,12.29,36.82l1-3.74s10.24,25.74,28.64,33.41S646,586,646,586s2.57-1.5,6.51-4.33C649.94,577.84,644.41,572,633,567.22Z"/></g><polygon class="cls-7" points="1146.84 622.92 1131.69 614.18 1131.69 631.67 1146.84 622.92"/><rect class="cls-6" x="1079.46" y="678.58" width="118.02" height="66.22"/><polygon class="cls-7" points="1148.62 708.74 1133.48 699.99 1133.48 717.48 1148.62 708.74"/><rect class="cls-6" x="1080.17" y="768.66" width="118.02" height="66.22"/><polygon class="cls-7" points="1149.34 798.82 1134.19 790.07 1134.19 807.56 1149.34 798.82"/><path class="cls-27" d="M245.86,1102.47s5.46,8.23,3.58,22.74c0,0-38.12,19.78-38.75,6,0-.84-2.81-5.81,22.74-22.24l.46-8.5Z"/><polygon class="cls-32" points="215.82 1121.73 228.15 1126.71 243.77 1115.82 232.72 1109.02 215.82 1121.73"/><path class="cls-27" d="M293.09,1103.55s-4.7,8.69-1.5,23c0,0,39.76,16.24,39.13,2.46,0-.85,2.27-6-24.67-20.09l-1.23-8.42Z"/><polygon class="cls-32" points="324.62 1120.32 312.79 1126.4 296.24 1116.97 306.63 1109.2 324.62 1120.32"/><polygon class="cls-27" points="263.38 942.01 290.48 1108.65 307.41 1107.88 297.03 879.9 243.88 904.82 263.38 942.01"/><polygon class="cls-27" points="234.7 889.52 232.64 1105.07 247.11 1106.11 271.71 882.75 234.7 889.52"/><polygon class="cls-32" points="239.31 888.8 234.93 889.6 232.88 1105.15 237.8 1105.5 239.31 888.8"/><polygon class="cls-9" points="325.18 845.82 294.09 870.98 293.21 851.51 325.17 845.81 325.18 845.82"/><polygon class="cls-10" points="276.18 758.27 274.07 767.35 258.31 771.53 250.07 758.31 257.66 733.1 276.18 758.27"/><path class="cls-8" d="M250.69,756.47l-29,17.46A24.26,24.26,0,0,0,210,792.7l-2.81,33.61,22.09.69,1.76-17L234,893l64.41-1.24-1.24-83.07,11.5-8.16-4-10.74a29.81,29.81,0,0,0-13.11-15.47l-17-9.78S260.85,774.67,250.69,756.47Z"/><polygon class="cls-33" points="234.38 807.97 232.52 825.89 231.96 825.87 234.32 892.64 237.37 892.58 234.38 807.97"/><path class="cls-9" d="M300.45,716.54s-9.76,42.1-22.72,41.71-24.35-30-26.82-41.89C250.91,716.36,280.15,695.31,300.45,716.54Z"/><path class="cls-9" d="M208,823.69l.25.93,1.69,6.24a13.15,13.15,0,0,0,10.2,9.47l59.55,11.48-.42-9.31L228.54,827,225,822.92Z"/><rect class="cls-13" x="269.89" y="795.28" width="83.89" height="55.93" rx="4.42" transform="translate(-37.14 15.04) rotate(-2.61)"/><path class="cls-5" d="M275.42,853.57a5.1,5.1,0,0,1-5.09-4.87l-2.15-47a5.11,5.11,0,0,1,4.87-5.33l75-3.41a5.11,5.11,0,0,1,5.33,4.86l2.14,47a5.11,5.11,0,0,1-4.86,5.33h0l-75,3.41Zm72.84-59.29h-.18l-75,3.42a3.67,3.67,0,0,0-2.59,1.21,3.7,3.7,0,0,0-1,2.69l2.14,47a3.77,3.77,0,0,0,3.9,3.56l75-3.41a3.76,3.76,0,0,0,3.57-3.91l-2.15-47a3.72,3.72,0,0,0-3.72-3.56Z"/><path class="cls-9" d="M315.42,854.26l-4.33.2a7.6,7.6,0,0,1-7.91-7.23h0a7.61,7.61,0,0,1,7.22-7.92l4.33-.19a7.6,7.6,0,0,1,7.91,7.22h0a7.61,7.61,0,0,1-7.22,7.92Z"/><path class="cls-8" d="M250.69,756.47l-29,17.46A24.26,24.26,0,0,0,210,792.7l-2.81,33.61,22.09.69,1.76-17,.41,11.53,43.06-57,18.67,20.2h7.24l4.25,5a29.81,29.81,0,0,0-13.11-15.47l-17-9.78S260.85,774.67,250.69,756.47Z"/><path class="cls-33" d="M215.93,794.89a24.28,24.28,0,0,1,11.66-18.77l25.8-15.53a32.42,32.42,0,0,1-2.65-4l-29,17.45a24.28,24.28,0,0,0-11.67,18.77l-2.81,33.61,6,.19Z"/><g class="cls-34"><path class="cls-27" d="M266.29,938.46a31.26,31.26,0,0,0-1.46-8.93c-1.06-2.83-3.18-5.44-6.09-6.28,2.26,5.74,3.42,11.83,4.58,17.89q1.8,9.47,3.62,18.94c.43,2.3.87,4.59,1.17,6.91a58.16,58.16,0,0,1,.47,7.69c0-1.29.71-2.76.83-4.09a30.44,30.44,0,0,0-.1-4.48,79.82,79.82,0,0,0-.87-8.1Q267,948.28,266.29,938.46Z"/></g><circle class="cls-6" cx="312.42" cy="822.82" r="8.49" transform="translate(-291.1 182.19) rotate(-22.5)"/><path class="cls-10" d="M266,707.7s2.67,13.31,32.88,14.56l2.12-8-16-8.8-16.59-2.92Z"/><path class="cls-27" d="M259,696.49s7.72-20.32,28.58-7.56c0,0,19.16,10.68,28,3.71,0,0,5.88,12.74-8.09,12.19,0,0,3.93,2.23,9.78-2.81,0,0-10.21,30.85-48.8,9.72l-4.08,13.85-3.67-10.42s-12.71,2.27-3.58,19.17l-3.32,10.54C255.07,745.65,229.54,692.27,259,696.49Z"/><path class="cls-30" d="M260.1,699.31s7.72-20.32,28.57-7.56c0,0,18.75,10.43,27.75,3.91a15.76,15.76,0,0,0-.95-3c-8.88,7-28.05-3.71-28.05-3.71-20.85-12.76-28.58,7.56-28.58,7.56-28.48-4.08-5.57,45.66-5.1,48.29l.11-.34C249.46,733,235.29,695.75,260.1,699.31Z"/><path class="cls-9" d="M1220.58,1003.63a17.86,17.86,0,0,1-1.57,1.74l-34.63-33.12s-15.8-35.38-21.07-30.86c0,0-1.51,3,3.76,15.05,0,0-8.28,3-8.28,6.78s11.29,20.32,18.07,21.83l32.71,37.47a12.67,12.67,0,0,0,18.26.85l5.48-5.21Z"/><path class="cls-27" d="M1301.29,1130.32s49.17,19.56,59.71,6.77c0,0,13.55-20.32-55-28.6l-6,21.07Z"/><polygon class="cls-10" points="1279.22 949.67 1278.47 964.72 1292.77 976.77 1305.57 965.48 1307.95 944.92 1279.22 949.68 1279.22 949.67"/><path class="cls-7" d="M1306.32,961l22.76,11.61a44.34,44.34,0,0,1,20.47,21.74l17,38.91-25.59,3.76-6.07-10.32a1.25,1.25,0,0,0-2.27.28l-17.53,59.29-41.62,8.51-20.57-7.78v-76.79a2,2,0,0,0-3.26-1.64l-17.06,12.65-12.8-16.56,17.63-21.16a51.15,51.15,0,0,1,21.48-15.2l19.6-7.3S1292,975.26,1306.32,961Z"/><rect class="cls-4" x="1199.87" y="1086.35" width="121.31" height="32.42" rx="11.03" transform="translate(2063.35 2572.26) rotate(-159.82)"/><path class="cls-27" d="M1251.78,1101.49s-52.53,6.35-55.67,22.62c0,0-2.17,24.33,61.94-1.17l-4.8-21.38Z"/><path class="cls-9" d="M1283.74,903.76c0,.06-16.78,39.54-3.76,47.42,0,0,24.83,3,31.61-10.54l12.79-16.56-24.08-19.57Z"/><rect class="cls-35" x="1234.99" y="1084.93" width="116.87" height="32.42" rx="10.83" transform="translate(-243.35 377.42) rotate(-15.19)"/><path class="cls-9" d="M1363.52,1031l.19.67,2,11.58a9.13,9.13,0,0,1-5.31,10l-51.39,22.7-1.23-10.28,36.88-21.82-3.77-8.28,22.58-4.52Z"/><rect class="cls-13" x="1226.91" y="1024.56" width="89.19" height="53.82" rx="3.73" transform="translate(2543.02 2102.94) rotate(180)"/><path class="cls-5" d="M1313.06,1079.06H1230a3.73,3.73,0,0,1-3.73-3.73v-47.72a3.73,3.73,0,0,1,3.73-3.73h83.1a3.73,3.73,0,0,1,3.73,3.73v47.72A3.73,3.73,0,0,1,1313.06,1079.06Zm-81.73-1.36h80.36a3.73,3.73,0,0,0,3.73-3.73v-45a3.74,3.74,0,0,0-3.73-3.74h-80.36a3.75,3.75,0,0,0-3.74,3.74v45A3.74,3.74,0,0,0,1231.33,1077.7Z"/><path class="cls-7" d="M1306.32,961l22.76,11.61a44.34,44.34,0,0,1,20.47,21.74l17,38.91-25.59,3.76-6.07-10.32a1.25,1.25,0,0,0-2.27.28h0l-45-14-34.74-2.77h0a2,2,0,0,0-3.26-1.64l-17.06,12.65-12.8-16.56,17.63-21.16a51.15,51.15,0,0,1,21.48-15.2l19.6-7.3S1292,975.26,1306.32,961Z"/><circle class="cls-6" cx="1273.3" cy="1051.64" r="8.56" transform="translate(-370.69 1208.38) rotate(-45)"/><path class="cls-10" d="M1311.57,913.45s-21.4,2.09-30.37-3.54l3.49-8.2Z"/><path class="cls-27" d="M1325.89,905.26c4.52-36.13-49.68-7.52-50.43-38.38,0,0-20.32,39.89,31.61,46.66l-2.26,19.57,2.26.75c-.1,0,1.9-4,2-4.18a10.62,10.62,0,0,1,4.75-4.67,1.44,1.44,0,0,1,.58-.13,1.31,1.31,0,0,1,.7.36,6.38,6.38,0,0,1,2.42,4.45,7.44,7.44,0,0,1-2.09,5,24.4,24.4,0,0,1-6.51,4.92.91.91,0,0,0-.34.27,1,1,0,0,0-.1.38l-.69,5.61a19,19,0,0,0,4-2.73,85.78,85.78,0,0,0,13.12-13.68c3-3.87,5.89-8.24,7-13,.93-4,0-7.82-3.64-10C1328.09,906.29,1325.89,905.26,1325.89,905.26Z"/><path class="cls-30" d="M1328.25,906.39c-.21-.13-2.41-1.15-2.41-1.15,4.51-36.13-49.68-7.53-50.43-38.39a37,37,0,0,0-2,5.17c2.37,28.56,54.8,1.41,50.36,37,0,0,2.2,1,2.41,1.16,3.61,2.22,4.57,6.08,3.64,10a23.55,23.55,0,0,1-1.71,4.76,28,28,0,0,0,3.8-8.52C1332.82,912.47,1331.86,908.61,1328.25,906.39Z"/><polygon class="cls-9" points="1169.13 556.04 1183.33 574.24 1174.25 583.44 1156.54 565.98 1169.13 556.04"/><path class="cls-13" d="M1164.3,616.11a2.89,2.89,0,0,0,3.14-.26c3.51-2.13,29.34-29.75,29.34-29.75-.55-.84-1.12-1.65-1.7-2.45,0,0,0,0,0,0a50.47,50.47,0,0,0-8.8-9.46,40.5,40.5,0,0,0-6.33-4.29L1172,581.24l-.78,2.66-6.6,22.61-2.13,7.27A4.9,4.9,0,0,0,1164.3,616.11Z"/><path class="cls-27" d="M1164.3,616.11a2.89,2.89,0,0,0,3.14-.26c3.51-2.13,29.34-29.75,29.34-29.75-.55-.84-1.12-1.65-1.7-2.45Z"/><path class="cls-27" d="M1185.86,583.71a6.47,6.47,0,0,0,9.15-.06l0,0a50.47,50.47,0,0,0-8.8-9.46,6,6,0,0,0-.45.42A6.46,6.46,0,0,0,1185.86,583.71Z"/><polygon class="cls-27" points="1164.63 606.51 1168.77 604.59 1176.39 586.95 1171.23 583.9 1164.63 606.51"/><polygon class="cls-10" points="1119.37 561.77 1110.81 583.19 1098.28 579.99 1104.45 555.89 1119.37 561.77"/><path class="cls-13" d="M1065.05,587.84a2.88,2.88,0,0,0,1.8,2.58c3.61,2,40.48,10.37,40.48,10.37.45-.91.86-1.81,1.26-2.71,0,0,0,0,0-.05a50.6,50.6,0,0,0,3.74-12.36,40.79,40.79,0,0,0,.51-7.63l-13.8-1.1-2.7.66-22.86,5.69-7.34,1.82A4.85,4.85,0,0,0,1065.05,587.84Z"/><path class="cls-27" d="M1065.05,587.84a2.88,2.88,0,0,0,1.8,2.58c3.61,2,40.48,10.37,40.48,10.37.45-.91.86-1.81,1.26-2.71Z"/><path class="cls-27" d="M1103.89,590.15a6.47,6.47,0,0,0,4.66,7.87h.06a50.6,50.6,0,0,0,3.74-12.36c-.2-.07-.39-.13-.59-.18A6.47,6.47,0,0,0,1103.89,590.15Z"/><polygon class="cls-27" points="1073.51 583.29 1077.25 585.9 1096.33 583.59 1096.36 577.6 1073.51 583.29"/><polygon class="cls-36" points="1136.04 525.04 1117.76 569.97 1101.01 566.16 1112.43 486.97 1136.04 525.04"/><path class="cls-9" d="M1197.77,410.54,1197,424l-42.83,24.13s-5.85,8.41-11.39,8.14l-7.93-.48-4.15,5.66s-2.79,1.44-4-.61l3.1-10.11,17.79-4.18,34.77-28.49.27-5.53Z"/><path class="cls-13" d="M1198.1,349.69l4,3.58a55.52,55.52,0,0,1,18.48,38.6c1,19.43.47,48.49-7.16,79.52h-39.66s-6.31-97.36,6.31-110Z"/><path class="cls-9" d="M1208,410.09l-1.45,14.54-47.47,24s-6.73,8.82-12.7,8.27l-8.56-.91L1133,462s-3.08,1.42-4.35-.86l3.84-10.78,19.44-3.67,39-29.15.56-6Z"/><path class="cls-4" d="M1084.89,427.89a.79.79,0,0,1,1.12.07l30.32,34.8a.59.59,0,0,1,.1.17l45-2a.8.8,0,1,1,.07,1.59l-46.11,2a.79.79,0,0,1-.83-.76.78.78,0,0,1,.17-.52L1084.81,429A.79.79,0,0,1,1084.89,427.89Z"/><polygon class="cls-10" points="1176.66 351.44 1181.23 362.1 1197.22 350.68 1193.41 338.5 1190.37 336.21 1176.66 351.44"/><path class="cls-9" d="M1154.35,329.36s15.23,44.17,32.75,21.32,14.46-20.55,14.46-20.55S1175.67,302,1154.35,329.36Z"/><path class="cls-37" d="M1214,388.44l-4.36,29.62-21.78-.87-.87-32.24S1200.88,368.4,1214,388.44Z"/><path class="cls-38" d="M1216.2,460.59s4.12,35.46-30.75,34.81l-41.71,1.33,33.9,68.16-14.05,12.49s-82.73-92.24-42.16-113.21l60.12-2.34Z"/><path class="cls-26" d="M1172.17,322.39s-1.48,8.19-16.28,10.91l-2.11-5.27Z"/><path class="cls-27" d="M1155,331c5,.18,10.42-1.55,16.13-6.23l8.38,18.27s.15-.46.43-1.23c1.71-4.73,8.35-21.21,15.56-14,0,0,3.52,4.22-1.63,12-.2.3-.43.61-.66.94l.56,1.12,2,3.91,1.29,2.58s30.46-51-5.33-44.92c0,0-8.36-14.88-28.38-6.85a47.45,47.45,0,0,0-6.3,3.11,81.85,81.85,0,0,0-13.29,9.83s-11.4,7.84-17.65-2.68C1125.82,306.53,1134,330.29,1155,331Z"/><path class="cls-30" d="M1142.84,313a81.85,81.85,0,0,1,13.29-9.83,47.53,47.53,0,0,1,6.31-3.11c20-8,28.38,6.85,28.38,6.85,16.57-2.82,18.93,6.61,16.69,17.54,3.42-12.29,2.44-24.1-15.86-21,0,0-8.36-14.88-28.38-6.84a47.4,47.4,0,0,0-6.31,3.1,83,83,0,0,0-13.28,9.83s-11.4,7.84-17.66-2.67a39.83,39.83,0,0,0,4,8.05C1136,317.69,1142.84,313,1142.84,313Z"/><path class="cls-5" d="M1157,299.74c13.32-.57,20.74,9.44,24.7,18.37.79,1.81,1.45,3.58,2,5.2a11.84,11.84,0,0,0-3.75,18.53,11.54,11.54,0,0,0,3.13,2.51,11.77,11.77,0,0,0,5.73,1.48,12,12,0,0,0,6.09-1.69l.27-.16a11.83,11.83,0,0,0,5.49-10,11.2,11.2,0,0,0-.11-1.55,11.7,11.7,0,0,0-2-5.18,11.84,11.84,0,0,0-6.28-4.6,11.66,11.66,0,0,0-3.47-.52,11.11,11.11,0,0,0-1.64.13c-.28-.87-.6-1.78-1-2.71a52.25,52.25,0,0,0-2.76-6.19c-4.94-9.39-11.83-15.09-20.14-16.74A47.45,47.45,0,0,0,1157,299.74Z"/><rect class="cls-5" x="135.86" y="460.23" width="218.25" height="193.89" rx="25.04"/><rect class="cls-4" x="142.69" y="467.06" width="204.59" height="180.24" rx="18.21"/><path class="cls-6" d="M186.73,537.92H161a3.14,3.14,0,0,1-3.14-3.13h0a3.14,3.14,0,0,1,3.14-3.13h25.74a3.14,3.14,0,0,1,3.14,3.13h0A3.14,3.14,0,0,1,186.73,537.92Z"/><path class="cls-6" d="M186.73,556.37H161a3.14,3.14,0,0,1-3.14-3.13h0A3.15,3.15,0,0,1,161,550.1h25.74a3.15,3.15,0,0,1,3.14,3.14h0A3.14,3.14,0,0,1,186.73,556.37Z"/><path class="cls-6" d="M186.73,574.81H161a3.14,3.14,0,0,1-3.14-3.13h0a3.14,3.14,0,0,1,3.14-3.13h25.74a3.14,3.14,0,0,1,3.14,3.13h0A3.14,3.14,0,0,1,186.73,574.81Z"/><path class="cls-8" d="M186.73,593.26H161a3.15,3.15,0,0,1-3.14-3.14h0A3.14,3.14,0,0,1,161,587h25.74a3.14,3.14,0,0,1,3.14,3.13h0A3.15,3.15,0,0,1,186.73,593.26Z"/><path class="cls-8" d="M186.73,611.7H161a3.14,3.14,0,0,1-3.14-3.13h0a3.14,3.14,0,0,1,3.14-3.13h25.74a3.14,3.14,0,0,1,3.14,3.13h0A3.14,3.14,0,0,1,186.73,611.7Z"/><circle class="cls-6" cx="266.07" cy="498.95" r="4.87"/><circle class="cls-8" cx="287.2" cy="498.95" r="4.87"/><circle class="cls-7" cx="308.33" cy="498.95" r="4.87"/><rect class="cls-6" x="211.68" y="534.01" width="108.04" height="1.56"/><path class="cls-6" d="M319.72,536.94h-108a2.15,2.15,0,0,1,0-4.29h108a2.15,2.15,0,1,1,0,4.29Zm-108-2.73a.58.58,0,0,0-.58.58.59.59,0,0,0,.58.59h108a.6.6,0,0,0,.59-.59.59.59,0,0,0-.59-.58Z"/><rect class="cls-6" x="211.68" y="552.46" width="108.04" height="1.56"/><path class="cls-6" d="M319.72,555.38h-108a2.15,2.15,0,0,1,0-4.29h108a2.15,2.15,0,1,1,0,4.29Zm-108-2.73a.59.59,0,0,0,0,1.17h108a.59.59,0,1,0,0-1.17Z"/><rect class="cls-6" x="211.68" y="570.9" width="108.04" height="1.56"/><path class="cls-6" d="M319.72,573.82h-108a2.15,2.15,0,0,1,0-4.29h108a2.15,2.15,0,1,1,0,4.29Zm-108-2.73a.59.59,0,0,0,0,1.18h108a.59.59,0,0,0,0-1.18Z"/><rect class="cls-6" x="211.68" y="589.34" width="108.04" height="1.56"/><path class="cls-6" d="M319.72,592.27h-108a2.15,2.15,0,0,1,0-4.29h108a2.15,2.15,0,1,1,0,4.29Zm-108-2.73a.59.59,0,0,0,0,1.17h108a.59.59,0,1,0,0-1.17Z"/><rect class="cls-6" x="211.68" y="607.79" width="108.04" height="1.56"/><path class="cls-6" d="M319.72,610.71h-108a2.15,2.15,0,0,1,0-4.29h108a2.15,2.15,0,1,1,0,4.29Zm-108-2.73a.59.59,0,0,0-.58.59.58.58,0,0,0,.58.58h108a.59.59,0,0,0,.59-.58.6.6,0,0,0-.59-.59Z"/></g></g></g></g></svg>