<?xml version="1.0" encoding="UTF-8"?>
<svg version="1.1" xmlns="http://www.w3.org/2000/svg" width="437" height="570" fill=" rgb(103, 58, 183)">
<path d="M0 0 C1.15806152 0.00225586 2.31612305 0.00451172 3.50927734 0.00683594 C4.38535645 0.00973633 5.26143555 0.01263672 6.1640625 0.015625 C6.18718547 10.95058971 6.20497735 21.88554866 6.21587467 32.8205328 C6.2211036 37.89753518 6.22820142 42.97452089 6.23950195 48.05151367 C6.25033049 52.94683052 6.25633926 57.84213129 6.25893974 62.73745918 C6.26079405 64.60945451 6.26441478 66.48144891 6.26979256 68.35343742 C6.27700254 70.96603199 6.27805346 73.57855927 6.27758789 76.19116211 C6.28118317 76.97302887 6.28477844 77.75489563 6.28848267 78.56045532 C6.27811466 83.90157284 6.27811466 83.90157284 5.1640625 85.015625 C2.63809991 85.25216023 0.13299043 85.43736192 -2.3984375 85.578125 C-3.10935547 85.62130859 -3.82027344 85.66449219 -4.55273438 85.70898438 C-6.31355662 85.81534277 -8.0747207 85.91601346 -9.8359375 86.015625 C-9.990625 87.93375 -9.990625 87.93375 -10.1484375 89.890625 C-10.36987027 91.599978 -10.59957354 93.3082726 -10.8359375 95.015625 C-10.91585937 95.90121094 -10.99578125 96.78679687 -11.078125 97.69921875 C-11.58447921 100.68848525 -12.07664153 102.52849846 -13.8359375 105.015625 C-19.79531478 107.93526954 -27.18722686 110.00197218 -33.8359375 109.015625 C-36.28515625 106.6796875 -36.28515625 106.6796875 -38.5234375 103.640625 C-41.71075879 99.3435724 -41.71075879 99.3435724 -45.8359375 96.015625 C-57.72419086 101.54401012 -57.72419086 101.54401012 -68.453125 108.984375 C-69.8359375 110.015625 -69.8359375 110.015625 -71.8359375 110.015625 C-71.39121094 111.19640625 -70.94648438 112.3771875 -70.48828125 113.59375 C-69.91609995 115.15083353 -69.34451649 116.70813684 -68.7734375 118.265625 C-68.47888672 119.04292969 -68.18433594 119.82023437 -67.88085938 120.62109375 C-67.60693359 121.37519531 -67.33300781 122.12929687 -67.05078125 122.90625 C-66.79417725 123.59750977 -66.53757324 124.28876953 -66.27319336 125.00097656 C-65.74971596 127.41288916 -65.93109626 128.72678729 -66.8359375 131.015625 C-68.27307179 132.25678643 -69.71870232 133.49153888 -71.23046875 134.640625 C-72.91837798 136.08623096 -74.00719015 137.57328661 -75.2734375 139.390625 C-76.1190625 140.256875 -76.9646875 141.123125 -77.8359375 142.015625 C-82.8369422 141.69159902 -87.48179275 140.36780107 -92.2734375 138.953125 C-93.50964844 138.59089844 -94.74585937 138.22867188 -96.01953125 137.85546875 C-96.94894531 137.57832031 -97.87835938 137.30117187 -98.8359375 137.015625 C-99.12275391 137.59828125 -99.40957031 138.1809375 -99.70507812 138.78125 C-100.7315689 140.8094114 -101.80847523 142.78869699 -102.9296875 144.765625 C-103.32027344 145.4565625 -103.71085937 146.1475 -104.11328125 146.859375 C-104.92838542 148.296875 -105.74348958 149.734375 -106.55859375 151.171875 C-106.94917969 151.8628125 -107.33976562 152.55375 -107.7421875 153.265625 C-108.09603516 153.88953125 -108.44988281 154.5134375 -108.81445312 155.15625 C-111.05250127 158.86218087 -111.05250127 158.86218087 -111.8046875 162.98828125 C-109.90749922 166.95860672 -105.76250761 169.13704534 -102.3046875 171.69921875 C-99.8359375 174.015625 -99.8359375 174.015625 -98.890625 176.3203125 C-98.81702905 179.9475415 -99.53670088 183.22543172 -100.4609375 186.703125 C-100.69103516 187.71729492 -100.69103516 187.71729492 -100.92578125 188.75195312 C-101.4375 190.71484375 -101.4375 190.71484375 -102.8359375 194.015625 C-107.8359375 196.015625 -107.8359375 196.015625 -122.8359375 199.015625 C-123.1659375 209.245625 -123.4959375 219.475625 -123.8359375 230.015625 C-120.2059375 230.345625 -116.5759375 230.675625 -112.8359375 231.015625 C-104.67948721 232.74887069 -104.67948721 232.74887069 -102.68359375 235.74609375 C-101.87683318 237.82119431 -101.3350806 239.84734738 -100.8359375 242.015625 C-100.4234375 243.2325 -100.0109375 244.449375 -99.5859375 245.703125 C-98.79425413 249.19972654 -98.6796056 250.66834846 -99.8359375 254.015625 C-102.3046875 256.33203125 -102.3046875 256.33203125 -105.3359375 258.578125 C-109.14373488 261.27109014 -109.14373488 261.27109014 -111.8359375 264.9453125 C-111.8359375 273.38061618 -103.34967398 283.23166604 -98.8359375 290.015625 C-94.30947735 289.60412862 -90.42095034 288.96055841 -86.1484375 287.390625 C-80.23084036 285.36405064 -80.23084036 285.36405064 -76.8359375 287.015625 C-75.21863761 288.67628414 -73.7697285 290.41148659 -72.328125 292.2265625 C-70.4193927 294.51504259 -68.23002309 296.25526795 -65.8359375 298.015625 C-67.27203733 304.75424727 -68.97602037 311.38192057 -70.8359375 318.015625 C-68.33879357 319.60361458 -65.83840076 321.18605599 -63.3359375 322.765625 C-62.63984375 323.2090625 -61.94375 323.6525 -61.2265625 324.109375 C-57.72119238 326.31645989 -54.1815855 328.46689071 -50.5546875 330.46875 C-49.93529297 330.81583008 -49.31589844 331.16291016 -48.67773438 331.52050781 C-46.77902017 332.21744263 -46.77902017 332.21744263 -44.74707031 331.27709961 C-41.94536552 329.42778834 -40.1824454 326.93540632 -38.0859375 324.328125 C-33.72694926 319.27522429 -33.72694926 319.27522429 -30.7578125 318.41015625 C-28.6095073 318.66777822 -26.86010755 319.25228883 -24.8359375 320.015625 C-23.97355469 320.20253906 -23.11117187 320.38945312 -22.22265625 320.58203125 C-18.18749919 321.51052615 -15.55841317 322.13000966 -12.8984375 325.390625 C-11.28770709 330.88605817 -10.03603722 336.41515962 -8.8359375 342.015625 C-3.8859375 342.675625 1.0640625 343.335625 6.1640625 344.015625 C6.1640625 380.975625 6.1640625 417.935625 6.1640625 456.015625 C2.08547199 457.03527263 -1.56611766 457.14927671 -5.72558594 457.12915039 C-6.51620926 457.12929642 -7.30683258 457.12944244 -8.12141418 457.1295929 C-10.72940839 457.12889736 -13.3373308 457.12112175 -15.9453125 457.11328125 C-17.75563518 457.1114158 -19.56595837 457.10999249 -21.37628174 457.10899353 C-26.13724159 457.10517839 -30.89817087 457.09535665 -35.65911865 457.08428955 C-40.51883531 457.07405387 -45.37855692 457.06949129 -50.23828125 457.06445312 C-59.77084676 457.0537335 -69.30338958 457.0366691 -78.8359375 457.015625 C-79.04980606 456.34848984 -79.26367462 455.68135468 -79.48402405 454.9940033 C-84.81757375 437.85291393 -84.81757375 437.85291393 -92.2734375 421.578125 C-93.01533325 420.19282593 -93.01533325 420.19282593 -93.7722168 418.77954102 C-99.66755419 408.06735826 -106.6647355 398.07792018 -113.68554688 388.08349609 C-127.53900722 368.31935182 -139.93772775 348.55842428 -150.8359375 327.015625 C-151.24489258 326.21382813 -151.65384766 325.41203125 -152.07519531 324.5859375 C-182.33956344 264.83254799 -202.20644304 189.83067728 -180.74951172 124.31225586 C-177.58955909 115.13309286 -173.42161487 106.55636671 -168.8359375 98.015625 C-168.51898926 97.41121582 -168.20204102 96.80680664 -167.87548828 96.18408203 C-160.28142629 81.75575793 -150.0204936 69.76801241 -138.8359375 58.015625 C-138.18367188 57.31050781 -137.53140625 56.60539062 -136.859375 55.87890625 C-102.96317478 20.32395581 -48.59950948 -0.12319267 0 0 Z " fill="#040404" transform="translate(211.8359375,12.984375)"/>
<path d="M0 0 C7.35432413 4.30203928 12.73190068 10.69570204 15.4375 18.8125 C16.23665167 29.00495906 15.21973589 36.07393521 9.625 44.5625 C6.86748986 47.39879614 3.92330015 49.91188971 0.4375 51.8125 C-0.5525 51.8125 -1.5425 51.8125 -2.5625 51.8125 C-2.5625 67.6525 -2.5625 83.4925 -2.5625 99.8125 C6.27822863 99.77290599 6.27822863 99.77290599 15.11889648 99.72241211 C16.75967163 99.71866577 16.75967163 99.71866577 18.43359375 99.71484375 C19.55950928 99.70960693 20.6854248 99.70437012 21.84545898 99.69897461 C24.4375 99.8125 24.4375 99.8125 25.4375 100.8125 C25.51080331 103.67719325 25.52967831 106.51143674 25.5 109.375 C25.479375 112.159375 25.45875 114.94375 25.4375 117.8125 C34.0175 117.8125 42.5975 117.8125 51.4375 117.8125 C51.4375 108.2425 51.4375 98.6725 51.4375 88.8125 C49.7875 88.4825 48.1375 88.1525 46.4375 87.8125 C39.68936041 83.80936635 35.86276553 77.08829659 33.4375 69.8125 C32.60495048 60.6663488 33.11736929 53.4647428 38.4375 45.8125 C40.9375 42.9375 40.9375 42.9375 43.4375 40.8125 C44.241875 40.090625 45.04625 39.36875 45.875 38.625 C52.65764926 33.82751638 60.45181754 34.09468585 68.4375 34.8125 C75.60100644 36.66114682 81.83364916 40.91346947 85.9453125 47.0703125 C90.24914984 54.91559314 91.61042968 62.87001193 89.28515625 71.5859375 C86.13547713 79.85928819 80.31759404 85.87245298 72.4375 89.8125 C72.4281543 91.05862061 72.41880859 92.30474121 72.40917969 93.58862305 C72.36925135 98.22016908 72.30348437 102.85105287 72.22998047 107.48217773 C72.20178739 109.48502076 72.18056458 111.4879747 72.16650391 113.4909668 C72.14505146 116.37346107 72.09838944 119.25462409 72.046875 122.13671875 C72.04564636 123.02961105 72.04441772 123.92250336 72.04315186 124.842453 C71.94534325 129.01148244 71.78916382 131.25327554 69.52441406 134.85473633 C65.54005878 138.59251651 61.68576927 137.94115865 56.4921875 137.91015625 C55.6071756 137.9087413 54.7221637 137.90732635 53.81033325 137.90586853 C50.97768809 137.9002614 48.14512136 137.88770771 45.3125 137.875 C43.39453239 137.86998592 41.47656354 137.86542285 39.55859375 137.86132812 C34.85150782 137.85113963 30.14459192 137.83156563 25.4375 137.8125 C25.4375 149.6925 25.4375 161.5725 25.4375 173.8125 C33.34182764 173.83034848 41.24024731 173.82724872 49.14355469 173.76977539 C51.83262753 173.75271481 54.52087967 173.75293564 57.20996094 173.76782227 C61.07317793 173.78279045 64.93386553 173.75321854 68.796875 173.71484375 C70.60330475 173.73622658 70.60330475 173.73622658 72.44622803 173.75804138 C78.22959702 173.90973179 78.22959702 173.90973179 83.03996277 171.26828003 C84.2977977 169.17326146 84.2977977 169.17326146 85.4375 165.8125 C90.61528646 160.04754188 96.10931322 156.25223587 103.859375 155.46484375 C113.89203977 155.07199844 120.51183353 156.76250757 128.25 163.125 C135.28185367 171.76413451 137.42899738 178.61684212 136.4375 189.8125 C134.85066556 196.06497266 132.46297946 200.64502923 127.4375 204.8125 C126.65375 205.51375 125.87 206.215 125.0625 206.9375 C117.44278439 212.38015401 110.66862768 212.57195546 101.4375 211.8125 C94.88332113 210.62955064 89.79072296 206.75103025 85.4375 201.8125 C84.99986328 200.63260498 84.56222656 199.45270996 84.11132812 198.23706055 C83.11741381 196.28434772 83.11741381 196.28434772 81.4375 194.8125 C77.25064203 193.72389668 73.10226354 193.85919308 68.796875 193.91015625 C67.55955627 193.89786484 66.32223755 193.88557343 65.04742432 193.87290955 C61.76546037 193.84650892 58.4853318 193.85011734 55.20336914 193.86828613 C51.85149758 193.87944957 48.50023934 193.85054638 45.1484375 193.82617188 C38.57784745 193.78525035 32.00813522 193.78388924 25.4375 193.8125 C25.44910156 194.94429687 25.46070313 196.07609375 25.47265625 197.2421875 C25.48203454 198.72395669 25.4911347 200.20572765 25.5 201.6875 C25.50837891 202.43386719 25.51675781 203.18023437 25.52539062 203.94921875 C25.55078125 209.5859375 25.55078125 209.5859375 24.4375 211.8125 C12.5575 212.1425 0.6775 212.4725 -11.5625 212.8125 C-11.8925 221.3925 -12.2225 229.9725 -12.5625 238.8125 C-10.38269531 238.76609375 -8.20289063 238.7196875 -5.95703125 238.671875 C-3.83555426 238.64064082 -1.71410331 238.61637533 0.4074707 238.59277344 C1.87698921 238.57271175 3.34642841 238.54545522 4.81567383 238.51074219 C6.93330487 238.46197859 9.04987687 238.43947839 11.16796875 238.421875 C12.44051514 238.40092773 13.71306152 238.37998047 15.02416992 238.35839844 C19.06117527 238.89547232 20.61840653 239.92206517 23.4375 242.8125 C25.51620969 245.88958359 25.67548744 248.34558029 25.6328125 252.015625 C25.62636719 252.9953125 25.61992187 253.975 25.61328125 254.984375 C25.59652344 256.00015625 25.57976562 257.0159375 25.5625 258.0625 C25.55347656 259.09375 25.54445313 260.125 25.53515625 261.1875 C25.51162011 263.72940287 25.47874023 266.2708328 25.4375 268.8125 C26.17871094 269.07675781 26.91992188 269.34101563 27.68359375 269.61328125 C34.61645265 272.63227087 39.26852155 278.0942657 42.4375 284.8125 C44.59566036 291.60778869 44.5668048 300.02202584 41.875 306.625 C37.8755181 314.25909878 32.60126095 319.83314807 24.4375 322.8125 C16.81887062 325.11363704 9.40023567 324.48331369 2.36328125 320.87109375 C1.72777344 320.52175781 1.09226562 320.17242187 0.4375 319.8125 C-0.449375 319.4 -1.33625 318.9875 -2.25 318.5625 C-8.86302632 313.55804765 -12.00856966 306.81331489 -13.5625 298.8125 C-14.44234951 290.89385445 -12.18222091 282.84242106 -7.3125 276.4375 C0.67559524 268.8125 0.67559524 268.8125 5.4375 268.8125 C5.4375 265.5125 5.4375 262.2125 5.4375 258.8125 C4.5904248 258.82821045 3.74334961 258.8439209 2.87060547 258.86010742 C-0.29392204 258.9114557 -3.45823608 258.94895672 -6.62304688 258.97729492 C-7.98867816 258.99231428 -9.35426176 259.01273608 -10.71972656 259.03881836 C-12.69053905 259.07550137 -14.66171408 259.09068551 -16.6328125 259.10546875 C-17.81633301 259.1211792 -18.99985352 259.13688965 -20.21923828 259.15307617 C-24.01742528 258.76615702 -26.35827142 257.87377275 -29.5625 255.8125 C-31.29572966 253.03351631 -31.81012709 250.93757972 -31.78955078 247.68652344 C-31.78939972 246.88599548 -31.78924866 246.08546753 -31.78909302 245.26068115 C-31.77877045 244.40637512 -31.76844788 243.55206909 -31.7578125 242.671875 C-31.7549826 241.78969299 -31.75215271 240.90751099 -31.74923706 239.99859619 C-31.73805961 237.18642501 -31.71295951 234.3745746 -31.6875 231.5625 C-31.67746705 229.65365044 -31.66834175 227.74479588 -31.66015625 225.8359375 C-31.63983146 221.16123592 -31.60067834 216.48722619 -31.5625 211.8125 C-37.5025 211.8125 -43.4425 211.8125 -49.5625 211.8125 C-50.73419969 209.46910063 -50.68824056 208.09660554 -50.68948364 205.48535156 C-50.69230347 204.57676392 -50.69512329 203.66817627 -50.69802856 202.73205566 C-50.69600433 201.73250854 -50.6939801 200.73296143 -50.69189453 199.703125 C-50.69364685 198.65265991 -50.69539917 197.60219482 -50.69720459 196.51989746 C-50.70161983 193.03408169 -50.69868625 189.54831632 -50.6953125 186.0625 C-50.69598563 183.64876292 -50.69695574 181.23502591 -50.69821167 178.82128906 C-50.6996882 173.75715491 -50.69753552 168.69303836 -50.69287109 163.62890625 C-50.68717384 157.12508747 -50.69045309 150.62130994 -50.69644356 144.11749268 C-50.70005037 139.13166999 -50.69891003 134.14585715 -50.69631577 129.16003418 C-50.69564683 126.76135249 -50.69647376 124.36266992 -50.69879532 121.96398926 C-50.70132379 118.61659362 -50.69747844 115.26926558 -50.69189453 111.921875 C-50.69391876 110.92232788 -50.69594299 109.92278076 -50.69802856 108.89294434 C-50.69520874 107.98435669 -50.69238892 107.07576904 -50.68948364 106.13964844 C-50.68910662 105.34766052 -50.68872959 104.55567261 -50.68834114 103.73968506 C-50.5625 101.8125 -50.5625 101.8125 -49.5625 99.8125 C-40.6525 99.8125 -31.7425 99.8125 -22.5625 99.8125 C-22.5625 83.9725 -22.5625 68.1325 -22.5625 51.8125 C-24.5425 51.1525 -26.5225 50.4925 -28.5625 49.8125 C-34.86233402 45.66382882 -38.59291046 40.02260456 -40.5625 32.8125 C-41.44164794 22.97061007 -41.0204458 14.87998493 -34.75 7.0625 C-25.88525155 -2.54644956 -12.01464842 -5.72812324 0 0 Z " fill="#090909" transform="translate(276.5625,71.1875)"/>
<path d="M0 0 C1.77183869 1.77183869 1.12615315 4.33297266 1.12698364 6.73217773 C1.13121338 8.60001419 1.13121338 8.60001419 1.13552856 10.50558472 C1.13358397 11.89825454 1.13153578 13.29092422 1.12939453 14.68359375 C1.13074853 16.14022872 1.13252845 17.59686334 1.13470459 19.05349731 C1.13927912 23.02032936 1.13748928 26.98713552 1.1343255 30.95396805 C1.131802 35.09618451 1.13413941 39.23839869 1.13571167 43.38061523 C1.1375334 50.33805745 1.13512698 57.29548908 1.13037109 64.25292969 C1.12492847 72.30827528 1.12669112 80.36359557 1.1321975 88.41894054 C1.13672855 95.32253073 1.13737922 102.22611328 1.13475883 109.12970448 C1.13319601 113.25842008 1.13300243 117.38712377 1.13629532 121.51583862 C1.13917391 125.39649522 1.13719857 129.27711903 1.13140106 133.15777206 C1.1300734 134.58607809 1.13046769 136.01438685 1.13266373 137.4426918 C1.13537495 139.38440099 1.13138066 141.32611617 1.12698364 143.26782227 C1.1264181 144.90159569 1.1264181 144.90159569 1.12584114 146.56837463 C1 149 1 149 0 150 C-5.57097303 150.26818689 -10.47677544 149.69288003 -15.875 148.25 C-16.57334961 148.06663086 -17.27169922 147.88326172 -17.99121094 147.69433594 C-36.41743968 142.72326173 -53.02431456 131.8016464 -63.06445312 115.24462891 C-73.75088607 96.56276588 -77.60319417 75.73305319 -71.90942383 54.67163086 C-68.6835367 44.02931948 -63.44513359 34.27887153 -56 26 C-55.20980469 25.10539062 -54.41960937 24.21078125 -53.60546875 23.2890625 C-40.18205147 8.94192544 -19.93506559 -0.89372648 0 0 Z " fill="#050505" transform="translate(217,152)"/>
<path d="M0 0 C0.65593067 -0.00453111 1.31186134 -0.00906223 1.98766869 -0.01373065 C4.18392345 -0.02638317 6.3799305 -0.02475376 8.57621765 -0.02310181 C10.15164 -0.02908659 11.72705942 -0.03589202 13.30247498 -0.04345703 C17.58151294 -0.06113069 21.86047093 -0.06581302 26.13954186 -0.0670886 C28.81375158 -0.06851014 31.48794095 -0.0727798 34.16214561 -0.07808304 C43.49403042 -0.09658874 52.82585808 -0.10475309 62.15776062 -0.10317993 C70.8521864 -0.1019788 79.54636383 -0.12307417 88.24072677 -0.15466726 C95.70838281 -0.18083437 103.17595777 -0.19154703 110.64365929 -0.19026911 C115.10236507 -0.18975955 119.56085021 -0.19543934 124.01951027 -0.21662521 C128.21470888 -0.23601467 132.40947658 -0.23612741 136.60469055 -0.22159195 C138.1417523 -0.21950352 139.67884106 -0.22420684 141.21585655 -0.23631287 C155.64222121 -0.34255164 155.64222121 -0.34255164 161.4539032 4.26742554 C165.62665292 8.6657293 167.53112221 12.6069566 167.7664032 18.64242554 C167.59578285 24.0663567 166.42716056 28.1726725 162.61405945 32.22055054 C157.0277493 37.33873414 153.64380651 38.38816402 146.05966187 38.40786743 C144.74325714 38.41357758 143.42685242 38.41928772 142.07055664 38.4251709 C140.6132966 38.42641618 139.15603646 38.42754129 137.69877625 38.42855835 C136.16276429 38.43318812 134.62675349 38.438213 133.09074402 38.44360352 C128.91915674 38.45671381 124.74758555 38.46316975 120.5759809 38.46761417 C117.96878134 38.47054698 115.36158616 38.47465218 112.75438881 38.47911835 C104.59424475 38.49278939 96.43411072 38.50245809 88.273956 38.50632024 C78.85938852 38.5108008 69.44496623 38.52835024 60.03044289 38.55732083 C52.74963067 38.57894665 45.46885928 38.58902499 38.18801528 38.59036136 C33.84112419 38.5914087 29.49436967 38.59730146 25.14751244 38.61518097 C21.05743913 38.63167734 16.96760482 38.63380962 12.87751007 38.62504196 C11.37914959 38.62427244 9.88077618 38.62860319 8.3824482 38.63850021 C-7.49256408 38.73718377 -7.49256408 38.73718377 -13.47187805 33.61898804 C-17.92551947 28.07389083 -20.04324113 23.84069885 -19.86250305 16.61117554 C-19.15415655 11.36416442 -16.84254934 7.49905545 -13.0460968 3.89242554 C-8.43115721 0.8927148 -5.60057502 0.01598258 0 0 Z " fill="#080808" transform="translate(143.5460968017578,476.7325744628906)"/>
<path d="M0 0 C1.41676453 -0.00678492 2.83352023 -0.01569295 4.2502594 -0.02655029 C8.07893522 -0.04924704 11.9069336 -0.0405478 15.7356205 -0.02465487 C19.75308608 -0.01194554 23.77049587 -0.02374989 27.78796387 -0.03158569 C34.5330643 -0.04066769 41.27789048 -0.02873265 48.02294922 -0.00488281 C55.80756277 0.0223259 63.59152144 0.0135107 71.37611914 -0.01401484 C78.074496 -0.03674647 84.77267636 -0.03988628 91.47107935 -0.02682149 C95.46532065 -0.01904914 99.45925471 -0.01792387 103.45347595 -0.03450394 C107.20978702 -0.04900889 110.96525851 -0.03881889 114.72147942 -0.01003265 C116.74758137 -0.0003296 118.77375481 -0.01507054 120.79981995 -0.03067017 C128.04476595 0.05309231 133.41505829 0.62007068 138.90820312 5.64697266 C142.97007907 11.01913116 143.77928603 17.06773475 142.90820312 23.64697266 C140.81108183 30.54189829 138.00533921 34.18292824 131.69293404 37.57374191 C126.30745483 39.6492968 120.77221408 39.33926217 115.07006836 39.29394531 C113.69256438 39.30073284 112.31506949 39.30964232 110.93759155 39.32049561 C107.22053446 39.34315936 103.50417644 39.3345076 99.78710818 39.31860018 C95.88442627 39.30587608 91.98180127 39.31769903 88.07911682 39.32553101 C81.52830335 39.33460767 74.97777245 39.32269094 68.42700195 39.29882812 C60.86787173 39.27160902 53.30941573 39.28044424 45.75030178 39.30796015 C39.24298432 39.33069351 32.73586911 39.33383111 26.22852474 39.32076681 C22.34943127 39.31299684 18.47065413 39.31186272 14.59158134 39.32844925 C10.94441102 39.34295721 7.29810519 39.33275902 3.65102768 39.30397797 C1.68457457 39.29427889 -0.28195218 39.30901252 -2.24836731 39.32461548 C-9.49608826 39.23833749 -14.53027185 38.50053208 -20.09179688 33.64697266 C-24.445377 29.17882464 -25.86155497 24.98776532 -26.46679688 18.83447266 C-26.30070837 14.01790593 -25.02316864 9.4978549 -22.09179688 5.64697266 C-15.50037387 -0.32620597 -8.50885626 -0.06551367 0 0 Z " fill="#070707" transform="translate(159.091796875,523.35302734375)"/>
<path d="M0 0 C3.8341514 1.63797876 6.68752203 4.08070405 9.8125 6.8125 C10.80894531 7.66457031 11.80539062 8.51664063 12.83203125 9.39453125 C15 12 15 12 14.9765625 14.6484375 C13.62814084 17.89543685 11.65148665 19.73653578 9 22 C8.34 22 7.68 22 7 22 C7 22.66 7 23.32 7 24 C5 25.625 5 25.625 3 27 C-0.17903494 25.57442379 -2.53658432 23.8226848 -5.125 21.5 C-6.14980469 20.58734375 -6.14980469 20.58734375 -7.1953125 19.65625 C-8.49119988 18.46695076 -9.75626434 17.24373566 -11 16 C-10.87481066 11.16769144 -8.13580204 8.48258697 -4.9375 5.1875 C-4.46505859 4.68541016 -3.99261719 4.18332031 -3.50585938 3.66601562 C-2.34591548 2.43577211 -1.17411185 1.21672935 0 0 Z " fill="#1C1C1C" transform="translate(354,52)"/>
<path d="M0 0 C6.57791873 0.41044485 12.74051886 0.86608597 19 3 C20.67641098 7.09086452 19.2409319 10.71511018 18.0625 14.75 C17.86720703 15.44738281 17.67191406 16.14476563 17.47070312 16.86328125 C16.9891754 18.57798973 16.49574843 20.28934877 16 22 C13.95775363 21.88485851 11.91619841 21.75742674 9.875 21.625 C8.73804688 21.55539063 7.60109375 21.48578125 6.4296875 21.4140625 C3.04606384 21.00556124 0.18387559 20.19032431 -3 19 C-2.88534579 16.77027727 -2.75785234 14.54121247 -2.625 12.3125 C-2.55539063 11.07113281 -2.48578125 9.82976563 -2.4140625 8.55078125 C-2.03577906 5.30682228 -1.38020024 2.93432815 0 0 Z " fill="#212121" transform="translate(247,6)"/>
<path d="M0 0 C0.50604924 2.39469729 1.00499517 4.79051717 1.5 7.1875 C1.64308594 7.86103516 1.78617187 8.53457031 1.93359375 9.22851562 C2.68069842 12.87509793 3.17352282 16.27648957 3 20 C-3.46794133 21.51233701 -9.35590042 22.21432579 -16 22 C-17.62297722 18.29522922 -18.52872056 14.79984921 -19.1875 10.8125 C-19.45626953 9.24435547 -19.45626953 9.24435547 -19.73046875 7.64453125 C-20 5 -20 5 -19 3 C-16.37007199 2.16748364 -13.80076831 1.45701115 -11.125 0.8125 C-10.39152344 0.62236328 -9.65804688 0.43222656 -8.90234375 0.23632812 C-3.3799794 -1.1266598 -3.3799794 -1.1266598 0 0 Z " fill="#191919" transform="translate(418,152)"/>
<path d="M0 0 C2.98181944 1.2304162 3.96939561 3.07160347 5.7265625 5.7421875 C6.31695312 6.62648438 6.90734375 7.51078125 7.515625 8.421875 C8.03898437 9.22882813 8.56234375 10.03578125 9.1015625 10.8671875 C10.0915625 12.3521875 10.0915625 12.3521875 11.1015625 13.8671875 C11.0859375 15.78515625 11.0859375 15.78515625 10.1015625 17.8671875 C7.5546875 20.04296875 7.5546875 20.04296875 4.3515625 22.1796875 C3.30484375 22.89769531 2.258125 23.61570312 1.1796875 24.35546875 C-1.8984375 25.8671875 -1.8984375 25.8671875 -4.515625 25.9609375 C-7.9447358 24.38691943 -9.23174257 22.19312934 -11.2734375 19.0546875 C-11.98242188 17.99636719 -12.69140625 16.93804687 -13.421875 15.84765625 C-14.8984375 12.8671875 -14.8984375 12.8671875 -14.93359375 10.7421875 C-13.43192055 8.02217566 -11.41865283 6.55911687 -8.9609375 4.6796875 C-8.06503906 3.98488281 -7.16914063 3.29007812 -6.24609375 2.57421875 C-2.46832101 -0.17268089 -2.46832101 -0.17268089 0 0 Z " fill="#1B1B1B" transform="translate(382.8984375,81.1328125)"/>
<path d="M0 0 C4.374199 1.30253926 7.96406031 2.98945013 11.8125 5.4375 C12.76769531 6.03433594 13.72289062 6.63117187 14.70703125 7.24609375 C17 9 17 9 18 12 C16.60050651 14.50973885 15.17371593 16.82169398 13.5625 19.1875 C13.12873047 19.84169922 12.69496094 20.49589844 12.24804688 21.16992188 C11.17454017 22.78608033 10.0884403 24.39386099 9 26 C4.57676318 25.41734728 1.4844136 23.73233789 -2.3125 21.4375 C-3.91544922 20.47650391 -3.91544922 20.47650391 -5.55078125 19.49609375 C-6.35902344 19.00238281 -7.16726563 18.50867188 -8 18 C-7.47729735 13.09690194 -5.9987369 9.81611493 -3.4375 5.625 C-2.79683594 4.56539062 -2.15617187 3.50578125 -1.49609375 2.4140625 C-1.00238281 1.61742188 -0.50867188 0.82078125 0 0 Z " fill="#202020" transform="translate(321,30)"/>
<path d="M0 0 C3.25453344 5.58195942 5.46934714 11.7382383 7 18 C-7.92080374 24.83041238 -7.92080374 24.83041238 -13 23 C-14.58203125 20.453125 -14.58203125 20.453125 -15.8125 17.25 C-16.23144531 16.20328125 -16.65039062 15.1565625 -17.08203125 14.078125 C-17.94639002 11.17976452 -18.19423147 8.99671416 -18 6 C-15.56781941 4.80036357 -13.13029422 3.61515562 -10.6875 2.4375 C-9.99720703 2.09525391 -9.30691406 1.75300781 -8.59570312 1.40039062 C-3.33984375 -1.11328125 -3.33984375 -1.11328125 0 0 Z " fill="#161616" transform="translate(405,115)"/>
<path d="M0 0 C7.36072234 0.42465706 13.32137824 2.98348917 20 6 C19.41347648 10.48993869 18.2356462 14.22543184 16.4375 18.375 C15.98246094 19.43460938 15.52742188 20.49421875 15.05859375 21.5859375 C14.70925781 22.38257812 14.35992187 23.17921875 14 24 C8.29097373 23.50356293 0.20216829 22.20216829 -4 18 C-3.54141875 11.69450785 -1.95347773 5.99557945 0 0 Z " fill="#1F1F1F" transform="translate(284,15)"/>
<path d="M0 0 C4.23316828 0.48052181 7.55511023 2.12187012 11.3125 4.0625 C12.38113281 4.61035156 13.44976562 5.15820312 14.55078125 5.72265625 C15.35902344 6.14417969 16.16726563 6.56570313 17 7 C16.44380331 11.6889493 15.11817327 15.19924267 12.9375 19.375 C12.38964844 20.43460937 11.84179688 21.49421875 11.27734375 22.5859375 C10.85582031 23.38257813 10.43429687 24.17921875 10 25 C5.52529845 24.44977744 2.15012839 23.32872875 -1.8125 21.1875 C-2.76769531 20.68605469 -3.72289062 20.18460937 -4.70703125 19.66796875 C-7 18 -7 18 -8.03515625 16.21875 C-7.98070191 12.78207629 -6.30608543 10.209485 -4.625 7.3125 C-4.13 6.42208008 -4.13 6.42208008 -3.625 5.51367188 C-1.21142451 1.21142451 -1.21142451 1.21142451 0 0 Z " fill="#1F1F1F" transform="translate(366,333)"/>
<path d="M0 0 C4.16523793 0.37954271 7.07368688 3.0814803 10.25 5.5625 C10.80429687 5.98724609 11.35859375 6.41199219 11.9296875 6.84960938 C13.29089411 7.89398341 14.64605833 8.94622464 16 10 C15.37695259 14.07453229 13.23467379 16.89539701 10.9375 20.25 C10.20402344 21.32765625 9.47054688 22.4053125 8.71484375 23.515625 C8.14894531 24.33546875 7.58304687 25.1553125 7 26 C2.38127938 25.46014954 -0.52395069 23.56034183 -4.3125 20.9375 C-5.38113281 20.20402344 -6.44976562 19.47054688 -7.55078125 18.71484375 C-8.35902344 18.14894531 -9.16726563 17.58304687 -10 17 C-9.37307684 12.95438646 -7.27725722 10.15112174 -5 6.8125 C-4.278125 5.74644531 -3.55625 4.68039062 -2.8125 3.58203125 C-1 1 -1 1 0 0 Z " fill="#1D1D1D" transform="translate(327,396)"/>
<path d="M0 0 C4.42323682 0.58265272 7.5155864 2.26766211 11.3125 4.5625 C12.38113281 5.20316406 13.44976562 5.84382813 14.55078125 6.50390625 C15.35902344 6.99761719 16.16726563 7.49132812 17 8 C16.46105575 12.59808129 15.23428472 15.86784369 12.9375 19.875 C12.38964844 20.84179688 11.84179688 21.80859375 11.27734375 22.8046875 C10.85582031 23.52914063 10.43429687 24.25359375 10 25 C5.70720097 24.4276268 2.1327514 23.40603005 -1.8125 21.625 C-2.76769531 21.20476562 -3.72289062 20.78453125 -4.70703125 20.3515625 C-7 19 -7 19 -8 16 C-7.37915039 14.19067383 -7.37915039 14.19067383 -6.34765625 12.20703125 C-5.98349609 11.49482422 -5.61933594 10.78261719 -5.24414062 10.04882812 C-4.85419922 9.31083984 -4.46425781 8.57285156 -4.0625 7.8125 C-3.48338867 6.68811523 -3.48338867 6.68811523 -2.89257812 5.54101562 C-1.93728243 3.68939311 -0.96978423 1.84407548 0 0 Z " fill="#1D1D1D" transform="translate(306,429)"/>
<path d="M0 0 C4.46182436 1.31074365 7.99618757 3.07066011 11.875 5.625 C12.84179688 6.25664062 13.80859375 6.88828125 14.8046875 7.5390625 C15.52914063 8.02117187 16.25359375 8.50328125 17 9 C16.35334943 12.98606994 14.38079227 15.84669675 12.1875 19.1875 C11.50042969 20.25355469 10.81335938 21.31960938 10.10546875 22.41796875 C8 25 8 25 6.16015625 26.140625 C2.5591412 25.90620087 0.05061998 23.65219337 -2.75 21.5625 C-3.35199219 21.12873047 -3.95398438 20.69496094 -4.57421875 20.24804688 C-6.05769401 19.17664807 -7.52997152 18.08977545 -9 17 C-8.46014954 12.38127938 -6.56034183 9.47604931 -3.9375 5.6875 C-2.83728516 4.08455078 -2.83728516 4.08455078 -1.71484375 2.44921875 C-1.14894531 1.64097656 -0.58304687 0.83273437 0 0 Z " fill="#1D1D1D" transform="translate(348,365)"/>
<path d="M0 0 C5.86854438 0.51030821 12.00716158 1.74795965 17 5 C18.81413256 9.33714884 17.4216736 12.47469039 15.75 16.6875 C15.31171875 17.82574219 14.8734375 18.96398437 14.421875 20.13671875 C13 23 13 23 10 25 C8.19067383 24.58447266 8.19067383 24.58447266 6.20703125 23.6640625 C5.1387207 23.18066406 5.1387207 23.18066406 4.04882812 22.6875 C2.9418457 22.1615625 2.9418457 22.1615625 1.8125 21.625 C1.06291016 21.28210938 0.31332031 20.93921875 -0.45898438 20.5859375 C-2.31169351 19.73628745 -4.15662546 18.86971641 -6 18 C-5.41347648 13.51006131 -4.2356462 9.77456816 -2.4375 5.625 C-1.98246094 4.56539063 -1.52742188 3.50578125 -1.05859375 2.4140625 C-0.70925781 1.61742187 -0.35992187 0.82078125 0 0 Z " fill="#1D1D1D" transform="translate(380,299)"/>
<path d="M0 0 C6.27 0 12.54 0 19 0 C19 6.6 19 13.2 19 20 C15.04390903 20.98902274 12.45635544 20.96333368 8.4375 20.625 C6.73400391 20.48964844 6.73400391 20.48964844 4.99609375 20.3515625 C2 20 2 20 -1 19 C-1.02690104 16.20826945 -1.04679053 13.41679652 -1.0625 10.625 C-1.07087891 9.8309375 -1.07925781 9.036875 -1.08789062 8.21875 C-1.11328125 2.2265625 -1.11328125 2.2265625 0 0 Z " fill="#1D1D1D" transform="translate(403,191)"/>
<path d="M0 0 C0.66 0.33 1.32 0.66 2 1 C-3.48518894 7.19623195 -9.07562035 13.22090487 -15 19 C-15.66 18.67 -16.32 18.34 -17 18 C-11.65611545 11.66519646 -5.91166188 5.80460966 0 0 Z " fill="#3A3A3A" transform="translate(81,63)"/>
<path d="M0 0 C0.66 0.33 1.32 0.66 2 1 C1.01 1.33 0.02 1.66 -1 2 C-2.18729655 6.17837056 -1.77063071 8.64901338 -0.25 12.6875 C0.09546875 13.64011719 0.4409375 14.59273437 0.796875 15.57421875 C1.89150898 18.28801614 1.89150898 18.28801614 5 20 C2.67578125 19.859375 2.67578125 19.859375 0 19 C-1.58203125 16.453125 -1.58203125 16.453125 -2.8125 13.25 C-3.23144531 12.20328125 -3.65039062 11.1565625 -4.08203125 10.078125 C-4.94639002 7.17976452 -5.19423147 4.99671416 -5 2 C-2.625 0.9375 -2.625 0.9375 0 0 Z " fill="#787878" transform="translate(392,119)"/>
<path d="M0 0 C3.18500706 2.76957136 3.84865999 5.0325799 4.16796875 9.18359375 C4.20608817 13.58257465 4.06697318 16.99523947 2 21 C1.67 21 1.34 21 1 21 C1.01160156 20.07058594 1.02320313 19.14117188 1.03515625 18.18359375 C1.11753537 9.04290683 1.11753537 9.04290683 0 0 Z " fill="#6C6C6C" transform="translate(298,531)"/>
<path d="M0 0 C0.66 0.33 1.32 0.66 2 1 C0.52202738 4.67056937 -1.47615477 6.41085783 -4.625 8.75 C-5.44226563 9.36359375 -6.25953125 9.9771875 -7.1015625 10.609375 C-7.72804687 11.06828125 -8.35453125 11.5271875 -9 12 C-9 7.8407692 -6.75316432 5.85455565 -4 3 C-1.6875 1.125 -1.6875 1.125 0 0 Z " fill="#4E4E4E" transform="translate(249,72)"/>
<path d="M0 0 C0 0.66 0 1.32 0 2 C-0.99 2.33 -1.98 2.66 -3 3 C-4.58749782 4.68909768 -5.97391918 6.48401943 -7.40234375 8.30859375 C-9.13121139 10.13891083 -10.70197972 11.01229798 -13 12 C-11.06425605 7.24862848 -5.56568385 0 0 0 Z " fill="#565656" transform="translate(280,341)"/>
<path d="M0 0 C0.33 2.64 0.66 5.28 1 8 C-0.4606285 5.35261084 -1 4.10551666 -1 1 C-1.99 1.495 -1.99 1.495 -3 2 C-6.86061033 3.28687011 -9.94150283 3.13757618 -14 3 C-11.39395012 1.26263341 -9.92766764 0.54996173 -7 -0.1875 C-6.319375 -0.36667969 -5.63875 -0.54585937 -4.9375 -0.73046875 C-3 -1 -3 -1 0 0 Z " fill="#797979" transform="translate(418,152)"/>
<path d="M0 0 C0.66 0.33 1.32 0.66 2 1 C1.50628906 1.53109375 1.01257813 2.0621875 0.50390625 2.609375 C-0.13675781 3.31578125 -0.77742188 4.0221875 -1.4375 4.75 C-2.07558594 5.44609375 -2.71367187 6.1421875 -3.37109375 6.859375 C-4.99081325 8.98792725 -5.58267256 10.39023405 -6 13 C-8 10 -8 10 -7.84765625 8.015625 C-6.79964732 5.52358532 -5.53888041 4.43110433 -3.4375 2.75 C-2.79683594 2.22921875 -2.15617187 1.7084375 -1.49609375 1.171875 C-1.00238281 0.78515625 -0.50867188 0.3984375 0 0 Z " fill="#616161" transform="translate(376,84)"/>
<path d="M0 0 C0 5.11986304 -2.66181162 8.24453807 -6 12 C-6.66 12 -7.32 12 -8 12 C-8.33 12.66 -8.66 13.32 -9 14 C-8.50128936 9.54326841 -6.97995638 7.42312822 -3.9375 4.1875 C-3.20402344 3.39730469 -2.47054688 2.60710938 -1.71484375 1.79296875 C-1.14894531 1.20128906 -0.58304687 0.60960937 0 0 Z " fill="#676767" transform="translate(352,54)"/>
<path d="M0 0 C0.66 0.33 1.32 0.66 2 1 C1.04578192 2.14926266 0.08647955 3.29430541 -0.875 4.4375 C-1.40867187 5.07558594 -1.94234375 5.71367188 -2.4921875 6.37109375 C-4 8 -4 8 -6 9 C-6.33 9.99 -6.66 10.98 -7 12 C-7.66 12 -8.32 12 -9 12 C-7.60090738 7.54834166 -5.39864635 5.14374788 -2 2 C-1.34 1.34 -0.68 0.68 0 0 Z " fill="#525252" transform="translate(322,110)"/>
<path d="M0 0 C0 0.66 0 1.32 0 2 C-0.99 2.33 -1.98 2.66 -3 3 C-3.825 3.99 -4.65 4.98 -5.5 6 C-8 9 -8 9 -11 10 C-9.63088196 6.8510285 -8.1247864 4.9521513 -5.5 2.75 C-4.8915625 2.22921875 -4.283125 1.7084375 -3.65625 1.171875 C-2 0 -2 0 0 0 Z " fill="#595959" transform="translate(372,230)"/>
<path d="M0 0 C2.00045613 0.26956501 3.98036247 0.68194312 5.953125 1.109375 C5.375625 1.233125 4.798125 1.356875 4.203125 1.484375 C1.94215305 2.03506499 1.94215305 2.03506499 -0.046875 3.109375 C-2.04085924 4.10636712 -3.87427603 4.64381808 -6.046875 5.109375 C-3.15469741 0.16857162 -3.15469741 0.16857162 0 0 Z " fill="#545454" transform="translate(181.046875,331.890625)"/>
<path d="M0 0 C0.66 0.33 1.32 0.66 2 1 C1.01 1.33 0.02 1.66 -1 2 C-2.21869929 4.50447516 -2.21869929 4.50447516 -3 7 C-3.66 7 -4.32 7 -5 7 C-5 5.35 -5 3.7 -5 2 C-2.625 0.9375 -2.625 0.9375 0 0 Z " fill="#636363" transform="translate(392,119)"/>
</svg>
